<?xml version="1.0" encoding="UTF-8" standalone="no"?>
<!DOCTYPE svg PUBLIC "-//W3C//DTD SVG 1.1//EN"
 "http://www.w3.org/Graphics/SVG/1.1/DTD/svg11.dtd">
<!-- Generated by graphviz version 2.49.0 (20210829.0051)
 -->
<!-- Title: snakemake_dag Pages: 1 -->
<svg width="1065pt" height="548pt"
 viewBox="0.00 0.00 1065.00 548.00" xmlns="http://www.w3.org/2000/svg" xmlns:xlink="http://www.w3.org/1999/xlink">
<g id="graph0" class="graph" transform="scale(1 1) rotate(0) translate(4 544)">
<title>snakemake_dag</title>
<polygon fill="white" stroke="transparent" points="-4,4 -4,-544 1061,-544 1061,4 -4,4"/>
<!-- 0 -->
<g id="node1" class="node">
<title>0</title>
<path fill="none" stroke="#d8a456" stroke-width="2" d="M451,-36C451,-36 421,-36 421,-36 415,-36 409,-30 409,-24 409,-24 409,-12 409,-12 409,-6 415,0 421,0 421,0 451,0 451,0 457,0 463,-6 463,-12 463,-12 463,-24 463,-24 463,-30 457,-36 451,-36"/>
<text text-anchor="middle" x="436" y="-15.5" font-family="sans" font-size="10.00">all</text>
</g>
<!-- 1 -->
<g id="node2" class="node">
<title>1</title>
<path fill="none" stroke="#d8bc56" stroke-width="2" d="M837,-396C837,-396 807,-396 807,-396 801,-396 795,-390 795,-384 795,-384 795,-372 795,-372 795,-366 801,-360 807,-360 807,-360 837,-360 837,-360 843,-360 849,-366 849,-372 849,-372 849,-384 849,-384 849,-390 843,-396 837,-396"/>
<text text-anchor="middle" x="822" y="-375.5" font-family="sans" font-size="10.00">seqfu</text>
</g>
<!-- 1&#45;&gt;0 -->
<g id="edge1" class="edge">
<title>1&#45;&gt;0</title>
<path fill="none" stroke="grey" stroke-width="2" d="M849.33,-362.14C870,-350.37 895.97,-334.26 903,-324 925.87,-290.64 922,-275.45 922,-235 922,-235 922,-235 922,-161 922,-67.55 586.78,-31.38 473.15,-21.8"/>
<polygon fill="grey" stroke="grey" stroke-width="2" points="473.42,-18.31 463.17,-20.98 472.85,-25.29 473.42,-18.31"/>
</g>
<!-- 2 -->
<g id="node3" class="node">
<title>2</title>
<path fill="none" stroke="#d86e56" stroke-width="2" d="M229.5,-468C229.5,-468 176.5,-468 176.5,-468 170.5,-468 164.5,-462 164.5,-456 164.5,-456 164.5,-444 164.5,-444 164.5,-438 170.5,-432 176.5,-432 176.5,-432 229.5,-432 229.5,-432 235.5,-432 241.5,-438 241.5,-444 241.5,-444 241.5,-456 241.5,-456 241.5,-462 235.5,-468 229.5,-468"/>
<text text-anchor="middle" x="203" y="-447.5" font-family="sans" font-size="10.00">bbmap_split</text>
</g>
<!-- 2&#45;&gt;1 -->
<g id="edge13" class="edge">
<title>2&#45;&gt;1</title>
<path fill="none" stroke="grey" stroke-width="2" d="M241.52,-447.26C351.27,-442.02 664.88,-425.1 785.18,-395.54"/>
<polygon fill="grey" stroke="grey" stroke-width="2" points="786.07,-398.93 794.86,-393.02 784.3,-392.16 786.07,-398.93"/>
</g>
<!-- 7 -->
<g id="node8" class="node">
<title>7</title>
<path fill="none" stroke="#56a2d8" stroke-width="2" d="M235,-396C235,-396 171,-396 171,-396 165,-396 159,-390 159,-384 159,-384 159,-372 159,-372 159,-366 165,-360 171,-360 171,-360 235,-360 235,-360 241,-360 247,-366 247,-372 247,-372 247,-384 247,-384 247,-390 241,-396 235,-396"/>
<text text-anchor="middle" x="203" y="-375.5" font-family="sans" font-size="10.00">kraken2_reads</text>
</g>
<!-- 2&#45;&gt;7 -->
<g id="edge21" class="edge">
<title>2&#45;&gt;7</title>
<path fill="none" stroke="grey" stroke-width="2" d="M203,-431.7C203,-423.98 203,-414.71 203,-406.11"/>
<polygon fill="grey" stroke="grey" stroke-width="2" points="206.5,-406.1 203,-396.1 199.5,-406.1 206.5,-406.1"/>
</g>
<!-- 14 -->
<g id="node15" class="node">
<title>14</title>
<path fill="none" stroke="#61d856" stroke-width="2" d="M65,-108C65,-108 35,-108 35,-108 29,-108 23,-102 23,-96 23,-96 23,-84 23,-84 23,-78 29,-72 35,-72 35,-72 65,-72 65,-72 71,-72 77,-78 77,-84 77,-84 77,-96 77,-96 77,-102 71,-108 65,-108"/>
<text text-anchor="middle" x="50" y="-87.5" font-family="sans" font-size="10.00">kmc3</text>
</g>
<!-- 2&#45;&gt;14 -->
<g id="edge33" class="edge">
<title>2&#45;&gt;14</title>
<path fill="none" stroke="grey" stroke-width="2" d="M164.34,-440.53C105.44,-425.08 0,-386.35 0,-307 0,-307 0,-307 0,-233 0,-190.68 20,-145.09 34.7,-117.3"/>
<polygon fill="grey" stroke="grey" stroke-width="2" points="37.93,-118.7 39.64,-108.24 31.78,-115.35 37.93,-118.7"/>
</g>
<!-- 18 -->
<g id="node19" class="node">
<title>18</title>
<path fill="none" stroke="#78d856" stroke-width="2" d="M566.5,-396C566.5,-396 513.5,-396 513.5,-396 507.5,-396 501.5,-390 501.5,-384 501.5,-384 501.5,-372 501.5,-372 501.5,-366 507.5,-360 513.5,-360 513.5,-360 566.5,-360 566.5,-360 572.5,-360 578.5,-366 578.5,-372 578.5,-372 578.5,-384 578.5,-384 578.5,-390 572.5,-396 566.5,-396"/>
<text text-anchor="middle" x="540" y="-375.5" font-family="sans" font-size="10.00">metaspades</text>
</g>
<!-- 2&#45;&gt;18 -->
<g id="edge38" class="edge">
<title>2&#45;&gt;18</title>
<path fill="none" stroke="grey" stroke-width="2" d="M241.66,-440.97C303.33,-428.16 423.87,-403.12 491.32,-389.11"/>
<polygon fill="grey" stroke="grey" stroke-width="2" points="492.2,-392.5 501.28,-387.04 490.77,-385.65 492.2,-392.5"/>
</g>
<!-- 21 -->
<g id="node22" class="node">
<title>21</title>
<path fill="none" stroke="#afd856" stroke-width="2" d="M170,-252C170,-252 136,-252 136,-252 130,-252 124,-246 124,-240 124,-240 124,-228 124,-228 124,-222 130,-216 136,-216 136,-216 170,-216 170,-216 176,-216 182,-222 182,-228 182,-228 182,-240 182,-240 182,-246 176,-252 170,-252"/>
<text text-anchor="middle" x="153" y="-231.5" font-family="sans" font-size="10.00">metabat</text>
</g>
<!-- 2&#45;&gt;21 -->
<g id="edge41" class="edge">
<title>2&#45;&gt;21</title>
<path fill="none" stroke="grey" stroke-width="2" d="M169.82,-431.99C134.34,-411.71 80.09,-374.17 57,-324 50.31,-309.47 48.87,-301.78 57,-288 69.36,-267.05 93.3,-253.81 114.17,-245.8"/>
<polygon fill="grey" stroke="grey" stroke-width="2" points="115.55,-249.03 123.81,-242.38 113.21,-242.43 115.55,-249.03"/>
</g>
<!-- 30 -->
<g id="node31" class="node">
<title>30</title>
<path fill="none" stroke="#d88556" stroke-width="2" d="M659,-396C659,-396 629,-396 629,-396 623,-396 617,-390 617,-384 617,-384 617,-372 617,-372 617,-366 623,-360 629,-360 629,-360 659,-360 659,-360 665,-360 671,-366 671,-372 671,-372 671,-384 671,-384 671,-390 665,-396 659,-396"/>
<text text-anchor="middle" x="644" y="-375.5" font-family="sans" font-size="10.00">coverm</text>
</g>
<!-- 2&#45;&gt;30 -->
<g id="edge58" class="edge">
<title>2&#45;&gt;30</title>
<path fill="none" stroke="grey" stroke-width="2" d="M241.61,-445.72C311.36,-439.35 462.78,-423.45 588,-396 594.25,-394.63 600.82,-392.9 607.17,-391.08"/>
<polygon fill="grey" stroke="grey" stroke-width="2" points="608.31,-394.39 616.88,-388.17 606.3,-387.69 608.31,-394.39"/>
</g>
<!-- 3 -->
<g id="node4" class="node">
<title>3</title>
<path fill="none" stroke="#568ad8" stroke-width="2" d="M163,-540C163,-540 95,-540 95,-540 89,-540 83,-534 83,-528 83,-528 83,-516 83,-516 83,-510 89,-504 95,-504 95,-504 163,-504 163,-504 169,-504 175,-510 175,-516 175,-516 175,-528 175,-528 175,-534 169,-540 163,-540"/>
<text text-anchor="middle" x="129" y="-525" font-family="sans" font-size="10.00">fastp</text>
<text text-anchor="middle" x="129" y="-514" font-family="sans" font-size="10.00">sample: I12281</text>
</g>
<!-- 3&#45;&gt;2 -->
<g id="edge15" class="edge">
<title>3&#45;&gt;2</title>
<path fill="none" stroke="grey" stroke-width="2" d="M147.29,-503.7C156.43,-495.05 167.64,-484.45 177.6,-475.03"/>
<polygon fill="grey" stroke="grey" stroke-width="2" points="180.06,-477.52 184.92,-468.1 175.25,-472.43 180.06,-477.52"/>
</g>
<!-- 6 -->
<g id="node7" class="node">
<title>6</title>
<path fill="none" stroke="#56d87b" stroke-width="2" d="M108,-324C108,-324 78,-324 78,-324 72,-324 66,-318 66,-312 66,-312 66,-300 66,-300 66,-294 72,-288 78,-288 78,-288 108,-288 108,-288 114,-288 120,-294 120,-300 120,-300 120,-312 120,-312 120,-318 114,-324 108,-324"/>
<text text-anchor="middle" x="93" y="-303.5" font-family="sans" font-size="10.00">multiqc</text>
</g>
<!-- 3&#45;&gt;6 -->
<g id="edge17" class="edge">
<title>3&#45;&gt;6</title>
<path fill="none" stroke="grey" stroke-width="2" d="M106.4,-503.96C95.94,-494.63 84.6,-482.11 79,-468 61.33,-423.53 73.42,-366.86 83.46,-333.98"/>
<polygon fill="grey" stroke="grey" stroke-width="2" points="86.88,-334.78 86.6,-324.18 80.21,-332.63 86.88,-334.78"/>
</g>
<!-- 4 -->
<g id="node5" class="node">
<title>4</title>
<path fill="none" stroke="#d86e56" stroke-width="2" d="M848.5,-468C848.5,-468 795.5,-468 795.5,-468 789.5,-468 783.5,-462 783.5,-456 783.5,-456 783.5,-444 783.5,-444 783.5,-438 789.5,-432 795.5,-432 795.5,-432 848.5,-432 848.5,-432 854.5,-432 860.5,-438 860.5,-444 860.5,-444 860.5,-456 860.5,-456 860.5,-462 854.5,-468 848.5,-468"/>
<text text-anchor="middle" x="822" y="-447.5" font-family="sans" font-size="10.00">bbmap_split</text>
</g>
<!-- 4&#45;&gt;1 -->
<g id="edge14" class="edge">
<title>4&#45;&gt;1</title>
<path fill="none" stroke="grey" stroke-width="2" d="M822,-431.7C822,-423.98 822,-414.71 822,-406.11"/>
<polygon fill="grey" stroke="grey" stroke-width="2" points="825.5,-406.1 822,-396.1 818.5,-406.1 825.5,-406.1"/>
</g>
<!-- 8 -->
<g id="node9" class="node">
<title>8</title>
<path fill="none" stroke="#56a2d8" stroke-width="2" d="M430,-396C430,-396 366,-396 366,-396 360,-396 354,-390 354,-384 354,-384 354,-372 354,-372 354,-366 360,-360 366,-360 366,-360 430,-360 430,-360 436,-360 442,-366 442,-372 442,-372 442,-384 442,-384 442,-390 436,-396 430,-396"/>
<text text-anchor="middle" x="398" y="-375.5" font-family="sans" font-size="10.00">kraken2_reads</text>
</g>
<!-- 4&#45;&gt;8 -->
<g id="edge22" class="edge">
<title>4&#45;&gt;8</title>
<path fill="none" stroke="grey" stroke-width="2" d="M783.35,-443.04C721.68,-433.49 597.25,-413.97 492,-396 479.23,-393.82 465.5,-391.39 452.59,-389.06"/>
<polygon fill="grey" stroke="grey" stroke-width="2" points="452.9,-385.56 442.44,-387.22 451.65,-392.45 452.9,-385.56"/>
</g>
<!-- 15 -->
<g id="node16" class="node">
<title>15</title>
<path fill="none" stroke="#61d856" stroke-width="2" d="M1045,-180C1045,-180 1015,-180 1015,-180 1009,-180 1003,-174 1003,-168 1003,-168 1003,-156 1003,-156 1003,-150 1009,-144 1015,-144 1015,-144 1045,-144 1045,-144 1051,-144 1057,-150 1057,-156 1057,-156 1057,-168 1057,-168 1057,-174 1051,-180 1045,-180"/>
<text text-anchor="middle" x="1030" y="-159.5" font-family="sans" font-size="10.00">kmc3</text>
</g>
<!-- 4&#45;&gt;15 -->
<g id="edge34" class="edge">
<title>4&#45;&gt;15</title>
<path fill="none" stroke="grey" stroke-width="2" d="M860.76,-441.92C889.93,-434.8 929.17,-421.13 955,-396 1012.91,-339.66 1026.17,-238.49 1029.16,-190.16"/>
<polygon fill="grey" stroke="grey" stroke-width="2" points="1032.66,-190.3 1029.68,-180.14 1025.67,-189.94 1032.66,-190.3"/>
</g>
<!-- 20 -->
<g id="node21" class="node">
<title>20</title>
<path fill="none" stroke="#78d856" stroke-width="2" d="M764.5,-396C764.5,-396 711.5,-396 711.5,-396 705.5,-396 699.5,-390 699.5,-384 699.5,-384 699.5,-372 699.5,-372 699.5,-366 705.5,-360 711.5,-360 711.5,-360 764.5,-360 764.5,-360 770.5,-360 776.5,-366 776.5,-372 776.5,-372 776.5,-384 776.5,-384 776.5,-390 770.5,-396 764.5,-396"/>
<text text-anchor="middle" x="738" y="-375.5" font-family="sans" font-size="10.00">metaspades</text>
</g>
<!-- 4&#45;&gt;20 -->
<g id="edge40" class="edge">
<title>4&#45;&gt;20</title>
<path fill="none" stroke="grey" stroke-width="2" d="M801.24,-431.7C790.76,-422.97 777.89,-412.24 766.5,-402.75"/>
<polygon fill="grey" stroke="grey" stroke-width="2" points="768.45,-399.82 758.53,-396.1 763.97,-405.19 768.45,-399.82"/>
</g>
<!-- 22 -->
<g id="node23" class="node">
<title>22</title>
<path fill="none" stroke="#afd856" stroke-width="2" d="M996,-252C996,-252 962,-252 962,-252 956,-252 950,-246 950,-240 950,-240 950,-228 950,-228 950,-222 956,-216 962,-216 962,-216 996,-216 996,-216 1002,-216 1008,-222 1008,-228 1008,-228 1008,-240 1008,-240 1008,-246 1002,-252 996,-252"/>
<text text-anchor="middle" x="979" y="-231.5" font-family="sans" font-size="10.00">metabat</text>
</g>
<!-- 4&#45;&gt;22 -->
<g id="edge43" class="edge">
<title>4&#45;&gt;22</title>
<path fill="none" stroke="grey" stroke-width="2" d="M860.63,-438.61C883.76,-430.53 912.07,-417.08 930,-396 962.8,-357.45 973.65,-297.34 977.23,-262.51"/>
<polygon fill="grey" stroke="grey" stroke-width="2" points="980.75,-262.42 978.16,-252.15 973.78,-261.79 980.75,-262.42"/>
</g>
<!-- 31 -->
<g id="node32" class="node">
<title>31</title>
<path fill="none" stroke="#d88556" stroke-width="2" d="M909,-396C909,-396 879,-396 879,-396 873,-396 867,-390 867,-384 867,-384 867,-372 867,-372 867,-366 873,-360 879,-360 879,-360 909,-360 909,-360 915,-360 921,-366 921,-372 921,-372 921,-384 921,-384 921,-390 915,-396 909,-396"/>
<text text-anchor="middle" x="894" y="-375.5" font-family="sans" font-size="10.00">coverm</text>
</g>
<!-- 4&#45;&gt;31 -->
<g id="edge59" class="edge">
<title>4&#45;&gt;31</title>
<path fill="none" stroke="grey" stroke-width="2" d="M839.8,-431.7C848.6,-423.14 859.38,-412.66 869,-403.3"/>
<polygon fill="grey" stroke="grey" stroke-width="2" points="871.68,-405.58 876.41,-396.1 866.8,-400.57 871.68,-405.58"/>
</g>
<!-- 5 -->
<g id="node6" class="node">
<title>5</title>
<path fill="none" stroke="#568ad8" stroke-width="2" d="M564,-540C564,-540 496,-540 496,-540 490,-540 484,-534 484,-528 484,-528 484,-516 484,-516 484,-510 490,-504 496,-504 496,-504 564,-504 564,-504 570,-504 576,-510 576,-516 576,-516 576,-528 576,-528 576,-534 570,-540 564,-540"/>
<text text-anchor="middle" x="530" y="-525" font-family="sans" font-size="10.00">fastp</text>
<text text-anchor="middle" x="530" y="-514" font-family="sans" font-size="10.00">sample: I12282</text>
</g>
<!-- 5&#45;&gt;4 -->
<g id="edge16" class="edge">
<title>5&#45;&gt;4</title>
<path fill="none" stroke="grey" stroke-width="2" d="M576.27,-509.91C630.16,-496.99 718.79,-475.74 773.59,-462.61"/>
<polygon fill="grey" stroke="grey" stroke-width="2" points="774.5,-465.99 783.41,-460.25 772.87,-459.18 774.5,-465.99"/>
</g>
<!-- 5&#45;&gt;6 -->
<g id="edge18" class="edge">
<title>5&#45;&gt;6</title>
<path fill="none" stroke="grey" stroke-width="2" d="M483.79,-520.17C395.02,-517.69 204.98,-507.75 155,-468 113.5,-435 99.75,-370.65 95.21,-334.09"/>
<polygon fill="grey" stroke="grey" stroke-width="2" points="98.69,-333.69 94.12,-324.13 91.73,-334.45 98.69,-333.69"/>
</g>
<!-- 6&#45;&gt;0 -->
<g id="edge2" class="edge">
<title>6&#45;&gt;0</title>
<path fill="none" stroke="grey" stroke-width="2" d="M120.37,-294.14C141.23,-284.98 169.86,-270.43 191,-252 265.79,-186.82 246.38,-135.02 323,-72 345.55,-53.45 375.67,-39.75 399.14,-30.92"/>
<polygon fill="grey" stroke="grey" stroke-width="2" points="400.54,-34.14 408.75,-27.44 398.16,-27.56 400.54,-34.14"/>
</g>
<!-- 7&#45;&gt;6 -->
<g id="edge19" class="edge">
<title>7&#45;&gt;6</title>
<path fill="none" stroke="grey" stroke-width="2" d="M176.09,-359.88C161.84,-350.81 144.15,-339.55 128.76,-329.76"/>
<polygon fill="grey" stroke="grey" stroke-width="2" points="130.33,-326.61 120.01,-324.19 126.57,-332.51 130.33,-326.61"/>
</g>
<!-- 9 -->
<g id="node10" class="node">
<title>9</title>
<path fill="none" stroke="#56d892" stroke-width="2" d="M344,-252C344,-252 288,-252 288,-252 282,-252 276,-246 276,-240 276,-240 276,-228 276,-228 276,-222 282,-216 288,-216 288,-216 344,-216 344,-216 350,-216 356,-222 356,-228 356,-228 356,-240 356,-240 356,-246 350,-252 344,-252"/>
<text text-anchor="middle" x="316" y="-231.5" font-family="sans" font-size="10.00">kraken_biom</text>
</g>
<!-- 7&#45;&gt;9 -->
<g id="edge25" class="edge">
<title>7&#45;&gt;9</title>
<path fill="none" stroke="grey" stroke-width="2" d="M186.58,-359.78C170.68,-340.95 151.14,-310.47 167,-288 178.77,-271.32 227.15,-256.13 265.63,-246.34"/>
<polygon fill="grey" stroke="grey" stroke-width="2" points="266.81,-249.65 275.67,-243.84 265.12,-242.85 266.81,-249.65"/>
</g>
<!-- 10 -->
<g id="node11" class="node">
<title>10</title>
<path fill="none" stroke="#56d8c9" stroke-width="2" d="M358,-324C358,-324 260,-324 260,-324 254,-324 248,-318 248,-312 248,-312 248,-300 248,-300 248,-294 254,-288 260,-288 260,-288 358,-288 358,-288 364,-288 370,-294 370,-300 370,-300 370,-312 370,-312 370,-318 364,-324 358,-324"/>
<text text-anchor="middle" x="309" y="-303.5" font-family="sans" font-size="10.00">bracken_abundancies</text>
</g>
<!-- 7&#45;&gt;10 -->
<g id="edge27" class="edge">
<title>7&#45;&gt;10</title>
<path fill="none" stroke="grey" stroke-width="2" d="M228.93,-359.88C242.66,-350.81 259.71,-339.55 274.54,-329.76"/>
<polygon fill="grey" stroke="grey" stroke-width="2" points="276.55,-332.62 282.97,-324.19 272.7,-326.78 276.55,-332.62"/>
</g>
<!-- 13 -->
<g id="node14" class="node">
<title>13</title>
<path fill="none" stroke="#56b9d8" stroke-width="2" d="M218,-324C218,-324 188,-324 188,-324 182,-324 176,-318 176,-312 176,-312 176,-300 176,-300 176,-294 182,-288 188,-288 188,-288 218,-288 218,-288 224,-288 230,-294 230,-300 230,-300 230,-312 230,-312 230,-318 224,-324 218,-324"/>
<text text-anchor="middle" x="203" y="-303.5" font-family="sans" font-size="10.00">krona</text>
</g>
<!-- 7&#45;&gt;13 -->
<g id="edge31" class="edge">
<title>7&#45;&gt;13</title>
<path fill="none" stroke="grey" stroke-width="2" d="M203,-359.7C203,-351.98 203,-342.71 203,-334.11"/>
<polygon fill="grey" stroke="grey" stroke-width="2" points="206.5,-334.1 203,-324.1 199.5,-334.1 206.5,-334.1"/>
</g>
<!-- 8&#45;&gt;6 -->
<g id="edge20" class="edge">
<title>8&#45;&gt;6</title>
<path fill="none" stroke="grey" stroke-width="2" d="M353.71,-366.84C307.21,-356.18 231.97,-338.92 167,-324 154.98,-321.24 141.85,-318.23 130.04,-315.51"/>
<polygon fill="grey" stroke="grey" stroke-width="2" points="130.59,-312.05 120.06,-313.22 129.03,-318.87 130.59,-312.05"/>
</g>
<!-- 8&#45;&gt;9 -->
<g id="edge26" class="edge">
<title>8&#45;&gt;9</title>
<path fill="none" stroke="grey" stroke-width="2" d="M397.59,-359.73C396.44,-340.86 392.42,-310.35 379,-288 372.21,-276.69 362.12,-266.64 352,-258.42"/>
<polygon fill="grey" stroke="grey" stroke-width="2" points="354,-255.54 343.94,-252.23 349.73,-261.1 354,-255.54"/>
</g>
<!-- 11 -->
<g id="node12" class="node">
<title>11</title>
<path fill="none" stroke="#56d8c9" stroke-width="2" d="M536,-324C536,-324 438,-324 438,-324 432,-324 426,-318 426,-312 426,-312 426,-300 426,-300 426,-294 432,-288 438,-288 438,-288 536,-288 536,-288 542,-288 548,-294 548,-300 548,-300 548,-312 548,-312 548,-318 542,-324 536,-324"/>
<text text-anchor="middle" x="487" y="-303.5" font-family="sans" font-size="10.00">bracken_abundancies</text>
</g>
<!-- 8&#45;&gt;11 -->
<g id="edge28" class="edge">
<title>8&#45;&gt;11</title>
<path fill="none" stroke="grey" stroke-width="2" d="M420,-359.7C431.21,-350.88 445,-340.03 457.15,-330.47"/>
<polygon fill="grey" stroke="grey" stroke-width="2" points="459.56,-333.04 465.25,-324.1 455.23,-327.54 459.56,-333.04"/>
</g>
<!-- 8&#45;&gt;13 -->
<g id="edge32" class="edge">
<title>8&#45;&gt;13</title>
<path fill="none" stroke="grey" stroke-width="2" d="M353.96,-363.88C323.9,-354.57 283.08,-341.24 239.67,-324.06"/>
<polygon fill="grey" stroke="grey" stroke-width="2" points="240.95,-320.81 230.37,-320.34 238.35,-327.3 240.95,-320.81"/>
</g>
<!-- 9&#45;&gt;0 -->
<g id="edge3" class="edge">
<title>9&#45;&gt;0</title>
<path fill="none" stroke="grey" stroke-width="2" d="M320.51,-215.91C329.13,-185.25 349.98,-119.63 382,-72 388.97,-61.63 398.22,-51.65 407.09,-43.2"/>
<polygon fill="grey" stroke="grey" stroke-width="2" points="409.72,-45.53 414.72,-36.19 404.98,-40.38 409.72,-45.53"/>
</g>
<!-- 10&#45;&gt;9 -->
<g id="edge23" class="edge">
<title>10&#45;&gt;9</title>
<path fill="none" stroke="grey" stroke-width="2" d="M310.73,-287.7C311.5,-279.98 312.43,-270.71 313.29,-262.11"/>
<polygon fill="grey" stroke="grey" stroke-width="2" points="316.78,-262.4 314.29,-252.1 309.81,-261.71 316.78,-262.4"/>
</g>
<!-- 12 -->
<g id="node13" class="node">
<title>12</title>
<path fill="none" stroke="#d85656" stroke-width="2" d="M469.5,-252C469.5,-252 386.5,-252 386.5,-252 380.5,-252 374.5,-246 374.5,-240 374.5,-240 374.5,-228 374.5,-228 374.5,-222 380.5,-216 386.5,-216 386.5,-216 469.5,-216 469.5,-216 475.5,-216 481.5,-222 481.5,-228 481.5,-228 481.5,-240 481.5,-240 481.5,-246 475.5,-252 469.5,-252"/>
<text text-anchor="middle" x="428" y="-231.5" font-family="sans" font-size="10.00">bracken_summary</text>
</g>
<!-- 10&#45;&gt;12 -->
<g id="edge29" class="edge">
<title>10&#45;&gt;12</title>
<path fill="none" stroke="grey" stroke-width="2" d="M338.11,-287.88C353.67,-278.72 373.02,-267.34 389.78,-257.48"/>
<polygon fill="grey" stroke="grey" stroke-width="2" points="391.93,-260.28 398.78,-252.19 388.38,-254.24 391.93,-260.28"/>
</g>
<!-- 11&#45;&gt;9 -->
<g id="edge24" class="edge">
<title>11&#45;&gt;9</title>
<path fill="none" stroke="grey" stroke-width="2" d="M445.17,-287.88C421.15,-278.04 390.84,-265.63 365.62,-255.31"/>
<polygon fill="grey" stroke="grey" stroke-width="2" points="366.8,-252.01 356.22,-251.47 364.15,-258.49 366.8,-252.01"/>
</g>
<!-- 11&#45;&gt;12 -->
<g id="edge30" class="edge">
<title>11&#45;&gt;12</title>
<path fill="none" stroke="grey" stroke-width="2" d="M472.42,-287.7C465.34,-279.3 456.72,-269.07 448.95,-259.86"/>
<polygon fill="grey" stroke="grey" stroke-width="2" points="451.54,-257.49 442.42,-252.1 446.19,-262.01 451.54,-257.49"/>
</g>
<!-- 12&#45;&gt;0 -->
<g id="edge4" class="edge">
<title>12&#45;&gt;0</title>
<path fill="none" stroke="grey" stroke-width="2" d="M402.62,-215.95C391.29,-206.79 379.12,-194.4 373,-180 366.74,-165.28 369.3,-159.57 373,-144 381.72,-107.31 403.02,-69.17 418.44,-44.82"/>
<polygon fill="grey" stroke="grey" stroke-width="2" points="421.53,-46.49 424.02,-36.2 415.65,-42.69 421.53,-46.49"/>
</g>
<!-- 13&#45;&gt;0 -->
<g id="edge5" class="edge">
<title>13&#45;&gt;0</title>
<path fill="none" stroke="grey" stroke-width="2" d="M211.41,-287.88C232.08,-247.01 288.77,-141.91 358,-72 370.4,-59.48 386.17,-48.11 400.27,-39.15"/>
<polygon fill="grey" stroke="grey" stroke-width="2" points="402.13,-42.12 408.8,-33.89 398.45,-36.16 402.13,-42.12"/>
</g>
<!-- 14&#45;&gt;0 -->
<g id="edge6" class="edge">
<title>14&#45;&gt;0</title>
<path fill="none" stroke="grey" stroke-width="2" d="M77.14,-84.08C144.83,-71.8 321.22,-39.82 398.64,-25.78"/>
<polygon fill="grey" stroke="grey" stroke-width="2" points="399.67,-29.15 408.89,-23.92 398.42,-22.26 399.67,-29.15"/>
</g>
<!-- 15&#45;&gt;0 -->
<g id="edge7" class="edge">
<title>15&#45;&gt;0</title>
<path fill="none" stroke="grey" stroke-width="2" d="M1025.44,-143.91C1018.9,-123.09 1004.72,-88.63 979,-72 936.67,-44.64 589.34,-26.14 473.46,-20.68"/>
<polygon fill="grey" stroke="grey" stroke-width="2" points="473.46,-17.17 463.31,-20.2 473.13,-24.17 473.46,-17.17"/>
</g>
<!-- 16 -->
<g id="node17" class="node">
<title>16</title>
<path fill="none" stroke="#56d863" stroke-width="2" d="M805.5,-252C805.5,-252 760.5,-252 760.5,-252 754.5,-252 748.5,-246 748.5,-240 748.5,-240 748.5,-228 748.5,-228 748.5,-222 754.5,-216 760.5,-216 760.5,-216 805.5,-216 805.5,-216 811.5,-216 817.5,-222 817.5,-228 817.5,-228 817.5,-240 817.5,-240 817.5,-246 811.5,-252 805.5,-252"/>
<text text-anchor="middle" x="783" y="-231.5" font-family="sans" font-size="10.00">metaquast</text>
</g>
<!-- 16&#45;&gt;0 -->
<g id="edge8" class="edge">
<title>16&#45;&gt;0</title>
<path fill="none" stroke="grey" stroke-width="2" d="M780.08,-215.76C773.38,-178.31 755.8,-91.34 734,-72 695.96,-38.25 545.08,-25.24 473.74,-20.9"/>
<polygon fill="grey" stroke="grey" stroke-width="2" points="473.6,-17.38 463.41,-20.3 473.19,-24.37 473.6,-17.38"/>
</g>
<!-- 17 -->
<g id="node18" class="node">
<title>17</title>
<path fill="none" stroke="#d8d356" stroke-width="2" d="M647.5,-324C647.5,-324 578.5,-324 578.5,-324 572.5,-324 566.5,-318 566.5,-312 566.5,-312 566.5,-300 566.5,-300 566.5,-294 572.5,-288 578.5,-288 578.5,-288 647.5,-288 647.5,-288 653.5,-288 659.5,-294 659.5,-300 659.5,-300 659.5,-312 659.5,-312 659.5,-318 653.5,-324 647.5,-324"/>
<text text-anchor="middle" x="613" y="-303.5" font-family="sans" font-size="10.00">bbmap_rename</text>
</g>
<!-- 17&#45;&gt;16 -->
<g id="edge35" class="edge">
<title>17&#45;&gt;16</title>
<path fill="none" stroke="grey" stroke-width="2" d="M654.59,-287.88C680.24,-277.31 713.1,-263.78 739.16,-253.05"/>
<polygon fill="grey" stroke="grey" stroke-width="2" points="740.51,-256.28 748.42,-249.24 737.84,-249.81 740.51,-256.28"/>
</g>
<!-- 17&#45;&gt;21 -->
<g id="edge42" class="edge">
<title>17&#45;&gt;21</title>
<path fill="none" stroke="grey" stroke-width="2" d="M566.4,-290.2C563.24,-289.4 560.08,-288.65 557,-288 429.95,-261.04 395.68,-269.58 267,-252 242.01,-248.59 213.99,-244.41 191.99,-241.06"/>
<polygon fill="grey" stroke="grey" stroke-width="2" points="192.44,-237.58 182.02,-239.53 191.38,-244.5 192.44,-237.58"/>
</g>
<!-- 24 -->
<g id="node25" class="node">
<title>24</title>
<path fill="none" stroke="#5673d8" stroke-width="2" d="M478,-180C478,-180 394,-180 394,-180 388,-180 382,-174 382,-168 382,-168 382,-156 382,-156 382,-150 388,-144 394,-144 394,-144 478,-144 478,-144 484,-144 490,-150 490,-156 490,-156 490,-168 490,-168 490,-174 484,-180 478,-180"/>
<text text-anchor="middle" x="436" y="-159.5" font-family="sans" font-size="10.00">kraken2_assembly</text>
</g>
<!-- 17&#45;&gt;24 -->
<g id="edge50" class="edge">
<title>17&#45;&gt;24</title>
<path fill="none" stroke="grey" stroke-width="2" d="M591.65,-287.87C560.15,-262.6 501.13,-215.25 465.52,-186.68"/>
<polygon fill="grey" stroke="grey" stroke-width="2" points="467.42,-183.72 457.43,-180.19 463.04,-189.18 467.42,-183.72"/>
</g>
<!-- 26 -->
<g id="node27" class="node">
<title>26</title>
<path fill="none" stroke="#c6d856" stroke-width="2" d="M606,-252C606,-252 574,-252 574,-252 568,-252 562,-246 562,-240 562,-240 562,-228 562,-228 562,-222 568,-216 574,-216 574,-216 606,-216 606,-216 612,-216 618,-222 618,-228 618,-228 618,-240 618,-240 618,-246 612,-252 606,-252"/>
<text text-anchor="middle" x="590" y="-231.5" font-family="sans" font-size="10.00">abricate</text>
</g>
<!-- 17&#45;&gt;26 -->
<g id="edge52" class="edge">
<title>17&#45;&gt;26</title>
<path fill="none" stroke="grey" stroke-width="2" d="M607.31,-287.7C604.75,-279.9 601.67,-270.51 598.82,-261.83"/>
<polygon fill="grey" stroke="grey" stroke-width="2" points="602.07,-260.51 595.62,-252.1 595.42,-262.7 602.07,-260.51"/>
</g>
<!-- 18&#45;&gt;17 -->
<g id="edge37" class="edge">
<title>18&#45;&gt;17</title>
<path fill="none" stroke="grey" stroke-width="2" d="M558.04,-359.7C567.06,-351.05 578.12,-340.45 587.94,-331.03"/>
<polygon fill="grey" stroke="grey" stroke-width="2" points="590.37,-333.55 595.16,-324.1 585.52,-328.5 590.37,-333.55"/>
</g>
<!-- 19 -->
<g id="node20" class="node">
<title>19</title>
<path fill="none" stroke="#d8d356" stroke-width="2" d="M881.5,-324C881.5,-324 812.5,-324 812.5,-324 806.5,-324 800.5,-318 800.5,-312 800.5,-312 800.5,-300 800.5,-300 800.5,-294 806.5,-288 812.5,-288 812.5,-288 881.5,-288 881.5,-288 887.5,-288 893.5,-294 893.5,-300 893.5,-300 893.5,-312 893.5,-312 893.5,-318 887.5,-324 881.5,-324"/>
<text text-anchor="middle" x="847" y="-303.5" font-family="sans" font-size="10.00">bbmap_rename</text>
</g>
<!-- 19&#45;&gt;16 -->
<g id="edge36" class="edge">
<title>19&#45;&gt;16</title>
<path fill="none" stroke="grey" stroke-width="2" d="M831.18,-287.7C823.43,-279.22 813.96,-268.86 805.48,-259.58"/>
<polygon fill="grey" stroke="grey" stroke-width="2" points="807.97,-257.12 798.64,-252.1 802.8,-261.85 807.97,-257.12"/>
</g>
<!-- 19&#45;&gt;22 -->
<g id="edge44" class="edge">
<title>19&#45;&gt;22</title>
<path fill="none" stroke="grey" stroke-width="2" d="M879.29,-287.88C897.87,-278.02 921.33,-265.59 940.82,-255.25"/>
<polygon fill="grey" stroke="grey" stroke-width="2" points="942.55,-258.29 949.74,-250.51 939.27,-252.11 942.55,-258.29"/>
</g>
<!-- 25 -->
<g id="node26" class="node">
<title>25</title>
<path fill="none" stroke="#5673d8" stroke-width="2" d="M882,-180C882,-180 798,-180 798,-180 792,-180 786,-174 786,-168 786,-168 786,-156 786,-156 786,-150 792,-144 798,-144 798,-144 882,-144 882,-144 888,-144 894,-150 894,-156 894,-156 894,-168 894,-168 894,-174 888,-180 882,-180"/>
<text text-anchor="middle" x="840" y="-159.5" font-family="sans" font-size="10.00">kraken2_assembly</text>
</g>
<!-- 19&#45;&gt;25 -->
<g id="edge51" class="edge">
<title>19&#45;&gt;25</title>
<path fill="none" stroke="grey" stroke-width="2" d="M846.16,-287.87C844.96,-263.67 842.77,-219.21 841.35,-190.39"/>
<polygon fill="grey" stroke="grey" stroke-width="2" points="844.84,-190 840.85,-180.19 837.84,-190.35 844.84,-190"/>
</g>
<!-- 27 -->
<g id="node28" class="node">
<title>27</title>
<path fill="none" stroke="#c6d856" stroke-width="2" d="M680,-252C680,-252 648,-252 648,-252 642,-252 636,-246 636,-240 636,-240 636,-228 636,-228 636,-222 642,-216 648,-216 648,-216 680,-216 680,-216 686,-216 692,-222 692,-228 692,-228 692,-240 692,-240 692,-246 686,-252 680,-252"/>
<text text-anchor="middle" x="664" y="-231.5" font-family="sans" font-size="10.00">abricate</text>
</g>
<!-- 19&#45;&gt;27 -->
<g id="edge53" class="edge">
<title>19&#45;&gt;27</title>
<path fill="none" stroke="grey" stroke-width="2" d="M802.23,-287.88C771.34,-276.06 730.72,-260.52 701.52,-249.35"/>
<polygon fill="grey" stroke="grey" stroke-width="2" points="702.68,-246.05 692.09,-245.74 700.18,-252.59 702.68,-246.05"/>
</g>
<!-- 20&#45;&gt;19 -->
<g id="edge39" class="edge">
<title>20&#45;&gt;19</title>
<path fill="none" stroke="grey" stroke-width="2" d="M764.66,-359.88C778.78,-350.81 796.31,-339.55 811.56,-329.76"/>
<polygon fill="grey" stroke="grey" stroke-width="2" points="813.71,-332.54 820.23,-324.19 809.93,-326.65 813.71,-332.54"/>
</g>
<!-- 21&#45;&gt;0 -->
<g id="edge9" class="edge">
<title>21&#45;&gt;0</title>
<path fill="none" stroke="grey" stroke-width="2" d="M152.21,-215.82C151.69,-182.89 155.56,-110.71 196,-72 224.71,-44.51 338.75,-28.96 398.71,-22.53"/>
<polygon fill="grey" stroke="grey" stroke-width="2" points="399.31,-25.99 408.9,-21.47 398.59,-19.03 399.31,-25.99"/>
</g>
<!-- 22&#45;&gt;0 -->
<g id="edge10" class="edge">
<title>22&#45;&gt;0</title>
<path fill="none" stroke="grey" stroke-width="2" d="M980.15,-215.92C981.37,-182.51 978.76,-108.58 936,-72 900.98,-42.03 583.38,-25.44 473.33,-20.55"/>
<polygon fill="grey" stroke="grey" stroke-width="2" points="473.19,-17.04 463.05,-20.1 472.89,-24.03 473.19,-17.04"/>
</g>
<!-- 23 -->
<g id="node24" class="node">
<title>23</title>
<path fill="none" stroke="#97d856" stroke-width="2" d="M599,-108C599,-108 519,-108 519,-108 513,-108 507,-102 507,-96 507,-96 507,-84 507,-84 507,-78 513,-72 519,-72 519,-72 599,-72 599,-72 605,-72 611,-78 611,-84 611,-84 611,-96 611,-96 611,-102 605,-108 599,-108"/>
<text text-anchor="middle" x="559" y="-87.5" font-family="sans" font-size="10.00">abricate_taxcaller</text>
</g>
<!-- 23&#45;&gt;0 -->
<g id="edge11" class="edge">
<title>23&#45;&gt;0</title>
<path fill="none" stroke="grey" stroke-width="2" d="M528.91,-71.88C511.83,-62.16 490.33,-49.92 472.32,-39.67"/>
<polygon fill="grey" stroke="grey" stroke-width="2" points="473.68,-36.42 463.26,-34.51 470.22,-42.5 473.68,-36.42"/>
</g>
<!-- 24&#45;&gt;23 -->
<g id="edge45" class="edge">
<title>24&#45;&gt;23</title>
<path fill="none" stroke="grey" stroke-width="2" d="M466.09,-143.88C482.32,-134.64 502.54,-123.13 519.97,-113.21"/>
<polygon fill="grey" stroke="grey" stroke-width="2" points="521.84,-116.18 528.8,-108.19 518.37,-110.09 521.84,-116.18"/>
</g>
<!-- 25&#45;&gt;23 -->
<g id="edge46" class="edge">
<title>25&#45;&gt;23</title>
<path fill="none" stroke="grey" stroke-width="2" d="M785.82,-147.5C738.67,-135.76 670.35,-118.74 621.02,-106.45"/>
<polygon fill="grey" stroke="grey" stroke-width="2" points="621.66,-103 611.11,-103.98 619.97,-109.8 621.66,-103"/>
</g>
<!-- 26&#45;&gt;23 -->
<g id="edge47" class="edge">
<title>26&#45;&gt;23</title>
<path fill="none" stroke="grey" stroke-width="2" d="M565.52,-215.77C554.6,-206.56 542.88,-194.19 537,-180 528.62,-159.78 535.6,-135.6 543.84,-117.55"/>
<polygon fill="grey" stroke="grey" stroke-width="2" points="547.16,-118.73 548.47,-108.21 540.89,-115.62 547.16,-118.73"/>
</g>
<!-- 28 -->
<g id="node29" class="node">
<title>28</title>
<path fill="none" stroke="#56d0d8" stroke-width="2" d="M642,-180C642,-180 558,-180 558,-180 552,-180 546,-174 546,-168 546,-168 546,-156 546,-156 546,-150 552,-144 558,-144 558,-144 642,-144 642,-144 648,-144 654,-150 654,-156 654,-156 654,-168 654,-168 654,-174 648,-180 642,-180"/>
<text text-anchor="middle" x="600" y="-159.5" font-family="sans" font-size="10.00">abricate_summary</text>
</g>
<!-- 26&#45;&gt;28 -->
<g id="edge54" class="edge">
<title>26&#45;&gt;28</title>
<path fill="none" stroke="grey" stroke-width="2" d="M592.47,-215.7C593.57,-207.98 594.9,-198.71 596.13,-190.11"/>
<polygon fill="grey" stroke="grey" stroke-width="2" points="599.61,-190.5 597.56,-180.1 592.68,-189.51 599.61,-190.5"/>
</g>
<!-- 27&#45;&gt;23 -->
<g id="edge48" class="edge">
<title>27&#45;&gt;23</title>
<path fill="none" stroke="grey" stroke-width="2" d="M668.73,-215.82C672.93,-196.75 676.52,-165.8 663,-144 653.22,-128.24 637.13,-116.97 620.5,-109"/>
<polygon fill="grey" stroke="grey" stroke-width="2" points="621.81,-105.75 611.25,-104.9 618.97,-112.15 621.81,-105.75"/>
</g>
<!-- 27&#45;&gt;28 -->
<g id="edge55" class="edge">
<title>27&#45;&gt;28</title>
<path fill="none" stroke="grey" stroke-width="2" d="M648.18,-215.7C640.43,-207.22 630.96,-196.86 622.48,-187.58"/>
<polygon fill="grey" stroke="grey" stroke-width="2" points="624.97,-185.12 615.64,-180.1 619.8,-189.85 624.97,-185.12"/>
</g>
<!-- 28&#45;&gt;23 -->
<g id="edge49" class="edge">
<title>28&#45;&gt;23</title>
<path fill="none" stroke="grey" stroke-width="2" d="M589.87,-143.7C585.15,-135.64 579.44,-125.89 574.22,-116.98"/>
<polygon fill="grey" stroke="grey" stroke-width="2" points="577.09,-114.96 569.02,-108.1 571.05,-118.5 577.09,-114.96"/>
</g>
<!-- 29 -->
<g id="node30" class="node">
<title>29</title>
<path fill="none" stroke="#56d8a9" stroke-width="2" d="M770.5,-324C770.5,-324 689.5,-324 689.5,-324 683.5,-324 677.5,-318 677.5,-312 677.5,-312 677.5,-300 677.5,-300 677.5,-294 683.5,-288 689.5,-288 689.5,-288 770.5,-288 770.5,-288 776.5,-288 782.5,-294 782.5,-300 782.5,-300 782.5,-312 782.5,-312 782.5,-318 776.5,-324 770.5,-324"/>
<text text-anchor="middle" x="730" y="-303.5" font-family="sans" font-size="10.00">coverm_summary</text>
</g>
<!-- 29&#45;&gt;0 -->
<g id="edge12" class="edge">
<title>29&#45;&gt;0</title>
<path fill="none" stroke="grey" stroke-width="2" d="M727.95,-287.86C721.57,-243.01 697.56,-122.17 620,-72 574.52,-42.58 512.39,-29.14 473.24,-23.26"/>
<polygon fill="grey" stroke="grey" stroke-width="2" points="473.71,-19.79 463.32,-21.85 472.73,-26.72 473.71,-19.79"/>
</g>
<!-- 30&#45;&gt;29 -->
<g id="edge56" class="edge">
<title>30&#45;&gt;29</title>
<path fill="none" stroke="grey" stroke-width="2" d="M665.26,-359.7C676.09,-350.88 689.42,-340.03 701.16,-330.47"/>
<polygon fill="grey" stroke="grey" stroke-width="2" points="703.44,-333.13 708.99,-324.1 699.02,-327.7 703.44,-333.13"/>
</g>
<!-- 31&#45;&gt;29 -->
<g id="edge57" class="edge">
<title>31&#45;&gt;29</title>
<path fill="none" stroke="grey" stroke-width="2" d="M866.94,-364.05C863.93,-362.66 860.91,-361.29 858,-360 833.16,-349 805.33,-337.39 781.97,-327.85"/>
<polygon fill="grey" stroke="grey" stroke-width="2" points="783.18,-324.56 772.6,-324.03 780.54,-331.05 783.18,-324.56"/>
</g>
</g>
</svg>
