<?xml version="1.0" encoding="UTF-8" standalone="no"?>
<!DOCTYPE svg PUBLIC "-//W3C//DTD SVG 1.1//EN"
 "http://www.w3.org/Graphics/SVG/1.1/DTD/svg11.dtd">
<!-- Generated by graphviz version 2.43.0 (0)
 -->
<!-- Title: snakemake_dag Pages: 1 -->
<svg width="1605pt" height="620pt"
 viewBox="0.00 0.00 1605.01 620.00" xmlns="http://www.w3.org/2000/svg" xmlns:xlink="http://www.w3.org/1999/xlink">
<g id="graph0" class="graph" transform="scale(1 1) rotate(0) translate(4 616)">
<title>snakemake_dag</title>
<polygon fill="white" stroke="transparent" points="-4,4 -4,-616 1601.01,-616 1601.01,4 -4,4"/>
<!-- 0 -->
<g id="node1" class="node">
<title>0</title>
<path fill="none" stroke="#d8d356" stroke-width="2" d="M754.01,-36C754.01,-36 724.01,-36 724.01,-36 718.01,-36 712.01,-30 712.01,-24 712.01,-24 712.01,-12 712.01,-12 712.01,-6 718.01,0 724.01,0 724.01,0 754.01,0 754.01,0 760.01,0 766.01,-6 766.01,-12 766.01,-12 766.01,-24 766.01,-24 766.01,-30 760.01,-36 754.01,-36"/>
<text text-anchor="middle" x="739.01" y="-15.5" font-family="sans" font-size="10.00">all</text>
</g>
<!-- 1 -->
<g id="node2" class="node">
<title>1</title>
<path fill="none" stroke="#afd856" stroke-width="2" d="M1153.01,-468C1153.01,-468 1123.01,-468 1123.01,-468 1117.01,-468 1111.01,-462 1111.01,-456 1111.01,-456 1111.01,-444 1111.01,-444 1111.01,-438 1117.01,-432 1123.01,-432 1123.01,-432 1153.01,-432 1153.01,-432 1159.01,-432 1165.01,-438 1165.01,-444 1165.01,-444 1165.01,-456 1165.01,-456 1165.01,-462 1159.01,-468 1153.01,-468"/>
<text text-anchor="middle" x="1138.01" y="-447.5" font-family="sans" font-size="10.00">seqfu</text>
</g>
<!-- 1&#45;&gt;0 -->
<g id="edge1" class="edge">
<title>1&#45;&gt;0</title>
<path fill="none" stroke="grey" stroke-width="2" d="M1145.34,-431.8C1161.15,-392.05 1194.56,-291.44 1163.01,-216 1099.06,-63.12 867.43,-28.79 776.25,-21.16"/>
<polygon fill="grey" stroke="grey" stroke-width="2" points="776.34,-17.65 766.1,-20.37 775.8,-24.63 776.34,-17.65"/>
</g>
<!-- 2 -->
<g id="node3" class="node">
<title>2</title>
<path fill="none" stroke="#5682d8" stroke-width="2" d="M527.51,-540C527.51,-540 474.51,-540 474.51,-540 468.51,-540 462.51,-534 462.51,-528 462.51,-528 462.51,-516 462.51,-516 462.51,-510 468.51,-504 474.51,-504 474.51,-504 527.51,-504 527.51,-504 533.51,-504 539.51,-510 539.51,-516 539.51,-516 539.51,-528 539.51,-528 539.51,-534 533.51,-540 527.51,-540"/>
<text text-anchor="middle" x="501.01" y="-519.5" font-family="sans" font-size="10.00">bbmap_split</text>
</g>
<!-- 2&#45;&gt;1 -->
<g id="edge19" class="edge">
<title>2&#45;&gt;1</title>
<path fill="none" stroke="grey" stroke-width="2" d="M539.8,-519.12C631.46,-514.28 868.46,-499.52 1064.01,-468 1076.09,-466.05 1089.13,-463.28 1100.86,-460.54"/>
<polygon fill="grey" stroke="grey" stroke-width="2" points="1101.86,-463.9 1110.77,-458.16 1100.23,-457.1 1101.86,-463.9"/>
</g>
<!-- 7 -->
<g id="node8" class="node">
<title>7</title>
<path fill="none" stroke="#56d86b" stroke-width="2" d="M421.01,-468C421.01,-468 357.01,-468 357.01,-468 351.01,-468 345.01,-462 345.01,-456 345.01,-456 345.01,-444 345.01,-444 345.01,-438 351.01,-432 357.01,-432 357.01,-432 421.01,-432 421.01,-432 427.01,-432 433.01,-438 433.01,-444 433.01,-444 433.01,-456 433.01,-456 433.01,-462 427.01,-468 421.01,-468"/>
<text text-anchor="middle" x="389.01" y="-447.5" font-family="sans" font-size="10.00">kraken2_reads</text>
</g>
<!-- 2&#45;&gt;7 -->
<g id="edge27" class="edge">
<title>2&#45;&gt;7</title>
<path fill="none" stroke="grey" stroke-width="2" d="M473.61,-503.88C459.1,-494.81 441.09,-483.55 425.42,-473.76"/>
<polygon fill="grey" stroke="grey" stroke-width="2" points="426.85,-470.52 416.51,-468.19 423.14,-476.46 426.85,-470.52"/>
</g>
<!-- 14 -->
<g id="node15" class="node">
<title>14</title>
<path fill="none" stroke="#56d8c9" stroke-width="2" d="M71.01,-180C71.01,-180 41.01,-180 41.01,-180 35.01,-180 29.01,-174 29.01,-168 29.01,-168 29.01,-156 29.01,-156 29.01,-150 35.01,-144 41.01,-144 41.01,-144 71.01,-144 71.01,-144 77.01,-144 83.01,-150 83.01,-156 83.01,-156 83.01,-168 83.01,-168 83.01,-174 77.01,-180 71.01,-180"/>
<text text-anchor="middle" x="56.01" y="-159.5" font-family="sans" font-size="10.00">kmc3</text>
</g>
<!-- 2&#45;&gt;14 -->
<g id="edge36" class="edge">
<title>2&#45;&gt;14</title>
<path fill="none" stroke="grey" stroke-width="2" d="M462.27,-521.19C372.09,-520.82 151.7,-515.01 98.01,-468 67.18,-441.01 74.01,-419.97 74.01,-379 74.01,-379 74.01,-379 74.01,-305 74.01,-264.9 66.86,-218.92 61.57,-190.42"/>
<polygon fill="grey" stroke="grey" stroke-width="2" points="64.97,-189.56 59.65,-180.4 58.09,-190.88 64.97,-189.56"/>
</g>
<!-- 16 -->
<g id="node17" class="node">
<title>16</title>
<path fill="none" stroke="#d85656" stroke-width="2" d="M128.01,-108C128.01,-108 96.01,-108 96.01,-108 90.01,-108 84.01,-102 84.01,-96 84.01,-96 84.01,-84 84.01,-84 84.01,-78 90.01,-72 96.01,-72 96.01,-72 128.01,-72 128.01,-72 134.01,-72 140.01,-78 140.01,-84 140.01,-84 140.01,-96 140.01,-96 140.01,-102 134.01,-108 128.01,-108"/>
<text text-anchor="middle" x="112.01" y="-87.5" font-family="sans" font-size="10.00">humann</text>
</g>
<!-- 2&#45;&gt;16 -->
<g id="edge38" class="edge">
<title>2&#45;&gt;16</title>
<path fill="none" stroke="grey" stroke-width="2" d="M462.19,-521.43C402.63,-520.54 286.62,-512.58 201.01,-468 151.39,-442.16 112.01,-434.94 112.01,-379 112.01,-379 112.01,-379 112.01,-233 112.01,-193 112.01,-146.65 112.01,-118.08"/>
<polygon fill="grey" stroke="grey" stroke-width="2" points="115.51,-118.05 112.01,-108.05 108.51,-118.05 115.51,-118.05"/>
</g>
<!-- 20 -->
<g id="node21" class="node">
<title>20</title>
<path fill="none" stroke="#bed856" stroke-width="2" d="M254.51,-468C254.51,-468 221.51,-468 221.51,-468 215.51,-468 209.51,-462 209.51,-456 209.51,-456 209.51,-444 209.51,-444 209.51,-438 215.51,-432 221.51,-432 221.51,-432 254.51,-432 254.51,-432 260.51,-432 266.51,-438 266.51,-444 266.51,-444 266.51,-456 266.51,-456 266.51,-462 260.51,-468 254.51,-468"/>
<text text-anchor="middle" x="238.01" y="-447.5" font-family="sans" font-size="10.00">megahit</text>
</g>
<!-- 2&#45;&gt;20 -->
<g id="edge42" class="edge">
<title>2&#45;&gt;20</title>
<path fill="none" stroke="grey" stroke-width="2" d="M462.48,-510.75C412.56,-497.46 326.04,-474.43 276.25,-461.18"/>
<polygon fill="grey" stroke="grey" stroke-width="2" points="277.07,-457.78 266.51,-458.59 275.27,-464.54 277.07,-457.78"/>
</g>
<!-- 27 -->
<g id="node28" class="node">
<title>27</title>
<path fill="none" stroke="#56b1d8" stroke-width="2" d="M555.01,-252C555.01,-252 521.01,-252 521.01,-252 515.01,-252 509.01,-246 509.01,-240 509.01,-240 509.01,-228 509.01,-228 509.01,-222 515.01,-216 521.01,-216 521.01,-216 555.01,-216 555.01,-216 561.01,-216 567.01,-222 567.01,-228 567.01,-228 567.01,-240 567.01,-240 567.01,-246 561.01,-252 555.01,-252"/>
<text text-anchor="middle" x="538.01" y="-231.5" font-family="sans" font-size="10.00">metabat</text>
</g>
<!-- 2&#45;&gt;27 -->
<g id="edge51" class="edge">
<title>2&#45;&gt;27</title>
<path fill="none" stroke="grey" stroke-width="2" d="M537.14,-503.93C551.95,-495.17 567.95,-483.14 578.01,-468 596.1,-440.78 589.66,-428.51 593.01,-396 594.65,-380.08 600.16,-374.31 593.01,-360 581.08,-336.15 557.86,-347.37 545.01,-324 534.71,-305.27 533.47,-280.89 534.53,-262.38"/>
<polygon fill="grey" stroke="grey" stroke-width="2" points="538.03,-262.5 535.36,-252.25 531.05,-261.93 538.03,-262.5"/>
</g>
<!-- 30 -->
<g id="node31" class="node">
<title>30</title>
<path fill="none" stroke="#56d88a" stroke-width="2" d="M848.51,-252C848.51,-252 747.51,-252 747.51,-252 741.51,-252 735.51,-246 735.51,-240 735.51,-240 735.51,-228 735.51,-228 735.51,-222 741.51,-216 747.51,-216 747.51,-216 848.51,-216 848.51,-216 854.51,-216 860.51,-222 860.51,-228 860.51,-228 860.51,-240 860.51,-240 860.51,-246 854.51,-252 848.51,-252"/>
<text text-anchor="middle" x="798.01" y="-231.5" font-family="sans" font-size="10.00">co_assembly_bowtie2</text>
</g>
<!-- 2&#45;&gt;30 -->
<g id="edge58" class="edge">
<title>2&#45;&gt;30</title>
<path fill="none" stroke="grey" stroke-width="2" d="M539.61,-517.8C628.45,-507.98 844.19,-469.42 902.01,-324 907.92,-309.13 910.37,-301.64 902.01,-288 893.76,-274.53 880.89,-264.36 866.99,-256.71"/>
<polygon fill="grey" stroke="grey" stroke-width="2" points="868.24,-253.42 857.74,-252.04 865.09,-259.67 868.24,-253.42"/>
</g>
<!-- 33 -->
<g id="node34" class="node">
<title>33</title>
<path fill="none" stroke="#61d856" stroke-width="2" d="M1043.01,-468C1043.01,-468 941.01,-468 941.01,-468 935.01,-468 929.01,-462 929.01,-456 929.01,-456 929.01,-444 929.01,-444 929.01,-438 935.01,-432 941.01,-432 941.01,-432 1043.01,-432 1043.01,-432 1049.01,-432 1055.01,-438 1055.01,-444 1055.01,-444 1055.01,-456 1055.01,-456 1055.01,-462 1049.01,-468 1043.01,-468"/>
<text text-anchor="middle" x="992.01" y="-447.5" font-family="sans" font-size="10.00">co_assembly_megahit</text>
</g>
<!-- 2&#45;&gt;33 -->
<g id="edge62" class="edge">
<title>2&#45;&gt;33</title>
<path fill="none" stroke="grey" stroke-width="2" d="M539.71,-517.22C613.17,-509.79 777.76,-491.89 915.01,-468 916.26,-467.78 917.52,-467.56 918.79,-467.33"/>
<polygon fill="grey" stroke="grey" stroke-width="2" points="919.47,-470.76 928.65,-465.46 918.17,-463.88 919.47,-470.76"/>
</g>
<!-- 43 -->
<g id="node44" class="node">
<title>43</title>
<path fill="none" stroke="#56c1d8" stroke-width="2" d="M1289.01,-468C1289.01,-468 1259.01,-468 1259.01,-468 1253.01,-468 1247.01,-462 1247.01,-456 1247.01,-456 1247.01,-444 1247.01,-444 1247.01,-438 1253.01,-432 1259.01,-432 1259.01,-432 1289.01,-432 1289.01,-432 1295.01,-432 1301.01,-438 1301.01,-444 1301.01,-444 1301.01,-456 1301.01,-456 1301.01,-462 1295.01,-468 1289.01,-468"/>
<text text-anchor="middle" x="1274.01" y="-447.5" font-family="sans" font-size="10.00">coverm</text>
</g>
<!-- 2&#45;&gt;43 -->
<g id="edge80" class="edge">
<title>2&#45;&gt;43</title>
<path fill="none" stroke="grey" stroke-width="2" d="M539.82,-519.17C643.23,-514.01 933.83,-497.81 1174.01,-468 1194.95,-465.4 1218.19,-461.51 1236.99,-458.11"/>
<polygon fill="grey" stroke="grey" stroke-width="2" points="1237.74,-461.53 1246.94,-456.28 1236.47,-454.65 1237.74,-461.53"/>
</g>
<!-- 3 -->
<g id="node4" class="node">
<title>3</title>
<path fill="none" stroke="#d8c356" stroke-width="2" d="M340.51,-612C340.51,-612 269.51,-612 269.51,-612 263.51,-612 257.51,-606 257.51,-600 257.51,-600 257.51,-588 257.51,-588 257.51,-582 263.51,-576 269.51,-576 269.51,-576 340.51,-576 340.51,-576 346.51,-576 352.51,-582 352.51,-588 352.51,-588 352.51,-600 352.51,-600 352.51,-606 346.51,-612 340.51,-612"/>
<text text-anchor="middle" x="305.01" y="-597" font-family="sans" font-size="10.00">fastp</text>
<text text-anchor="middle" x="305.01" y="-586" font-family="sans" font-size="10.00">sample: 221129</text>
</g>
<!-- 3&#45;&gt;2 -->
<g id="edge21" class="edge">
<title>3&#45;&gt;2</title>
<path fill="none" stroke="grey" stroke-width="2" d="M352.7,-575.97C383.07,-565.12 422.28,-551.12 452.76,-540.23"/>
<polygon fill="grey" stroke="grey" stroke-width="2" points="454.08,-543.48 462.32,-536.82 451.73,-536.88 454.08,-543.48"/>
</g>
<!-- 6 -->
<g id="node7" class="node">
<title>6</title>
<path fill="none" stroke="#56d8b9" stroke-width="2" d="M182.01,-396C182.01,-396 152.01,-396 152.01,-396 146.01,-396 140.01,-390 140.01,-384 140.01,-384 140.01,-372 140.01,-372 140.01,-366 146.01,-360 152.01,-360 152.01,-360 182.01,-360 182.01,-360 188.01,-360 194.01,-366 194.01,-372 194.01,-372 194.01,-384 194.01,-384 194.01,-390 188.01,-396 182.01,-396"/>
<text text-anchor="middle" x="167.01" y="-375.5" font-family="sans" font-size="10.00">multiqc</text>
</g>
<!-- 3&#45;&gt;6 -->
<g id="edge23" class="edge">
<title>3&#45;&gt;6</title>
<path fill="none" stroke="grey" stroke-width="2" d="M257.41,-591.18C184.73,-587.28 51.38,-575.38 22.01,-540 -8.65,-503.07 -5.5,-471.34 22.01,-432 46.16,-397.46 95.34,-385.36 129.7,-381.16"/>
<polygon fill="grey" stroke="grey" stroke-width="2" points="130.26,-384.62 139.84,-380.09 129.53,-377.66 130.26,-384.62"/>
</g>
<!-- 4 -->
<g id="node5" class="node">
<title>4</title>
<path fill="none" stroke="#5682d8" stroke-width="2" d="M1177.51,-540C1177.51,-540 1124.51,-540 1124.51,-540 1118.51,-540 1112.51,-534 1112.51,-528 1112.51,-528 1112.51,-516 1112.51,-516 1112.51,-510 1118.51,-504 1124.51,-504 1124.51,-504 1177.51,-504 1177.51,-504 1183.51,-504 1189.51,-510 1189.51,-516 1189.51,-516 1189.51,-528 1189.51,-528 1189.51,-534 1183.51,-540 1177.51,-540"/>
<text text-anchor="middle" x="1151.01" y="-519.5" font-family="sans" font-size="10.00">bbmap_split</text>
</g>
<!-- 4&#45;&gt;1 -->
<g id="edge20" class="edge">
<title>4&#45;&gt;1</title>
<path fill="none" stroke="grey" stroke-width="2" d="M1147.79,-503.7C1146.36,-495.98 1144.64,-486.71 1143.04,-478.11"/>
<polygon fill="grey" stroke="grey" stroke-width="2" points="1146.45,-477.3 1141.18,-468.1 1139.57,-478.58 1146.45,-477.3"/>
</g>
<!-- 8 -->
<g id="node9" class="node">
<title>8</title>
<path fill="none" stroke="#56d86b" stroke-width="2" d="M557.01,-468C557.01,-468 493.01,-468 493.01,-468 487.01,-468 481.01,-462 481.01,-456 481.01,-456 481.01,-444 481.01,-444 481.01,-438 487.01,-432 493.01,-432 493.01,-432 557.01,-432 557.01,-432 563.01,-432 569.01,-438 569.01,-444 569.01,-444 569.01,-456 569.01,-456 569.01,-462 563.01,-468 557.01,-468"/>
<text text-anchor="middle" x="525.01" y="-447.5" font-family="sans" font-size="10.00">kraken2_reads</text>
</g>
<!-- 4&#45;&gt;8 -->
<g id="edge28" class="edge">
<title>4&#45;&gt;8</title>
<path fill="none" stroke="grey" stroke-width="2" d="M1112.32,-516.67C1004.98,-504.67 703.2,-470.93 579.22,-457.06"/>
<polygon fill="grey" stroke="grey" stroke-width="2" points="579.52,-453.57 569.19,-455.94 578.74,-460.53 579.52,-453.57"/>
</g>
<!-- 15 -->
<g id="node16" class="node">
<title>15</title>
<path fill="none" stroke="#56d8c9" stroke-width="2" d="M1509.01,-108C1509.01,-108 1479.01,-108 1479.01,-108 1473.01,-108 1467.01,-102 1467.01,-96 1467.01,-96 1467.01,-84 1467.01,-84 1467.01,-78 1473.01,-72 1479.01,-72 1479.01,-72 1509.01,-72 1509.01,-72 1515.01,-72 1521.01,-78 1521.01,-84 1521.01,-84 1521.01,-96 1521.01,-96 1521.01,-102 1515.01,-108 1509.01,-108"/>
<text text-anchor="middle" x="1494.01" y="-87.5" font-family="sans" font-size="10.00">kmc3</text>
</g>
<!-- 4&#45;&gt;15 -->
<g id="edge37" class="edge">
<title>4&#45;&gt;15</title>
<path fill="none" stroke="grey" stroke-width="2" d="M1189.98,-516.74C1249.68,-509.5 1360.03,-493.1 1390.01,-468 1496.99,-378.42 1499.23,-189.72 1495.95,-118.76"/>
<polygon fill="grey" stroke="grey" stroke-width="2" points="1499.43,-118.21 1495.39,-108.42 1492.44,-118.59 1499.43,-118.21"/>
</g>
<!-- 17 -->
<g id="node18" class="node">
<title>17</title>
<path fill="none" stroke="#d85656" stroke-width="2" d="M1585.01,-108C1585.01,-108 1553.01,-108 1553.01,-108 1547.01,-108 1541.01,-102 1541.01,-96 1541.01,-96 1541.01,-84 1541.01,-84 1541.01,-78 1547.01,-72 1553.01,-72 1553.01,-72 1585.01,-72 1585.01,-72 1591.01,-72 1597.01,-78 1597.01,-84 1597.01,-84 1597.01,-96 1597.01,-96 1597.01,-102 1591.01,-108 1585.01,-108"/>
<text text-anchor="middle" x="1569.01" y="-87.5" font-family="sans" font-size="10.00">humann</text>
</g>
<!-- 4&#45;&gt;17 -->
<g id="edge39" class="edge">
<title>4&#45;&gt;17</title>
<path fill="none" stroke="grey" stroke-width="2" d="M1189.83,-517.38C1279.2,-508.76 1493.89,-486.4 1521.01,-468 1558.73,-442.4 1572.01,-424.59 1572.01,-379 1572.01,-379 1572.01,-379 1572.01,-233 1572.01,-192.99 1570.8,-146.65 1569.92,-118.08"/>
<polygon fill="grey" stroke="grey" stroke-width="2" points="1573.42,-117.93 1569.6,-108.05 1566.42,-118.15 1573.42,-117.93"/>
</g>
<!-- 23 -->
<g id="node24" class="node">
<title>23</title>
<path fill="none" stroke="#bed856" stroke-width="2" d="M1368.51,-468C1368.51,-468 1335.51,-468 1335.51,-468 1329.51,-468 1323.51,-462 1323.51,-456 1323.51,-456 1323.51,-444 1323.51,-444 1323.51,-438 1329.51,-432 1335.51,-432 1335.51,-432 1368.51,-432 1368.51,-432 1374.51,-432 1380.51,-438 1380.51,-444 1380.51,-444 1380.51,-456 1380.51,-456 1380.51,-462 1374.51,-468 1368.51,-468"/>
<text text-anchor="middle" x="1352.01" y="-447.5" font-family="sans" font-size="10.00">megahit</text>
</g>
<!-- 4&#45;&gt;23 -->
<g id="edge45" class="edge">
<title>4&#45;&gt;23</title>
<path fill="none" stroke="grey" stroke-width="2" d="M1189.8,-508.82C1222.14,-498.49 1269.33,-483 1310.01,-468 1311.21,-467.56 1312.43,-467.1 1313.66,-466.63"/>
<polygon fill="grey" stroke="grey" stroke-width="2" points="1315.12,-469.82 1323.18,-462.95 1312.59,-463.3 1315.12,-469.82"/>
</g>
<!-- 28 -->
<g id="node29" class="node">
<title>28</title>
<path fill="none" stroke="#56b1d8" stroke-width="2" d="M1068.01,-252C1068.01,-252 1034.01,-252 1034.01,-252 1028.01,-252 1022.01,-246 1022.01,-240 1022.01,-240 1022.01,-228 1022.01,-228 1022.01,-222 1028.01,-216 1034.01,-216 1034.01,-216 1068.01,-216 1068.01,-216 1074.01,-216 1080.01,-222 1080.01,-228 1080.01,-228 1080.01,-240 1080.01,-240 1080.01,-246 1074.01,-252 1068.01,-252"/>
<text text-anchor="middle" x="1051.01" y="-231.5" font-family="sans" font-size="10.00">metabat</text>
</g>
<!-- 4&#45;&gt;28 -->
<g id="edge53" class="edge">
<title>4&#45;&gt;28</title>
<path fill="none" stroke="grey" stroke-width="2" d="M1160.55,-503.93C1165.65,-493.82 1171.4,-480.57 1174.01,-468 1177.26,-452.33 1177.9,-447.52 1174.01,-432 1156.68,-362.84 1104.61,-295.23 1074.05,-260.03"/>
<polygon fill="grey" stroke="grey" stroke-width="2" points="1076.39,-257.39 1067.15,-252.2 1071.14,-262.02 1076.39,-257.39"/>
</g>
<!-- 4&#45;&gt;33 -->
<g id="edge63" class="edge">
<title>4&#45;&gt;33</title>
<path fill="none" stroke="grey" stroke-width="2" d="M1112.11,-503.88C1090.38,-494.31 1063.1,-482.3 1040.04,-472.15"/>
<polygon fill="grey" stroke="grey" stroke-width="2" points="1041.34,-468.89 1030.78,-468.07 1038.52,-475.3 1041.34,-468.89"/>
</g>
<!-- 34 -->
<g id="node35" class="node">
<title>34</title>
<path fill="none" stroke="#56d88a" stroke-width="2" d="M991.51,-252C991.51,-252 890.51,-252 890.51,-252 884.51,-252 878.51,-246 878.51,-240 878.51,-240 878.51,-228 878.51,-228 878.51,-222 884.51,-216 890.51,-216 890.51,-216 991.51,-216 991.51,-216 997.51,-216 1003.51,-222 1003.51,-228 1003.51,-228 1003.51,-240 1003.51,-240 1003.51,-246 997.51,-252 991.51,-252"/>
<text text-anchor="middle" x="941.01" y="-231.5" font-family="sans" font-size="10.00">co_assembly_bowtie2</text>
</g>
<!-- 4&#45;&gt;34 -->
<g id="edge64" class="edge">
<title>4&#45;&gt;34</title>
<path fill="none" stroke="grey" stroke-width="2" d="M1134.03,-503.89C1124.29,-493.77 1112.04,-480.52 1102.01,-468 1044.46,-396.17 984.99,-304.81 957.18,-260.89"/>
<polygon fill="grey" stroke="grey" stroke-width="2" points="960.03,-258.85 951.74,-252.26 954.11,-262.58 960.03,-258.85"/>
</g>
<!-- 45 -->
<g id="node46" class="node">
<title>45</title>
<path fill="none" stroke="#56c1d8" stroke-width="2" d="M1500.01,-468C1500.01,-468 1470.01,-468 1470.01,-468 1464.01,-468 1458.01,-462 1458.01,-456 1458.01,-456 1458.01,-444 1458.01,-444 1458.01,-438 1464.01,-432 1470.01,-432 1470.01,-432 1500.01,-432 1500.01,-432 1506.01,-432 1512.01,-438 1512.01,-444 1512.01,-444 1512.01,-456 1512.01,-456 1512.01,-462 1506.01,-468 1500.01,-468"/>
<text text-anchor="middle" x="1485.01" y="-447.5" font-family="sans" font-size="10.00">coverm</text>
</g>
<!-- 4&#45;&gt;45 -->
<g id="edge82" class="edge">
<title>4&#45;&gt;45</title>
<path fill="none" stroke="grey" stroke-width="2" d="M1189.54,-516.7C1246.15,-509.79 1354.74,-494.25 1444.01,-468 1445.44,-467.58 1446.89,-467.12 1448.35,-466.64"/>
<polygon fill="grey" stroke="grey" stroke-width="2" points="1449.74,-469.86 1457.95,-463.17 1447.36,-463.28 1449.74,-469.86"/>
</g>
<!-- 5 -->
<g id="node6" class="node">
<title>5</title>
<path fill="none" stroke="#d8c356" stroke-width="2" d="M799.51,-612C799.51,-612 728.51,-612 728.51,-612 722.51,-612 716.51,-606 716.51,-600 716.51,-600 716.51,-588 716.51,-588 716.51,-582 722.51,-576 728.51,-576 728.51,-576 799.51,-576 799.51,-576 805.51,-576 811.51,-582 811.51,-588 811.51,-588 811.51,-600 811.51,-600 811.51,-606 805.51,-612 799.51,-612"/>
<text text-anchor="middle" x="764.01" y="-597" font-family="sans" font-size="10.00">fastp</text>
<text text-anchor="middle" x="764.01" y="-586" font-family="sans" font-size="10.00">sample: 221130</text>
</g>
<!-- 5&#45;&gt;4 -->
<g id="edge22" class="edge">
<title>5&#45;&gt;4</title>
<path fill="none" stroke="grey" stroke-width="2" d="M811.85,-584.35C885.92,-570.95 1027.58,-545.32 1102.22,-531.82"/>
<polygon fill="grey" stroke="grey" stroke-width="2" points="1103.08,-535.23 1112.3,-530 1101.83,-528.34 1103.08,-535.23"/>
</g>
<!-- 5&#45;&gt;6 -->
<g id="edge24" class="edge">
<title>5&#45;&gt;6</title>
<path fill="none" stroke="grey" stroke-width="2" d="M716.23,-588.48C594.5,-576.06 276.96,-537.57 201.01,-468 183.54,-452 174.97,-426.03 170.82,-406.27"/>
<polygon fill="grey" stroke="grey" stroke-width="2" points="174.23,-405.51 168.98,-396.31 167.35,-406.78 174.23,-405.51"/>
</g>
<!-- 6&#45;&gt;0 -->
<g id="edge2" class="edge">
<title>6&#45;&gt;0</title>
<path fill="none" stroke="grey" stroke-width="2" d="M161.8,-359.82C147.26,-308.04 112.29,-152.14 191.01,-72 226.73,-35.63 583.49,-23.07 701.4,-19.9"/>
<polygon fill="grey" stroke="grey" stroke-width="2" points="701.83,-23.39 711.73,-19.62 701.64,-16.39 701.83,-23.39"/>
</g>
<!-- 7&#45;&gt;6 -->
<g id="edge25" class="edge">
<title>7&#45;&gt;6</title>
<path fill="none" stroke="grey" stroke-width="2" d="M344.88,-435.09C303.68,-422.09 242.87,-402.92 204.1,-390.7"/>
<polygon fill="grey" stroke="grey" stroke-width="2" points="204.85,-387.26 194.26,-387.59 202.75,-393.94 204.85,-387.26"/>
</g>
<!-- 11 -->
<g id="node12" class="node">
<title>11</title>
<path fill="none" stroke="#56d85b" stroke-width="2" d="M360.01,-396C360.01,-396 262.01,-396 262.01,-396 256.01,-396 250.01,-390 250.01,-384 250.01,-384 250.01,-372 250.01,-372 250.01,-366 256.01,-360 262.01,-360 262.01,-360 360.01,-360 360.01,-360 366.01,-360 372.01,-366 372.01,-372 372.01,-372 372.01,-384 372.01,-384 372.01,-390 366.01,-396 360.01,-396"/>
<text text-anchor="middle" x="311.01" y="-375.5" font-family="sans" font-size="10.00">bracken_abundancies</text>
</g>
<!-- 7&#45;&gt;11 -->
<g id="edge32" class="edge">
<title>7&#45;&gt;11</title>
<path fill="none" stroke="grey" stroke-width="2" d="M369.73,-431.7C360.09,-423.05 348.28,-412.45 337.78,-403.03"/>
<polygon fill="grey" stroke="grey" stroke-width="2" points="339.85,-400.18 330.07,-396.1 335.17,-405.39 339.85,-400.18"/>
</g>
<!-- 13 -->
<g id="node14" class="node">
<title>13</title>
<path fill="none" stroke="#d8b456" stroke-width="2" d="M572.01,-396C572.01,-396 542.01,-396 542.01,-396 536.01,-396 530.01,-390 530.01,-384 530.01,-384 530.01,-372 530.01,-372 530.01,-366 536.01,-360 542.01,-360 542.01,-360 572.01,-360 572.01,-360 578.01,-360 584.01,-366 584.01,-372 584.01,-372 584.01,-384 584.01,-384 584.01,-390 578.01,-396 572.01,-396"/>
<text text-anchor="middle" x="557.01" y="-375.5" font-family="sans" font-size="10.00">krona</text>
</g>
<!-- 7&#45;&gt;13 -->
<g id="edge34" class="edge">
<title>7&#45;&gt;13</title>
<path fill="none" stroke="grey" stroke-width="2" d="M433.28,-431.98C456.92,-422.72 486.67,-410.8 520.73,-396.01"/>
<polygon fill="grey" stroke="grey" stroke-width="2" points="522.2,-399.19 529.96,-391.98 519.4,-392.78 522.2,-399.19"/>
</g>
<!-- 8&#45;&gt;6 -->
<g id="edge26" class="edge">
<title>8&#45;&gt;6</title>
<path fill="none" stroke="grey" stroke-width="2" d="M480.68,-439.71C468.19,-437.15 454.58,-434.41 442.01,-432 352.88,-414.89 329.93,-414.17 241.01,-396 229.02,-393.55 216,-390.64 204.27,-387.93"/>
<polygon fill="grey" stroke="grey" stroke-width="2" points="204.88,-384.48 194.35,-385.62 203.29,-391.3 204.88,-384.48"/>
</g>
<!-- 12 -->
<g id="node13" class="node">
<title>12</title>
<path fill="none" stroke="#56d85b" stroke-width="2" d="M500.01,-396C500.01,-396 402.01,-396 402.01,-396 396.01,-396 390.01,-390 390.01,-384 390.01,-384 390.01,-372 390.01,-372 390.01,-366 396.01,-360 402.01,-360 402.01,-360 500.01,-360 500.01,-360 506.01,-360 512.01,-366 512.01,-372 512.01,-372 512.01,-384 512.01,-384 512.01,-390 506.01,-396 500.01,-396"/>
<text text-anchor="middle" x="451.01" y="-375.5" font-family="sans" font-size="10.00">bracken_abundancies</text>
</g>
<!-- 8&#45;&gt;12 -->
<g id="edge33" class="edge">
<title>8&#45;&gt;12</title>
<path fill="none" stroke="grey" stroke-width="2" d="M506.72,-431.7C497.58,-423.05 486.37,-412.45 476.41,-403.03"/>
<polygon fill="grey" stroke="grey" stroke-width="2" points="478.76,-400.43 469.09,-396.1 473.95,-405.52 478.76,-400.43"/>
</g>
<!-- 8&#45;&gt;13 -->
<g id="edge35" class="edge">
<title>8&#45;&gt;13</title>
<path fill="none" stroke="grey" stroke-width="2" d="M532.92,-431.7C536.56,-423.73 540.96,-414.1 545,-405.26"/>
<polygon fill="grey" stroke="grey" stroke-width="2" points="548.21,-406.65 549.19,-396.1 541.85,-403.74 548.21,-406.65"/>
</g>
<!-- 9 -->
<g id="node10" class="node">
<title>9</title>
<path fill="none" stroke="#8fd856" stroke-width="2" d="M450.51,-180C450.51,-180 361.51,-180 361.51,-180 355.51,-180 349.51,-174 349.51,-168 349.51,-168 349.51,-156 349.51,-156 349.51,-150 355.51,-144 361.51,-144 361.51,-144 450.51,-144 450.51,-144 456.51,-144 462.51,-150 462.51,-156 462.51,-156 462.51,-168 462.51,-168 462.51,-174 456.51,-180 450.51,-180"/>
<text text-anchor="middle" x="406.01" y="-159.5" font-family="sans" font-size="10.00">biom_update_phyla</text>
</g>
<!-- 9&#45;&gt;0 -->
<g id="edge3" class="edge">
<title>9&#45;&gt;0</title>
<path fill="none" stroke="grey" stroke-width="2" d="M414.75,-143.91C426.18,-123.41 448.17,-89.62 477.01,-72 548.1,-28.56 648.34,-19.98 701.87,-18.73"/>
<polygon fill="grey" stroke="grey" stroke-width="2" points="701.99,-22.23 711.94,-18.57 701.88,-15.23 701.99,-22.23"/>
</g>
<!-- 10 -->
<g id="node11" class="node">
<title>10</title>
<path fill="none" stroke="#d88556" stroke-width="2" d="M403.01,-324C403.01,-324 347.01,-324 347.01,-324 341.01,-324 335.01,-318 335.01,-312 335.01,-312 335.01,-300 335.01,-300 335.01,-294 341.01,-288 347.01,-288 347.01,-288 403.01,-288 403.01,-288 409.01,-288 415.01,-294 415.01,-300 415.01,-300 415.01,-312 415.01,-312 415.01,-318 409.01,-324 403.01,-324"/>
<text text-anchor="middle" x="375.01" y="-303.5" font-family="sans" font-size="10.00">kraken_biom</text>
</g>
<!-- 10&#45;&gt;9 -->
<g id="edge29" class="edge">
<title>10&#45;&gt;9</title>
<path fill="none" stroke="grey" stroke-width="2" d="M378.75,-287.87C384.05,-263.56 393.82,-218.82 400.11,-190.01"/>
<polygon fill="grey" stroke="grey" stroke-width="2" points="403.54,-190.71 402.26,-180.19 396.7,-189.21 403.54,-190.71"/>
</g>
<!-- 11&#45;&gt;10 -->
<g id="edge30" class="edge">
<title>11&#45;&gt;10</title>
<path fill="none" stroke="grey" stroke-width="2" d="M326.83,-359.7C334.58,-351.22 344.05,-340.86 352.53,-331.58"/>
<polygon fill="grey" stroke="grey" stroke-width="2" points="355.21,-333.85 359.37,-324.1 350.04,-329.12 355.21,-333.85"/>
</g>
<!-- 12&#45;&gt;10 -->
<g id="edge31" class="edge">
<title>12&#45;&gt;10</title>
<path fill="none" stroke="grey" stroke-width="2" d="M432.22,-359.7C422.83,-351.05 411.32,-340.45 401.09,-331.03"/>
<polygon fill="grey" stroke="grey" stroke-width="2" points="403.31,-328.3 393.58,-324.1 398.56,-333.45 403.31,-328.3"/>
</g>
<!-- 13&#45;&gt;0 -->
<g id="edge4" class="edge">
<title>13&#45;&gt;0</title>
<path fill="none" stroke="grey" stroke-width="2" d="M545.48,-359.73C519.56,-318.53 462.51,-212.75 510.01,-144 556.11,-77.27 649.76,-42.74 701.88,-28"/>
<polygon fill="grey" stroke="grey" stroke-width="2" points="703,-31.33 711.73,-25.32 701.16,-24.57 703,-31.33"/>
</g>
<!-- 14&#45;&gt;0 -->
<g id="edge5" class="edge">
<title>14&#45;&gt;0</title>
<path fill="none" stroke="grey" stroke-width="2" d="M54.18,-143.97C53.04,-123.54 54.7,-89.82 75.01,-72 122.3,-30.51 568.97,-21.26 701.88,-19.42"/>
<polygon fill="grey" stroke="grey" stroke-width="2" points="702.02,-22.92 711.97,-19.29 701.92,-15.92 702.02,-22.92"/>
</g>
<!-- 15&#45;&gt;0 -->
<g id="edge6" class="edge">
<title>15&#45;&gt;0</title>
<path fill="none" stroke="grey" stroke-width="2" d="M1466.87,-76.07C1462.64,-74.47 1458.26,-73.03 1454.01,-72 1323.41,-40.33 904.44,-24.38 776.48,-20.16"/>
<polygon fill="grey" stroke="grey" stroke-width="2" points="776.5,-16.66 766.39,-19.83 776.27,-23.66 776.5,-16.66"/>
</g>
<!-- 16&#45;&gt;0 -->
<g id="edge7" class="edge">
<title>16&#45;&gt;0</title>
<path fill="none" stroke="grey" stroke-width="2" d="M140.1,-76.32C144.68,-74.63 149.42,-73.11 154.01,-72 356.34,-23.03 607.96,-18.46 701.61,-18.61"/>
<polygon fill="grey" stroke="grey" stroke-width="2" points="701.71,-22.11 711.73,-18.65 701.74,-15.11 701.71,-22.11"/>
</g>
<!-- 17&#45;&gt;0 -->
<g id="edge8" class="edge">
<title>17&#45;&gt;0</title>
<path fill="none" stroke="grey" stroke-width="2" d="M1540.86,-75.39C1537.27,-74.06 1533.6,-72.87 1530.01,-72 1384.35,-36.51 913.78,-23.04 776.77,-19.82"/>
<polygon fill="grey" stroke="grey" stroke-width="2" points="776.46,-16.31 766.38,-19.58 776.3,-23.31 776.46,-16.31"/>
</g>
<!-- 18 -->
<g id="node19" class="node">
<title>18</title>
<path fill="none" stroke="#5673d8" stroke-width="2" d="M250.01,-108C250.01,-108 212.01,-108 212.01,-108 206.01,-108 200.01,-102 200.01,-96 200.01,-96 200.01,-84 200.01,-84 200.01,-78 206.01,-72 212.01,-72 212.01,-72 250.01,-72 250.01,-72 256.01,-72 262.01,-78 262.01,-84 262.01,-84 262.01,-96 262.01,-96 262.01,-102 256.01,-108 250.01,-108"/>
<text text-anchor="middle" x="231.01" y="-87.5" font-family="sans" font-size="10.00">plasclass</text>
</g>
<!-- 18&#45;&gt;0 -->
<g id="edge9" class="edge">
<title>18&#45;&gt;0</title>
<path fill="none" stroke="grey" stroke-width="2" d="M262.18,-80.2C273.41,-77.27 286.21,-74.2 298.01,-72 446.44,-44.37 625.78,-28 701.93,-21.83"/>
<polygon fill="grey" stroke="grey" stroke-width="2" points="702.29,-25.31 711.98,-21.03 701.73,-18.34 702.29,-25.31"/>
</g>
<!-- 19 -->
<g id="node20" class="node">
<title>19</title>
<path fill="none" stroke="#ced856" stroke-width="2" d="M305.01,-324C305.01,-324 231.01,-324 231.01,-324 225.01,-324 219.01,-318 219.01,-312 219.01,-312 219.01,-300 219.01,-300 219.01,-294 225.01,-288 231.01,-288 231.01,-288 305.01,-288 305.01,-288 311.01,-288 317.01,-294 317.01,-300 317.01,-300 317.01,-312 317.01,-312 317.01,-318 311.01,-324 305.01,-324"/>
<text text-anchor="middle" x="268.01" y="-303.5" font-family="sans" font-size="10.00">bbmap_reformat</text>
</g>
<!-- 19&#45;&gt;18 -->
<g id="edge40" class="edge">
<title>19&#45;&gt;18</title>
<path fill="none" stroke="grey" stroke-width="2" d="M243.53,-287.77C232.6,-278.56 220.88,-266.19 215.01,-252 196.68,-207.74 209.87,-151 220.72,-118.05"/>
<polygon fill="grey" stroke="grey" stroke-width="2" points="224.16,-118.83 224.12,-108.23 217.54,-116.54 224.16,-118.83"/>
</g>
<!-- 24 -->
<g id="node25" class="node">
<title>24</title>
<path fill="none" stroke="#d86656" stroke-width="2" d="M319.51,-180C319.51,-180 274.51,-180 274.51,-180 268.51,-180 262.51,-174 262.51,-168 262.51,-168 262.51,-156 262.51,-156 262.51,-150 268.51,-144 274.51,-144 274.51,-144 319.51,-144 319.51,-144 325.51,-144 331.51,-150 331.51,-156 331.51,-156 331.51,-168 331.51,-168 331.51,-174 325.51,-180 319.51,-180"/>
<text text-anchor="middle" x="297.01" y="-159.5" font-family="sans" font-size="10.00">metaquast</text>
</g>
<!-- 19&#45;&gt;24 -->
<g id="edge46" class="edge">
<title>19&#45;&gt;24</title>
<path fill="none" stroke="grey" stroke-width="2" d="M276.31,-287.74C280.83,-277.57 286.08,-264.32 289.01,-252 293.82,-231.75 295.79,-208.28 296.57,-190.53"/>
<polygon fill="grey" stroke="grey" stroke-width="2" points="300.07,-190.41 296.92,-180.3 293.08,-190.17 300.07,-190.41"/>
</g>
<!-- 19&#45;&gt;27 -->
<g id="edge52" class="edge">
<title>19&#45;&gt;27</title>
<path fill="none" stroke="grey" stroke-width="2" d="M317.3,-290.28C320.24,-289.49 323.16,-288.72 326.01,-288 400.46,-269.19 421.49,-274.19 495.01,-252 496.26,-251.62 497.53,-251.22 498.81,-250.81"/>
<polygon fill="grey" stroke="grey" stroke-width="2" points="500.35,-253.97 508.63,-247.36 498.03,-247.37 500.35,-253.97"/>
</g>
<!-- 37 -->
<g id="node38" class="node">
<title>37</title>
<path fill="none" stroke="#5692d8" stroke-width="2" d="M615.01,-180C615.01,-180 531.01,-180 531.01,-180 525.01,-180 519.01,-174 519.01,-168 519.01,-168 519.01,-156 519.01,-156 519.01,-150 525.01,-144 531.01,-144 531.01,-144 615.01,-144 615.01,-144 621.01,-144 627.01,-150 627.01,-156 627.01,-156 627.01,-168 627.01,-168 627.01,-174 621.01,-180 615.01,-180"/>
<text text-anchor="middle" x="573.01" y="-159.5" font-family="sans" font-size="10.00">kraken2_assembly</text>
</g>
<!-- 19&#45;&gt;37 -->
<g id="edge72" class="edge">
<title>19&#45;&gt;37</title>
<path fill="none" stroke="grey" stroke-width="2" d="M304.8,-287.87C360.44,-261.96 465.95,-212.84 526.73,-184.55"/>
<polygon fill="grey" stroke="grey" stroke-width="2" points="528.5,-187.58 536.09,-180.19 525.54,-181.24 528.5,-187.58"/>
</g>
<!-- 39 -->
<g id="node40" class="node">
<title>39</title>
<path fill="none" stroke="#d87556" stroke-width="2" d="M667.01,-252C667.01,-252 635.01,-252 635.01,-252 629.01,-252 623.01,-246 623.01,-240 623.01,-240 623.01,-228 623.01,-228 623.01,-222 629.01,-216 635.01,-216 635.01,-216 667.01,-216 667.01,-216 673.01,-216 679.01,-222 679.01,-228 679.01,-228 679.01,-240 679.01,-240 679.01,-246 673.01,-252 667.01,-252"/>
<text text-anchor="middle" x="651.01" y="-231.5" font-family="sans" font-size="10.00">abricate</text>
</g>
<!-- 19&#45;&gt;39 -->
<g id="edge74" class="edge">
<title>19&#45;&gt;39</title>
<path fill="none" stroke="grey" stroke-width="2" d="M317.25,-290.05C320.2,-289.32 323.14,-288.62 326.01,-288 435.7,-264.15 465.62,-272.42 576.01,-252 588.09,-249.76 601.18,-246.94 612.99,-244.24"/>
<polygon fill="grey" stroke="grey" stroke-width="2" points="614.04,-247.59 622.98,-241.91 612.45,-240.77 614.04,-247.59"/>
</g>
<!-- 47 -->
<g id="node48" class="node">
<title>47</title>
<path fill="none" stroke="#5663d8" stroke-width="2" d="M268.01,-252C268.01,-252 236.01,-252 236.01,-252 230.01,-252 224.01,-246 224.01,-240 224.01,-240 224.01,-228 224.01,-228 224.01,-222 230.01,-216 236.01,-216 236.01,-216 268.01,-216 268.01,-216 274.01,-216 280.01,-222 280.01,-228 280.01,-228 280.01,-240 280.01,-240 280.01,-246 274.01,-252 268.01,-252"/>
<text text-anchor="middle" x="252.01" y="-231.5" font-family="sans" font-size="10.00">prodigal</text>
</g>
<!-- 19&#45;&gt;47 -->
<g id="edge85" class="edge">
<title>19&#45;&gt;47</title>
<path fill="none" stroke="grey" stroke-width="2" d="M264.05,-287.7C262.29,-279.98 260.17,-270.71 258.21,-262.11"/>
<polygon fill="grey" stroke="grey" stroke-width="2" points="261.56,-261.07 255.92,-252.1 254.73,-262.63 261.56,-261.07"/>
</g>
<!-- 20&#45;&gt;19 -->
<g id="edge41" class="edge">
<title>20&#45;&gt;19</title>
<path fill="none" stroke="grey" stroke-width="2" d="M236.42,-431.96C235.22,-413.81 234.71,-384.4 241.01,-360 243.37,-350.85 247.49,-341.46 251.82,-333.18"/>
<polygon fill="grey" stroke="grey" stroke-width="2" points="254.92,-334.82 256.71,-324.37 248.79,-331.42 254.92,-334.82"/>
</g>
<!-- 21 -->
<g id="node22" class="node">
<title>21</title>
<path fill="none" stroke="#5673d8" stroke-width="2" d="M1433.01,-108C1433.01,-108 1395.01,-108 1395.01,-108 1389.01,-108 1383.01,-102 1383.01,-96 1383.01,-96 1383.01,-84 1383.01,-84 1383.01,-78 1389.01,-72 1395.01,-72 1395.01,-72 1433.01,-72 1433.01,-72 1439.01,-72 1445.01,-78 1445.01,-84 1445.01,-84 1445.01,-96 1445.01,-96 1445.01,-102 1439.01,-108 1433.01,-108"/>
<text text-anchor="middle" x="1414.01" y="-87.5" font-family="sans" font-size="10.00">plasclass</text>
</g>
<!-- 21&#45;&gt;0 -->
<g id="edge10" class="edge">
<title>21&#45;&gt;0</title>
<path fill="none" stroke="grey" stroke-width="2" d="M1382.93,-77.74C1375.81,-75.53 1368.21,-73.44 1361.01,-72 1142.58,-28.25 873.93,-20.59 776.51,-19.27"/>
<polygon fill="grey" stroke="grey" stroke-width="2" points="776.33,-15.76 766.29,-19.14 776.25,-22.76 776.33,-15.76"/>
</g>
<!-- 22 -->
<g id="node23" class="node">
<title>22</title>
<path fill="none" stroke="#ced856" stroke-width="2" d="M1392.01,-324C1392.01,-324 1318.01,-324 1318.01,-324 1312.01,-324 1306.01,-318 1306.01,-312 1306.01,-312 1306.01,-300 1306.01,-300 1306.01,-294 1312.01,-288 1318.01,-288 1318.01,-288 1392.01,-288 1392.01,-288 1398.01,-288 1404.01,-294 1404.01,-300 1404.01,-300 1404.01,-312 1404.01,-312 1404.01,-318 1398.01,-324 1392.01,-324"/>
<text text-anchor="middle" x="1355.01" y="-303.5" font-family="sans" font-size="10.00">bbmap_reformat</text>
</g>
<!-- 22&#45;&gt;21 -->
<g id="edge43" class="edge">
<title>22&#45;&gt;21</title>
<path fill="none" stroke="grey" stroke-width="2" d="M1404.22,-289.37C1423.01,-281.07 1443.01,-268.99 1456.01,-252 1485.49,-213.46 1491.58,-188.4 1472.01,-144 1467.02,-132.69 1458.3,-122.74 1449.11,-114.62"/>
<polygon fill="grey" stroke="grey" stroke-width="2" points="1451.29,-111.88 1441.35,-108.23 1446.84,-117.28 1451.29,-111.88"/>
</g>
<!-- 25 -->
<g id="node26" class="node">
<title>25</title>
<path fill="none" stroke="#d86656" stroke-width="2" d="M1450.51,-180C1450.51,-180 1405.51,-180 1405.51,-180 1399.51,-180 1393.51,-174 1393.51,-168 1393.51,-168 1393.51,-156 1393.51,-156 1393.51,-150 1399.51,-144 1405.51,-144 1405.51,-144 1450.51,-144 1450.51,-144 1456.51,-144 1462.51,-150 1462.51,-156 1462.51,-156 1462.51,-168 1462.51,-168 1462.51,-174 1456.51,-180 1450.51,-180"/>
<text text-anchor="middle" x="1428.01" y="-159.5" font-family="sans" font-size="10.00">metaquast</text>
</g>
<!-- 22&#45;&gt;25 -->
<g id="edge47" class="edge">
<title>22&#45;&gt;25</title>
<path fill="none" stroke="grey" stroke-width="2" d="M1399.08,-287.98C1414.56,-279.62 1430.27,-267.85 1439.01,-252 1449.48,-233.02 1445.3,-208.36 1439.32,-189.82"/>
<polygon fill="grey" stroke="grey" stroke-width="2" points="1442.55,-188.46 1435.89,-180.22 1435.96,-190.81 1442.55,-188.46"/>
</g>
<!-- 22&#45;&gt;28 -->
<g id="edge54" class="edge">
<title>22&#45;&gt;28</title>
<path fill="none" stroke="grey" stroke-width="2" d="M1305.64,-298.55C1253.71,-291.01 1169.69,-276.71 1089.92,-251.92"/>
<polygon fill="grey" stroke="grey" stroke-width="2" points="1090.8,-248.53 1080.21,-248.84 1088.69,-255.2 1090.8,-248.53"/>
</g>
<!-- 38 -->
<g id="node39" class="node">
<title>38</title>
<path fill="none" stroke="#5692d8" stroke-width="2" d="M1344.01,-252C1344.01,-252 1260.01,-252 1260.01,-252 1254.01,-252 1248.01,-246 1248.01,-240 1248.01,-240 1248.01,-228 1248.01,-228 1248.01,-222 1254.01,-216 1260.01,-216 1260.01,-216 1344.01,-216 1344.01,-216 1350.01,-216 1356.01,-222 1356.01,-228 1356.01,-228 1356.01,-240 1356.01,-240 1356.01,-246 1350.01,-252 1344.01,-252"/>
<text text-anchor="middle" x="1302.01" y="-231.5" font-family="sans" font-size="10.00">kraken2_assembly</text>
</g>
<!-- 22&#45;&gt;38 -->
<g id="edge73" class="edge">
<title>22&#45;&gt;38</title>
<path fill="none" stroke="grey" stroke-width="2" d="M1341.91,-287.7C1335.62,-279.39 1327.96,-269.28 1321.04,-260.14"/>
<polygon fill="grey" stroke="grey" stroke-width="2" points="1323.79,-257.96 1314.96,-252.1 1318.2,-262.19 1323.79,-257.96"/>
</g>
<!-- 40 -->
<g id="node41" class="node">
<title>40</title>
<path fill="none" stroke="#d87556" stroke-width="2" d="M1142.01,-252C1142.01,-252 1110.01,-252 1110.01,-252 1104.01,-252 1098.01,-246 1098.01,-240 1098.01,-240 1098.01,-228 1098.01,-228 1098.01,-222 1104.01,-216 1110.01,-216 1110.01,-216 1142.01,-216 1142.01,-216 1148.01,-216 1154.01,-222 1154.01,-228 1154.01,-228 1154.01,-240 1154.01,-240 1154.01,-246 1148.01,-252 1142.01,-252"/>
<text text-anchor="middle" x="1126.01" y="-231.5" font-family="sans" font-size="10.00">abricate</text>
</g>
<!-- 22&#45;&gt;40 -->
<g id="edge75" class="edge">
<title>22&#45;&gt;40</title>
<path fill="none" stroke="grey" stroke-width="2" d="M1305.88,-289.98C1263.42,-277 1202.91,-258.51 1164.05,-246.63"/>
<polygon fill="grey" stroke="grey" stroke-width="2" points="1164.76,-243.19 1154.17,-243.61 1162.71,-249.88 1164.76,-243.19"/>
</g>
<!-- 49 -->
<g id="node50" class="node">
<title>49</title>
<path fill="none" stroke="#5663d8" stroke-width="2" d="M1418.01,-252C1418.01,-252 1386.01,-252 1386.01,-252 1380.01,-252 1374.01,-246 1374.01,-240 1374.01,-240 1374.01,-228 1374.01,-228 1374.01,-222 1380.01,-216 1386.01,-216 1386.01,-216 1418.01,-216 1418.01,-216 1424.01,-216 1430.01,-222 1430.01,-228 1430.01,-228 1430.01,-240 1430.01,-240 1430.01,-246 1424.01,-252 1418.01,-252"/>
<text text-anchor="middle" x="1402.01" y="-231.5" font-family="sans" font-size="10.00">prodigal</text>
</g>
<!-- 22&#45;&gt;49 -->
<g id="edge87" class="edge">
<title>22&#45;&gt;49</title>
<path fill="none" stroke="grey" stroke-width="2" d="M1366.63,-287.7C1372.15,-279.47 1378.86,-269.48 1384.94,-260.42"/>
<polygon fill="grey" stroke="grey" stroke-width="2" points="1387.86,-262.36 1390.52,-252.1 1382.04,-258.46 1387.86,-262.36"/>
</g>
<!-- 23&#45;&gt;22 -->
<g id="edge44" class="edge">
<title>23&#45;&gt;22</title>
<path fill="none" stroke="grey" stroke-width="2" d="M1352.37,-431.87C1352.88,-407.67 1353.82,-363.21 1354.43,-334.39"/>
<polygon fill="grey" stroke="grey" stroke-width="2" points="1357.93,-334.26 1354.65,-324.19 1350.93,-334.11 1357.93,-334.26"/>
</g>
<!-- 24&#45;&gt;0 -->
<g id="edge11" class="edge">
<title>24&#45;&gt;0</title>
<path fill="none" stroke="grey" stroke-width="2" d="M320.87,-143.82C353.46,-120.65 410.51,-81.22 434.01,-72 525.85,-35.95 642.81,-24.35 701.64,-20.67"/>
<polygon fill="grey" stroke="grey" stroke-width="2" points="702.15,-24.15 711.93,-20.07 701.74,-17.16 702.15,-24.15"/>
</g>
<!-- 25&#45;&gt;0 -->
<g id="edge12" class="edge">
<title>25&#45;&gt;0</title>
<path fill="none" stroke="grey" stroke-width="2" d="M1405.48,-143.8C1376.71,-122.86 1324.57,-88.27 1274.01,-72 1180.92,-42.04 881.75,-25.61 776.26,-20.64"/>
<polygon fill="grey" stroke="grey" stroke-width="2" points="776.24,-17.14 766.09,-20.17 775.92,-24.13 776.24,-17.14"/>
</g>
<!-- 26 -->
<g id="node27" class="node">
<title>26</title>
<path fill="none" stroke="#80d856" stroke-width="2" d="M796.01,-108C796.01,-108 766.01,-108 766.01,-108 760.01,-108 754.01,-102 754.01,-96 754.01,-96 754.01,-84 754.01,-84 754.01,-78 760.01,-72 766.01,-72 766.01,-72 796.01,-72 796.01,-72 802.01,-72 808.01,-78 808.01,-84 808.01,-84 808.01,-96 808.01,-96 808.01,-102 802.01,-108 796.01,-108"/>
<text text-anchor="middle" x="781.01" y="-87.5" font-family="sans" font-size="10.00">drep</text>
</g>
<!-- 26&#45;&gt;0 -->
<g id="edge13" class="edge">
<title>26&#45;&gt;0</title>
<path fill="none" stroke="grey" stroke-width="2" d="M770.63,-71.7C765.74,-63.56 759.82,-53.69 754.43,-44.7"/>
<polygon fill="grey" stroke="grey" stroke-width="2" points="757.42,-42.88 749.27,-36.1 751.41,-46.48 757.42,-42.88"/>
</g>
<!-- 27&#45;&gt;26 -->
<g id="edge48" class="edge">
<title>27&#45;&gt;26</title>
<path fill="none" stroke="grey" stroke-width="2" d="M567.4,-217.64C586.99,-207.28 613.22,-193.14 636.01,-180 673.92,-158.13 716.52,-131.76 745.68,-113.43"/>
<polygon fill="grey" stroke="grey" stroke-width="2" points="747.69,-116.3 754.28,-108.01 743.96,-110.38 747.69,-116.3"/>
</g>
<!-- 28&#45;&gt;26 -->
<g id="edge49" class="edge">
<title>28&#45;&gt;26</title>
<path fill="none" stroke="grey" stroke-width="2" d="M1021.83,-219.92C987.83,-204.67 935.99,-181.33 934.01,-180 914.7,-167.02 915.27,-157.04 896.01,-144 871.64,-127.5 841.31,-113.76 817.91,-104.41"/>
<polygon fill="grey" stroke="grey" stroke-width="2" points="818.94,-101.06 808.35,-100.68 816.39,-107.58 818.94,-101.06"/>
</g>
<!-- 29 -->
<g id="node30" class="node">
<title>29</title>
<path fill="none" stroke="#70d856" stroke-width="2" d="M874.51,-180C874.51,-180 771.51,-180 771.51,-180 765.51,-180 759.51,-174 759.51,-168 759.51,-168 759.51,-156 759.51,-156 759.51,-150 765.51,-144 771.51,-144 771.51,-144 874.51,-144 874.51,-144 880.51,-144 886.51,-150 886.51,-156 886.51,-156 886.51,-168 886.51,-168 886.51,-174 880.51,-180 874.51,-180"/>
<text text-anchor="middle" x="823.01" y="-159.5" font-family="sans" font-size="10.00">co_assembly_metabat</text>
</g>
<!-- 29&#45;&gt;26 -->
<g id="edge50" class="edge">
<title>29&#45;&gt;26</title>
<path fill="none" stroke="grey" stroke-width="2" d="M812.63,-143.7C807.74,-135.56 801.82,-125.69 796.43,-116.7"/>
<polygon fill="grey" stroke="grey" stroke-width="2" points="799.42,-114.88 791.27,-108.1 793.41,-118.48 799.42,-114.88"/>
</g>
<!-- 30&#45;&gt;29 -->
<g id="edge55" class="edge">
<title>30&#45;&gt;29</title>
<path fill="none" stroke="grey" stroke-width="2" d="M804.19,-215.7C807,-207.81 810.4,-198.3 813.53,-189.55"/>
<polygon fill="grey" stroke="grey" stroke-width="2" points="816.83,-190.7 816.9,-180.1 810.24,-188.34 816.83,-190.7"/>
</g>
<!-- 31 -->
<g id="node32" class="node">
<title>31</title>
<path fill="none" stroke="#56a2d8" stroke-width="2" d="M880.51,-324C880.51,-324 747.51,-324 747.51,-324 741.51,-324 735.51,-318 735.51,-312 735.51,-312 735.51,-300 735.51,-300 735.51,-294 741.51,-288 747.51,-288 747.51,-288 880.51,-288 880.51,-288 886.51,-288 892.51,-294 892.51,-300 892.51,-300 892.51,-312 892.51,-312 892.51,-318 886.51,-324 880.51,-324"/>
<text text-anchor="middle" x="814.01" y="-303.5" font-family="sans" font-size="10.00">co_assembly_bowtie2_index</text>
</g>
<!-- 31&#45;&gt;30 -->
<g id="edge59" class="edge">
<title>31&#45;&gt;30</title>
<path fill="none" stroke="grey" stroke-width="2" d="M810.05,-287.7C808.29,-279.98 806.17,-270.71 804.21,-262.11"/>
<polygon fill="grey" stroke="grey" stroke-width="2" points="807.56,-261.07 801.92,-252.1 800.73,-262.63 807.56,-261.07"/>
</g>
<!-- 31&#45;&gt;34 -->
<g id="edge65" class="edge">
<title>31&#45;&gt;34</title>
<path fill="none" stroke="grey" stroke-width="2" d="M845.08,-287.88C861.84,-278.64 882.71,-267.13 900.71,-257.21"/>
<polygon fill="grey" stroke="grey" stroke-width="2" points="902.75,-260.08 909.82,-252.19 899.37,-253.95 902.75,-260.08"/>
</g>
<!-- 32 -->
<g id="node33" class="node">
<title>32</title>
<path fill="none" stroke="#56d8a9" stroke-width="2" d="M812.51,-396C812.51,-396 717.51,-396 717.51,-396 711.51,-396 705.51,-390 705.51,-384 705.51,-384 705.51,-372 705.51,-372 705.51,-366 711.51,-360 717.51,-360 717.51,-360 812.51,-360 812.51,-360 818.51,-360 824.51,-366 824.51,-372 824.51,-372 824.51,-384 824.51,-384 824.51,-390 818.51,-396 812.51,-396"/>
<text text-anchor="middle" x="765.01" y="-375.5" font-family="sans" font-size="10.00">co_assembly_bbmap</text>
</g>
<!-- 32&#45;&gt;29 -->
<g id="edge57" class="edge">
<title>32&#45;&gt;29</title>
<path fill="none" stroke="grey" stroke-width="2" d="M748.54,-359.92C740.35,-350.22 731.3,-337.37 727.01,-324 712.32,-278.3 702.61,-257.34 727.01,-216 734.87,-202.69 747.4,-192.48 760.85,-184.76"/>
<polygon fill="grey" stroke="grey" stroke-width="2" points="762.58,-187.81 769.78,-180.04 759.31,-181.62 762.58,-187.81"/>
</g>
<!-- 32&#45;&gt;31 -->
<g id="edge60" class="edge">
<title>32&#45;&gt;31</title>
<path fill="none" stroke="grey" stroke-width="2" d="M777.12,-359.7C782.88,-351.47 789.87,-341.48 796.21,-332.42"/>
<polygon fill="grey" stroke="grey" stroke-width="2" points="799.17,-334.3 802.04,-324.1 793.43,-330.29 799.17,-334.3"/>
</g>
<!-- 35 -->
<g id="node36" class="node">
<title>35</title>
<path fill="none" stroke="#9fd856" stroke-width="2" d="M666.51,-324C666.51,-324 565.51,-324 565.51,-324 559.51,-324 553.51,-318 553.51,-312 553.51,-312 553.51,-300 553.51,-300 553.51,-294 559.51,-288 565.51,-288 565.51,-288 666.51,-288 666.51,-288 672.51,-288 678.51,-294 678.51,-300 678.51,-300 678.51,-312 678.51,-312 678.51,-318 672.51,-324 666.51,-324"/>
<text text-anchor="middle" x="616.01" y="-309" font-family="sans" font-size="10.00">co_assembly_prodigal</text>
<text text-anchor="middle" x="616.01" y="-298" font-family="sans" font-size="10.00">sample: co_assembly</text>
</g>
<!-- 32&#45;&gt;35 -->
<g id="edge66" class="edge">
<title>32&#45;&gt;35</title>
<path fill="none" stroke="grey" stroke-width="2" d="M728.56,-359.88C708.37,-350.39 683.09,-338.51 661.6,-328.42"/>
<polygon fill="grey" stroke="grey" stroke-width="2" points="662.88,-325.15 652.34,-324.07 659.9,-331.49 662.88,-325.15"/>
</g>
<!-- 33&#45;&gt;32 -->
<g id="edge61" class="edge">
<title>33&#45;&gt;32</title>
<path fill="none" stroke="grey" stroke-width="2" d="M936.77,-431.97C904.64,-422.06 863.96,-409.51 830.26,-399.12"/>
<polygon fill="grey" stroke="grey" stroke-width="2" points="831.08,-395.71 820.5,-396.11 829.02,-402.4 831.08,-395.71"/>
</g>
<!-- 34&#45;&gt;29 -->
<g id="edge56" class="edge">
<title>34&#45;&gt;29</title>
<path fill="none" stroke="grey" stroke-width="2" d="M912.14,-215.88C896.71,-206.72 877.53,-195.34 860.91,-185.48"/>
<polygon fill="grey" stroke="grey" stroke-width="2" points="862.37,-182.28 851.99,-180.19 858.8,-188.3 862.37,-182.28"/>
</g>
<!-- 35&#45;&gt;0 -->
<g id="edge14" class="edge">
<title>35&#45;&gt;0</title>
<path fill="none" stroke="grey" stroke-width="2" d="M612.63,-287.88C609.71,-269.66 606.98,-240.19 614.01,-216 614.71,-213.6 688.78,-97.57 722.55,-44.73"/>
<polygon fill="grey" stroke="grey" stroke-width="2" points="725.55,-46.54 727.99,-36.23 719.65,-42.77 725.55,-46.54"/>
</g>
<!-- 36 -->
<g id="node37" class="node">
<title>36</title>
<path fill="none" stroke="#56d0d8" stroke-width="2" d="M978.01,-108C978.01,-108 898.01,-108 898.01,-108 892.01,-108 886.01,-102 886.01,-96 886.01,-96 886.01,-84 886.01,-84 886.01,-78 892.01,-72 898.01,-72 898.01,-72 978.01,-72 978.01,-72 984.01,-72 990.01,-78 990.01,-84 990.01,-84 990.01,-96 990.01,-96 990.01,-102 984.01,-108 978.01,-108"/>
<text text-anchor="middle" x="938.01" y="-87.5" font-family="sans" font-size="10.00">abricate_taxcaller</text>
</g>
<!-- 36&#45;&gt;0 -->
<g id="edge15" class="edge">
<title>36&#45;&gt;0</title>
<path fill="none" stroke="grey" stroke-width="2" d="M889.58,-71.97C854.45,-59.61 807.65,-43.15 775.61,-31.87"/>
<polygon fill="grey" stroke="grey" stroke-width="2" points="776.76,-28.57 766.17,-28.55 774.44,-35.17 776.76,-28.57"/>
</g>
<!-- 37&#45;&gt;36 -->
<g id="edge67" class="edge">
<title>37&#45;&gt;36</title>
<path fill="none" stroke="grey" stroke-width="2" d="M627.26,-150.6C693.7,-137.85 805.99,-116.32 875.84,-102.92"/>
<polygon fill="grey" stroke="grey" stroke-width="2" points="876.67,-106.33 885.83,-101.01 875.35,-99.45 876.67,-106.33"/>
</g>
<!-- 38&#45;&gt;36 -->
<g id="edge68" class="edge">
<title>38&#45;&gt;36</title>
<path fill="none" stroke="grey" stroke-width="2" d="M1263.23,-215.87C1220.94,-197.39 1151.13,-167.46 1090.01,-144 1060.25,-132.58 1026.84,-120.81 998.93,-111.28"/>
<polygon fill="grey" stroke="grey" stroke-width="2" points="999.9,-107.91 989.31,-108 997.65,-114.54 999.9,-107.91"/>
</g>
<!-- 39&#45;&gt;36 -->
<g id="edge69" class="edge">
<title>39&#45;&gt;36</title>
<path fill="none" stroke="grey" stroke-width="2" d="M665.87,-215.69C684.02,-195.63 716.57,-162.89 751.01,-144 789.98,-122.62 838.36,-109.21 876.14,-101.23"/>
<polygon fill="grey" stroke="grey" stroke-width="2" points="876.91,-104.65 886.01,-99.22 875.51,-97.79 876.91,-104.65"/>
</g>
<!-- 41 -->
<g id="node42" class="node">
<title>41</title>
<path fill="none" stroke="#56d87b" stroke-width="2" d="M1039.01,-180C1039.01,-180 955.01,-180 955.01,-180 949.01,-180 943.01,-174 943.01,-168 943.01,-168 943.01,-156 943.01,-156 943.01,-150 949.01,-144 955.01,-144 955.01,-144 1039.01,-144 1039.01,-144 1045.01,-144 1051.01,-150 1051.01,-156 1051.01,-156 1051.01,-168 1051.01,-168 1051.01,-174 1045.01,-180 1039.01,-180"/>
<text text-anchor="middle" x="997.01" y="-159.5" font-family="sans" font-size="10.00">abricate_summary</text>
</g>
<!-- 39&#45;&gt;41 -->
<g id="edge76" class="edge">
<title>39&#45;&gt;41</title>
<path fill="none" stroke="grey" stroke-width="2" d="M679.12,-226.53C693.44,-223.28 711.13,-219.33 727.01,-216 797.32,-201.24 878.2,-185.53 932.97,-175.08"/>
<polygon fill="grey" stroke="grey" stroke-width="2" points="933.71,-178.5 942.88,-173.19 932.4,-171.63 933.71,-178.5"/>
</g>
<!-- 40&#45;&gt;36 -->
<g id="edge70" class="edge">
<title>40&#45;&gt;36</title>
<path fill="none" stroke="grey" stroke-width="2" d="M1116.94,-215.81C1105.83,-196.15 1085.31,-164.1 1060.01,-144 1042.29,-129.93 1020.26,-118.86 999.82,-110.56"/>
<polygon fill="grey" stroke="grey" stroke-width="2" points="1000.84,-107.21 990.25,-106.83 998.29,-113.73 1000.84,-107.21"/>
</g>
<!-- 40&#45;&gt;41 -->
<g id="edge77" class="edge">
<title>40&#45;&gt;41</title>
<path fill="none" stroke="grey" stroke-width="2" d="M1097.7,-217.64C1080.03,-208.05 1057,-195.55 1037.42,-184.93"/>
<polygon fill="grey" stroke="grey" stroke-width="2" points="1038.88,-181.74 1028.42,-180.04 1035.54,-187.89 1038.88,-181.74"/>
</g>
<!-- 41&#45;&gt;36 -->
<g id="edge71" class="edge">
<title>41&#45;&gt;36</title>
<path fill="none" stroke="grey" stroke-width="2" d="M982.42,-143.7C975.35,-135.3 966.72,-125.07 958.96,-115.86"/>
<polygon fill="grey" stroke="grey" stroke-width="2" points="961.55,-113.49 952.42,-108.1 956.19,-118.01 961.55,-113.49"/>
</g>
<!-- 42 -->
<g id="node43" class="node">
<title>42</title>
<path fill="none" stroke="#56d89a" stroke-width="2" d="M1314.51,-396C1314.51,-396 1233.51,-396 1233.51,-396 1227.51,-396 1221.51,-390 1221.51,-384 1221.51,-384 1221.51,-372 1221.51,-372 1221.51,-366 1227.51,-360 1233.51,-360 1233.51,-360 1314.51,-360 1314.51,-360 1320.51,-360 1326.51,-366 1326.51,-372 1326.51,-372 1326.51,-384 1326.51,-384 1326.51,-390 1320.51,-396 1314.51,-396"/>
<text text-anchor="middle" x="1274.01" y="-375.5" font-family="sans" font-size="10.00">coverm_summary</text>
</g>
<!-- 42&#45;&gt;0 -->
<g id="edge16" class="edge">
<title>42&#45;&gt;0</title>
<path fill="none" stroke="grey" stroke-width="2" d="M1268.93,-359.67C1261.92,-335.59 1249.02,-290.61 1239.01,-252 1218.36,-172.38 1257.53,-126.6 1196.01,-72 1164.79,-44.29 879.76,-26.49 776.3,-20.9"/>
<polygon fill="grey" stroke="grey" stroke-width="2" points="776.48,-17.4 766.31,-20.36 776.1,-24.39 776.48,-17.4"/>
</g>
<!-- 43&#45;&gt;42 -->
<g id="edge78" class="edge">
<title>43&#45;&gt;42</title>
<path fill="none" stroke="grey" stroke-width="2" d="M1274.01,-431.7C1274.01,-423.98 1274.01,-414.71 1274.01,-406.11"/>
<polygon fill="grey" stroke="grey" stroke-width="2" points="1277.51,-406.1 1274.01,-396.1 1270.51,-406.1 1277.51,-406.1"/>
</g>
<!-- 44 -->
<g id="node45" class="node">
<title>44</title>
<path fill="none" stroke="#d8a456" stroke-width="2" d="M1420.51,-540C1420.51,-540 1337.51,-540 1337.51,-540 1331.51,-540 1325.51,-534 1325.51,-528 1325.51,-528 1325.51,-516 1325.51,-516 1325.51,-510 1331.51,-504 1337.51,-504 1337.51,-504 1420.51,-504 1420.51,-504 1426.51,-504 1432.51,-510 1432.51,-516 1432.51,-516 1432.51,-528 1432.51,-528 1432.51,-534 1426.51,-540 1420.51,-540"/>
<text text-anchor="middle" x="1379.01" y="-519.5" font-family="sans" font-size="10.00">fetch_megares_db</text>
</g>
<!-- 44&#45;&gt;43 -->
<g id="edge81" class="edge">
<title>44&#45;&gt;43</title>
<path fill="none" stroke="grey" stroke-width="2" d="M1353.32,-503.88C1339.72,-494.81 1322.84,-483.55 1308.15,-473.76"/>
<polygon fill="grey" stroke="grey" stroke-width="2" points="1310.05,-470.82 1299.79,-468.19 1306.17,-476.65 1310.05,-470.82"/>
</g>
<!-- 44&#45;&gt;45 -->
<g id="edge83" class="edge">
<title>44&#45;&gt;45</title>
<path fill="none" stroke="grey" stroke-width="2" d="M1404.94,-503.88C1418.67,-494.81 1435.71,-483.55 1450.54,-473.76"/>
<polygon fill="grey" stroke="grey" stroke-width="2" points="1452.56,-476.62 1458.98,-468.19 1448.7,-470.78 1452.56,-476.62"/>
</g>
<!-- 45&#45;&gt;42 -->
<g id="edge79" class="edge">
<title>45&#45;&gt;42</title>
<path fill="none" stroke="grey" stroke-width="2" d="M1457.86,-439.99C1426.94,-429.74 1375.47,-412.66 1334.84,-399.18"/>
<polygon fill="grey" stroke="grey" stroke-width="2" points="1335.89,-395.84 1325.29,-396.01 1333.68,-402.48 1335.89,-395.84"/>
</g>
<!-- 46 -->
<g id="node47" class="node">
<title>46</title>
<path fill="none" stroke="#d89556" stroke-width="2" d="M351.01,-108C351.01,-108 319.01,-108 319.01,-108 313.01,-108 307.01,-102 307.01,-96 307.01,-96 307.01,-84 307.01,-84 307.01,-78 313.01,-72 319.01,-72 319.01,-72 351.01,-72 351.01,-72 357.01,-72 363.01,-78 363.01,-84 363.01,-84 363.01,-96 363.01,-96 363.01,-102 357.01,-108 351.01,-108"/>
<text text-anchor="middle" x="335.01" y="-87.5" font-family="sans" font-size="10.00">deeparg</text>
</g>
<!-- 46&#45;&gt;0 -->
<g id="edge17" class="edge">
<title>46&#45;&gt;0</title>
<path fill="none" stroke="grey" stroke-width="2" d="M363.29,-79.55C372.1,-76.84 381.89,-74.07 391.01,-72 502.8,-46.66 637.58,-30 701.66,-22.91"/>
<polygon fill="grey" stroke="grey" stroke-width="2" points="702.13,-26.37 711.69,-21.81 701.36,-19.42 702.13,-26.37"/>
</g>
<!-- 47&#45;&gt;46 -->
<g id="edge84" class="edge">
<title>47&#45;&gt;46</title>
<path fill="none" stroke="grey" stroke-width="2" d="M247.89,-215.71C244.38,-196.82 241.63,-166.29 254.01,-144 263.49,-126.93 281.05,-114.44 297.4,-105.88"/>
<polygon fill="grey" stroke="grey" stroke-width="2" points="299.36,-108.82 306.82,-101.3 296.3,-102.53 299.36,-108.82"/>
</g>
<!-- 48 -->
<g id="node49" class="node">
<title>48</title>
<path fill="none" stroke="#d89556" stroke-width="2" d="M1354.01,-180C1354.01,-180 1322.01,-180 1322.01,-180 1316.01,-180 1310.01,-174 1310.01,-168 1310.01,-168 1310.01,-156 1310.01,-156 1310.01,-150 1316.01,-144 1322.01,-144 1322.01,-144 1354.01,-144 1354.01,-144 1360.01,-144 1366.01,-150 1366.01,-156 1366.01,-156 1366.01,-168 1366.01,-168 1366.01,-174 1360.01,-180 1354.01,-180"/>
<text text-anchor="middle" x="1338.01" y="-159.5" font-family="sans" font-size="10.00">deeparg</text>
</g>
<!-- 48&#45;&gt;0 -->
<g id="edge18" class="edge">
<title>48&#45;&gt;0</title>
<path fill="none" stroke="grey" stroke-width="2" d="M1323.89,-143.77C1305.59,-122.8 1271.54,-88.19 1234.01,-72 1151.6,-36.45 877.12,-23.7 776.45,-20.15"/>
<polygon fill="grey" stroke="grey" stroke-width="2" points="776.26,-16.64 766.15,-19.8 776.02,-23.64 776.26,-16.64"/>
</g>
<!-- 49&#45;&gt;48 -->
<g id="edge86" class="edge">
<title>49&#45;&gt;48</title>
<path fill="none" stroke="grey" stroke-width="2" d="M1386.19,-215.7C1378.44,-207.22 1368.97,-196.86 1360.48,-187.58"/>
<polygon fill="grey" stroke="grey" stroke-width="2" points="1362.98,-185.12 1353.65,-180.1 1357.81,-189.85 1362.98,-185.12"/>
</g>
</g>
</svg>
