<?xml version="1.0" encoding="UTF-8" standalone="no"?>
<!DOCTYPE svg PUBLIC "-//W3C//DTD SVG 1.1//EN"
 "http://www.w3.org/Graphics/SVG/1.1/DTD/svg11.dtd">
<!-- Generated by graphviz version 2.49.0 (20210829.0051)
 -->
<!-- Title: snakemake_dag Pages: 1 -->
<svg width="1143pt" height="548pt"
 viewBox="0.00 0.00 1143.00 548.00" xmlns="http://www.w3.org/2000/svg" xmlns:xlink="http://www.w3.org/1999/xlink">
<g id="graph0" class="graph" transform="scale(1 1) rotate(0) translate(4 544)">
<title>snakemake_dag</title>
<polygon fill="white" stroke="transparent" points="-4,4 -4,-544 1139,-544 1139,4 -4,4"/>
<!-- 0 -->
<g id="node1" class="node">
<title>0</title>
<path fill="none" stroke="#5682d8" stroke-width="2" d="M659,-36C659,-36 629,-36 629,-36 623,-36 617,-30 617,-24 617,-24 617,-12 617,-12 617,-6 623,0 629,0 629,0 659,0 659,0 665,0 671,-6 671,-12 671,-12 671,-24 671,-24 671,-30 665,-36 659,-36"/>
<text text-anchor="middle" x="644" y="-15.5" font-family="sans" font-size="10.00">all</text>
</g>
<!-- 1 -->
<g id="node2" class="node">
<title>1</title>
<path fill="none" stroke="#56d892" stroke-width="2" d="M452,-396C452,-396 422,-396 422,-396 416,-396 410,-390 410,-384 410,-384 410,-372 410,-372 410,-366 416,-360 422,-360 422,-360 452,-360 452,-360 458,-360 464,-366 464,-372 464,-372 464,-384 464,-384 464,-390 458,-396 452,-396"/>
<text text-anchor="middle" x="437" y="-375.5" font-family="sans" font-size="10.00">seqfu</text>
</g>
<!-- 1&#45;&gt;0 -->
<g id="edge1" class="edge">
<title>1&#45;&gt;0</title>
<path fill="none" stroke="grey" stroke-width="2" d="M428.7,-359.97C416.72,-333.77 396,-281.7 396,-235 396,-235 396,-235 396,-161 396,-64.97 537.78,-32.97 606.94,-23.08"/>
<polygon fill="grey" stroke="grey" stroke-width="2" points="607.54,-26.53 616.99,-21.73 606.61,-19.6 607.54,-26.53"/>
</g>
<!-- 2 -->
<g id="node3" class="node">
<title>2</title>
<path fill="none" stroke="#56b1d8" stroke-width="2" d="M307.5,-468C307.5,-468 254.5,-468 254.5,-468 248.5,-468 242.5,-462 242.5,-456 242.5,-456 242.5,-444 242.5,-444 242.5,-438 248.5,-432 254.5,-432 254.5,-432 307.5,-432 307.5,-432 313.5,-432 319.5,-438 319.5,-444 319.5,-444 319.5,-456 319.5,-456 319.5,-462 313.5,-468 307.5,-468"/>
<text text-anchor="middle" x="281" y="-447.5" font-family="sans" font-size="10.00">bbmap_split</text>
</g>
<!-- 2&#45;&gt;1 -->
<g id="edge15" class="edge">
<title>2&#45;&gt;1</title>
<path fill="none" stroke="grey" stroke-width="2" d="M319.75,-432.18C341.29,-422.77 368.75,-410.65 400.76,-396.06"/>
<polygon fill="grey" stroke="grey" stroke-width="2" points="402.27,-399.22 409.91,-391.88 399.36,-392.86 402.27,-399.22"/>
</g>
<!-- 7 -->
<g id="node8" class="node">
<title>7</title>
<path fill="none" stroke="#56d8a2" stroke-width="2" d="M663,-396C663,-396 599,-396 599,-396 593,-396 587,-390 587,-384 587,-384 587,-372 587,-372 587,-366 593,-360 599,-360 599,-360 663,-360 663,-360 669,-360 675,-366 675,-372 675,-372 675,-384 675,-384 675,-390 669,-396 663,-396"/>
<text text-anchor="middle" x="631" y="-375.5" font-family="sans" font-size="10.00">kraken2_reads</text>
</g>
<!-- 2&#45;&gt;7 -->
<g id="edge23" class="edge">
<title>2&#45;&gt;7</title>
<path fill="none" stroke="grey" stroke-width="2" d="M319.82,-443.47C376.37,-435.1 484.5,-417.82 575,-396 575.6,-395.85 576.21,-395.71 576.81,-395.56"/>
<polygon fill="grey" stroke="grey" stroke-width="2" points="578.02,-398.86 586.81,-392.93 576.25,-392.09 578.02,-398.86"/>
</g>
<!-- 14 -->
<g id="node15" class="node">
<title>14</title>
<path fill="none" stroke="#56d87b" stroke-width="2" d="M42,-108C42,-108 12,-108 12,-108 6,-108 0,-102 0,-96 0,-96 0,-84 0,-84 0,-78 6,-72 12,-72 12,-72 42,-72 42,-72 48,-72 54,-78 54,-84 54,-84 54,-96 54,-96 54,-102 48,-108 42,-108"/>
<text text-anchor="middle" x="27" y="-87.5" font-family="sans" font-size="10.00">kmc3</text>
</g>
<!-- 2&#45;&gt;14 -->
<g id="edge35" class="edge">
<title>2&#45;&gt;14</title>
<path fill="none" stroke="grey" stroke-width="2" d="M242.29,-444.52C173.01,-434.13 35,-401.56 35,-307 35,-307 35,-307 35,-233 35,-192.93 31.79,-146.61 29.43,-118.05"/>
<polygon fill="grey" stroke="grey" stroke-width="2" points="32.91,-117.7 28.58,-108.03 25.94,-118.29 32.91,-117.7"/>
</g>
<!-- 18 -->
<g id="node19" class="node">
<title>18</title>
<path fill="none" stroke="#d8b456" stroke-width="2" d="M307.5,-396C307.5,-396 254.5,-396 254.5,-396 248.5,-396 242.5,-390 242.5,-384 242.5,-384 242.5,-372 242.5,-372 242.5,-366 248.5,-360 254.5,-360 254.5,-360 307.5,-360 307.5,-360 313.5,-360 319.5,-366 319.5,-372 319.5,-372 319.5,-384 319.5,-384 319.5,-390 313.5,-396 307.5,-396"/>
<text text-anchor="middle" x="281" y="-375.5" font-family="sans" font-size="10.00">metaspades</text>
</g>
<!-- 2&#45;&gt;18 -->
<g id="edge39" class="edge">
<title>2&#45;&gt;18</title>
<path fill="none" stroke="grey" stroke-width="2" d="M281,-431.7C281,-423.98 281,-414.71 281,-406.11"/>
<polygon fill="grey" stroke="grey" stroke-width="2" points="284.5,-406.1 281,-396.1 277.5,-406.1 284.5,-406.1"/>
</g>
<!-- 24 -->
<g id="node25" class="node">
<title>24</title>
<path fill="none" stroke="#d6d856" stroke-width="2" d="M116,-252C116,-252 82,-252 82,-252 76,-252 70,-246 70,-240 70,-240 70,-228 70,-228 70,-222 76,-216 82,-216 82,-216 116,-216 116,-216 122,-216 128,-222 128,-228 128,-228 128,-240 128,-240 128,-246 122,-252 116,-252"/>
<text text-anchor="middle" x="99" y="-231.5" font-family="sans" font-size="10.00">metabat</text>
</g>
<!-- 2&#45;&gt;24 -->
<g id="edge46" class="edge">
<title>2&#45;&gt;24</title>
<path fill="none" stroke="grey" stroke-width="2" d="M242.46,-442.08C213.21,-435.02 173.77,-421.37 148,-396 111.49,-360.05 102.01,-297.81 99.65,-262.16"/>
<polygon fill="grey" stroke="grey" stroke-width="2" points="103.14,-261.82 99.13,-252.01 96.15,-262.18 103.14,-261.82"/>
</g>
<!-- 34 -->
<g id="node35" class="node">
<title>34</title>
<path fill="none" stroke="#56d8b9" stroke-width="2" d="M199,-396C199,-396 169,-396 169,-396 163,-396 157,-390 157,-384 157,-384 157,-372 157,-372 157,-366 163,-360 169,-360 169,-360 199,-360 199,-360 205,-360 211,-366 211,-372 211,-372 211,-384 211,-384 211,-390 205,-396 199,-396"/>
<text text-anchor="middle" x="184" y="-375.5" font-family="sans" font-size="10.00">coverm</text>
</g>
<!-- 2&#45;&gt;34 -->
<g id="edge64" class="edge">
<title>2&#45;&gt;34</title>
<path fill="none" stroke="grey" stroke-width="2" d="M257.02,-431.7C244.69,-422.8 229.48,-411.82 216.15,-402.2"/>
<polygon fill="grey" stroke="grey" stroke-width="2" points="217.86,-399.12 207.7,-396.1 213.76,-404.79 217.86,-399.12"/>
</g>
<!-- 3 -->
<g id="node4" class="node">
<title>3</title>
<path fill="none" stroke="#bed856" stroke-width="2" d="M656,-540C656,-540 588,-540 588,-540 582,-540 576,-534 576,-528 576,-528 576,-516 576,-516 576,-510 582,-504 588,-504 588,-504 656,-504 656,-504 662,-504 668,-510 668,-516 668,-516 668,-528 668,-528 668,-534 662,-540 656,-540"/>
<text text-anchor="middle" x="622" y="-525" font-family="sans" font-size="10.00">fastp</text>
<text text-anchor="middle" x="622" y="-514" font-family="sans" font-size="10.00">sample: I12281</text>
</g>
<!-- 3&#45;&gt;2 -->
<g id="edge17" class="edge">
<title>3&#45;&gt;2</title>
<path fill="none" stroke="grey" stroke-width="2" d="M575.66,-511.49C511.27,-498.27 395.28,-474.46 329.68,-460.99"/>
<polygon fill="grey" stroke="grey" stroke-width="2" points="330.09,-457.51 319.6,-458.92 328.69,-464.36 330.09,-457.51"/>
</g>
<!-- 6 -->
<g id="node7" class="node">
<title>6</title>
<path fill="none" stroke="#d8c356" stroke-width="2" d="M1036,-324C1036,-324 1006,-324 1006,-324 1000,-324 994,-318 994,-312 994,-312 994,-300 994,-300 994,-294 1000,-288 1006,-288 1006,-288 1036,-288 1036,-288 1042,-288 1048,-294 1048,-300 1048,-300 1048,-312 1048,-312 1048,-318 1042,-324 1036,-324"/>
<text text-anchor="middle" x="1021" y="-303.5" font-family="sans" font-size="10.00">multiqc</text>
</g>
<!-- 3&#45;&gt;6 -->
<g id="edge19" class="edge">
<title>3&#45;&gt;6</title>
<path fill="none" stroke="grey" stroke-width="2" d="M668.29,-517.29C741.22,-510.7 878.72,-495.05 919,-468 967.84,-435.21 998.04,-370.31 1011.93,-333.72"/>
<polygon fill="grey" stroke="grey" stroke-width="2" points="1015.26,-334.79 1015.42,-324.2 1008.69,-332.38 1015.26,-334.79"/>
</g>
<!-- 4 -->
<g id="node5" class="node">
<title>4</title>
<path fill="none" stroke="#56b1d8" stroke-width="2" d="M897.5,-468C897.5,-468 844.5,-468 844.5,-468 838.5,-468 832.5,-462 832.5,-456 832.5,-456 832.5,-444 832.5,-444 832.5,-438 838.5,-432 844.5,-432 844.5,-432 897.5,-432 897.5,-432 903.5,-432 909.5,-438 909.5,-444 909.5,-444 909.5,-456 909.5,-456 909.5,-462 903.5,-468 897.5,-468"/>
<text text-anchor="middle" x="871" y="-447.5" font-family="sans" font-size="10.00">bbmap_split</text>
</g>
<!-- 4&#45;&gt;1 -->
<g id="edge16" class="edge">
<title>4&#45;&gt;1</title>
<path fill="none" stroke="grey" stroke-width="2" d="M832.38,-446.86C761.53,-442.27 606.42,-429.04 480,-396 478.08,-395.5 476.13,-394.93 474.17,-394.32"/>
<polygon fill="grey" stroke="grey" stroke-width="2" points="475.02,-390.92 464.43,-390.98 472.75,-397.54 475.02,-390.92"/>
</g>
<!-- 8 -->
<g id="node9" class="node">
<title>8</title>
<path fill="none" stroke="#56d8a2" stroke-width="2" d="M903,-396C903,-396 839,-396 839,-396 833,-396 827,-390 827,-384 827,-384 827,-372 827,-372 827,-366 833,-360 839,-360 839,-360 903,-360 903,-360 909,-360 915,-366 915,-372 915,-372 915,-384 915,-384 915,-390 909,-396 903,-396"/>
<text text-anchor="middle" x="871" y="-375.5" font-family="sans" font-size="10.00">kraken2_reads</text>
</g>
<!-- 4&#45;&gt;8 -->
<g id="edge24" class="edge">
<title>4&#45;&gt;8</title>
<path fill="none" stroke="grey" stroke-width="2" d="M871,-431.7C871,-423.98 871,-414.71 871,-406.11"/>
<polygon fill="grey" stroke="grey" stroke-width="2" points="874.5,-406.1 871,-396.1 867.5,-406.1 874.5,-406.1"/>
</g>
<!-- 15 -->
<g id="node16" class="node">
<title>15</title>
<path fill="none" stroke="#56d87b" stroke-width="2" d="M1123,-108C1123,-108 1093,-108 1093,-108 1087,-108 1081,-102 1081,-96 1081,-96 1081,-84 1081,-84 1081,-78 1087,-72 1093,-72 1093,-72 1123,-72 1123,-72 1129,-72 1135,-78 1135,-84 1135,-84 1135,-96 1135,-96 1135,-102 1129,-108 1123,-108"/>
<text text-anchor="middle" x="1108" y="-87.5" font-family="sans" font-size="10.00">kmc3</text>
</g>
<!-- 4&#45;&gt;15 -->
<g id="edge36" class="edge">
<title>4&#45;&gt;15</title>
<path fill="none" stroke="grey" stroke-width="2" d="M909.5,-444.32C978.02,-433.61 1114,-400.57 1114,-307 1114,-307 1114,-307 1114,-233 1114,-192.96 1111.59,-146.63 1109.82,-118.07"/>
<polygon fill="grey" stroke="grey" stroke-width="2" points="1113.31,-117.8 1109.19,-108.04 1106.33,-118.24 1113.31,-117.8"/>
</g>
<!-- 21 -->
<g id="node22" class="node">
<title>21</title>
<path fill="none" stroke="#d8b456" stroke-width="2" d="M553.5,-396C553.5,-396 500.5,-396 500.5,-396 494.5,-396 488.5,-390 488.5,-384 488.5,-384 488.5,-372 488.5,-372 488.5,-366 494.5,-360 500.5,-360 500.5,-360 553.5,-360 553.5,-360 559.5,-360 565.5,-366 565.5,-372 565.5,-372 565.5,-384 565.5,-384 565.5,-390 559.5,-396 553.5,-396"/>
<text text-anchor="middle" x="527" y="-375.5" font-family="sans" font-size="10.00">metaspades</text>
</g>
<!-- 4&#45;&gt;21 -->
<g id="edge42" class="edge">
<title>4&#45;&gt;21</title>
<path fill="none" stroke="grey" stroke-width="2" d="M832.23,-443.79C775.78,-435.8 667.9,-418.99 578,-396 577.11,-395.77 576.21,-395.54 575.31,-395.3"/>
<polygon fill="grey" stroke="grey" stroke-width="2" points="576.11,-391.88 565.53,-392.49 574.18,-398.61 576.11,-391.88"/>
</g>
<!-- 26 -->
<g id="node27" class="node">
<title>26</title>
<path fill="none" stroke="#d6d856" stroke-width="2" d="M1074,-252C1074,-252 1040,-252 1040,-252 1034,-252 1028,-246 1028,-240 1028,-240 1028,-228 1028,-228 1028,-222 1034,-216 1040,-216 1040,-216 1074,-216 1074,-216 1080,-216 1086,-222 1086,-228 1086,-228 1086,-240 1086,-240 1086,-246 1080,-252 1074,-252"/>
<text text-anchor="middle" x="1057" y="-231.5" font-family="sans" font-size="10.00">metabat</text>
</g>
<!-- 4&#45;&gt;26 -->
<g id="edge49" class="edge">
<title>4&#45;&gt;26</title>
<path fill="none" stroke="grey" stroke-width="2" d="M909.74,-435.76C954.5,-418.13 1025.99,-382.2 1057,-324 1067.07,-305.1 1066.24,-280.59 1063.36,-262.07"/>
<polygon fill="grey" stroke="grey" stroke-width="2" points="1066.79,-261.42 1061.54,-252.21 1059.91,-262.68 1066.79,-261.42"/>
</g>
<!-- 35 -->
<g id="node36" class="node">
<title>35</title>
<path fill="none" stroke="#56d8b9" stroke-width="2" d="M380,-396C380,-396 350,-396 350,-396 344,-396 338,-390 338,-384 338,-384 338,-372 338,-372 338,-366 344,-360 350,-360 350,-360 380,-360 380,-360 386,-360 392,-366 392,-372 392,-372 392,-384 392,-384 392,-390 386,-396 380,-396"/>
<text text-anchor="middle" x="365" y="-375.5" font-family="sans" font-size="10.00">coverm</text>
</g>
<!-- 4&#45;&gt;35 -->
<g id="edge65" class="edge">
<title>4&#45;&gt;35</title>
<path fill="none" stroke="grey" stroke-width="2" d="M832.41,-448.89C752.64,-447.78 564.16,-440.49 401.83,-395.68"/>
<polygon fill="grey" stroke="grey" stroke-width="2" points="402.73,-392.3 392.16,-392.96 400.83,-399.04 402.73,-392.3"/>
</g>
<!-- 5 -->
<g id="node6" class="node">
<title>5</title>
<path fill="none" stroke="#bed856" stroke-width="2" d="M1023,-540C1023,-540 955,-540 955,-540 949,-540 943,-534 943,-528 943,-528 943,-516 943,-516 943,-510 949,-504 955,-504 955,-504 1023,-504 1023,-504 1029,-504 1035,-510 1035,-516 1035,-516 1035,-528 1035,-528 1035,-534 1029,-540 1023,-540"/>
<text text-anchor="middle" x="989" y="-525" font-family="sans" font-size="10.00">fastp</text>
<text text-anchor="middle" x="989" y="-514" font-family="sans" font-size="10.00">sample: I12282</text>
</g>
<!-- 5&#45;&gt;4 -->
<g id="edge18" class="edge">
<title>5&#45;&gt;4</title>
<path fill="none" stroke="grey" stroke-width="2" d="M960.13,-503.88C944.71,-494.72 925.52,-483.34 908.9,-473.48"/>
<polygon fill="grey" stroke="grey" stroke-width="2" points="910.36,-470.28 899.98,-468.19 906.79,-476.3 910.36,-470.28"/>
</g>
<!-- 5&#45;&gt;6 -->
<g id="edge20" class="edge">
<title>5&#45;&gt;6</title>
<path fill="none" stroke="grey" stroke-width="2" d="M1001.21,-503.76C1007.53,-493.81 1014.61,-480.77 1018,-468 1030.12,-422.36 1027.55,-366.86 1024.4,-334.38"/>
<polygon fill="grey" stroke="grey" stroke-width="2" points="1027.87,-333.87 1023.33,-324.29 1020.91,-334.61 1027.87,-333.87"/>
</g>
<!-- 6&#45;&gt;0 -->
<g id="edge2" class="edge">
<title>6&#45;&gt;0</title>
<path fill="none" stroke="grey" stroke-width="2" d="M1017.77,-287.86C1008.57,-244.04 977.84,-127.51 903,-72 868.32,-46.28 744.76,-29.74 681.66,-22.78"/>
<polygon fill="grey" stroke="grey" stroke-width="2" points="681.66,-19.26 671.35,-21.67 680.91,-26.22 681.66,-19.26"/>
</g>
<!-- 7&#45;&gt;6 -->
<g id="edge21" class="edge">
<title>7&#45;&gt;6</title>
<path fill="none" stroke="grey" stroke-width="2" d="M675.23,-374.53C741.29,-369.96 869.38,-357.62 984.16,-323.75"/>
<polygon fill="grey" stroke="grey" stroke-width="2" points="985.25,-327.08 993.81,-320.85 983.23,-320.38 985.25,-327.08"/>
</g>
<!-- 9 -->
<g id="node10" class="node">
<title>9</title>
<path fill="none" stroke="#61d856" stroke-width="2" d="M834,-252C834,-252 778,-252 778,-252 772,-252 766,-246 766,-240 766,-240 766,-228 766,-228 766,-222 772,-216 778,-216 778,-216 834,-216 834,-216 840,-216 846,-222 846,-228 846,-228 846,-240 846,-240 846,-246 840,-252 834,-252"/>
<text text-anchor="middle" x="806" y="-231.5" font-family="sans" font-size="10.00">kraken_biom</text>
</g>
<!-- 7&#45;&gt;9 -->
<g id="edge27" class="edge">
<title>7&#45;&gt;9</title>
<path fill="none" stroke="grey" stroke-width="2" d="M614.47,-359.82C598.17,-340.76 577.98,-309.82 595,-288 604.99,-275.19 696.85,-255.66 756.03,-244.23"/>
<polygon fill="grey" stroke="grey" stroke-width="2" points="756.79,-247.65 765.95,-242.33 755.47,-240.77 756.79,-247.65"/>
</g>
<!-- 10 -->
<g id="node11" class="node">
<title>10</title>
<path fill="none" stroke="#d86e56" stroke-width="2" d="M786,-324C786,-324 688,-324 688,-324 682,-324 676,-318 676,-312 676,-312 676,-300 676,-300 676,-294 682,-288 688,-288 688,-288 786,-288 786,-288 792,-288 798,-294 798,-300 798,-300 798,-312 798,-312 798,-318 792,-324 786,-324"/>
<text text-anchor="middle" x="737" y="-303.5" font-family="sans" font-size="10.00">bracken_abundancies</text>
</g>
<!-- 7&#45;&gt;10 -->
<g id="edge29" class="edge">
<title>7&#45;&gt;10</title>
<path fill="none" stroke="grey" stroke-width="2" d="M656.93,-359.88C670.66,-350.81 687.71,-339.55 702.54,-329.76"/>
<polygon fill="grey" stroke="grey" stroke-width="2" points="704.55,-332.62 710.97,-324.19 700.7,-326.78 704.55,-332.62"/>
</g>
<!-- 13 -->
<g id="node14" class="node">
<title>13</title>
<path fill="none" stroke="#a7d856" stroke-width="2" d="M646,-324C646,-324 616,-324 616,-324 610,-324 604,-318 604,-312 604,-312 604,-300 604,-300 604,-294 610,-288 616,-288 616,-288 646,-288 646,-288 652,-288 658,-294 658,-300 658,-300 658,-312 658,-312 658,-318 652,-324 646,-324"/>
<text text-anchor="middle" x="631" y="-303.5" font-family="sans" font-size="10.00">krona</text>
</g>
<!-- 7&#45;&gt;13 -->
<g id="edge33" class="edge">
<title>7&#45;&gt;13</title>
<path fill="none" stroke="grey" stroke-width="2" d="M631,-359.7C631,-351.98 631,-342.71 631,-334.11"/>
<polygon fill="grey" stroke="grey" stroke-width="2" points="634.5,-334.1 631,-324.1 627.5,-334.1 634.5,-334.1"/>
</g>
<!-- 8&#45;&gt;6 -->
<g id="edge22" class="edge">
<title>8&#45;&gt;6</title>
<path fill="none" stroke="grey" stroke-width="2" d="M907.73,-359.99C928.08,-350.55 954.03,-338.49 984.67,-324.14"/>
<polygon fill="grey" stroke="grey" stroke-width="2" points="986.31,-327.24 993.88,-319.83 983.34,-320.9 986.31,-327.24"/>
</g>
<!-- 8&#45;&gt;9 -->
<g id="edge28" class="edge">
<title>8&#45;&gt;9</title>
<path fill="none" stroke="grey" stroke-width="2" d="M862.38,-359.9C857.23,-349.56 850.61,-336.09 845,-324 835.38,-303.28 825.03,-279.57 817.4,-261.84"/>
<polygon fill="grey" stroke="grey" stroke-width="2" points="820.41,-259.98 813.26,-252.16 813.98,-262.73 820.41,-259.98"/>
</g>
<!-- 11 -->
<g id="node12" class="node">
<title>11</title>
<path fill="none" stroke="#d86e56" stroke-width="2" d="M964,-324C964,-324 866,-324 866,-324 860,-324 854,-318 854,-312 854,-312 854,-300 854,-300 854,-294 860,-288 866,-288 866,-288 964,-288 964,-288 970,-288 976,-294 976,-300 976,-300 976,-312 976,-312 976,-318 970,-324 964,-324"/>
<text text-anchor="middle" x="915" y="-303.5" font-family="sans" font-size="10.00">bracken_abundancies</text>
</g>
<!-- 8&#45;&gt;11 -->
<g id="edge30" class="edge">
<title>8&#45;&gt;11</title>
<path fill="none" stroke="grey" stroke-width="2" d="M881.88,-359.7C886.99,-351.56 893.2,-341.69 898.84,-332.7"/>
<polygon fill="grey" stroke="grey" stroke-width="2" points="901.89,-334.43 904.25,-324.1 895.96,-330.71 901.89,-334.43"/>
</g>
<!-- 8&#45;&gt;13 -->
<g id="edge34" class="edge">
<title>8&#45;&gt;13</title>
<path fill="none" stroke="grey" stroke-width="2" d="M826.9,-368.05C787.22,-359.44 727.31,-345.07 667.83,-323.98"/>
<polygon fill="grey" stroke="grey" stroke-width="2" points="668.89,-320.64 658.29,-320.53 666.51,-327.22 668.89,-320.64"/>
</g>
<!-- 9&#45;&gt;0 -->
<g id="edge3" class="edge">
<title>9&#45;&gt;0</title>
<path fill="none" stroke="grey" stroke-width="2" d="M828.6,-215.96C839.06,-206.63 850.4,-194.11 856,-180 873.72,-135.39 885.54,-109.83 856,-72 834.72,-44.75 736.29,-29.44 681.35,-22.88"/>
<polygon fill="grey" stroke="grey" stroke-width="2" points="681.63,-19.39 671.3,-21.72 680.83,-26.34 681.63,-19.39"/>
</g>
<!-- 10&#45;&gt;9 -->
<g id="edge25" class="edge">
<title>10&#45;&gt;9</title>
<path fill="none" stroke="grey" stroke-width="2" d="M754.06,-287.7C762.5,-279.14 772.82,-268.66 782.04,-259.3"/>
<polygon fill="grey" stroke="grey" stroke-width="2" points="784.61,-261.68 789.14,-252.1 779.63,-256.77 784.61,-261.68"/>
</g>
<!-- 12 -->
<g id="node13" class="node">
<title>12</title>
<path fill="none" stroke="#56d8d0" stroke-width="2" d="M959.5,-252C959.5,-252 876.5,-252 876.5,-252 870.5,-252 864.5,-246 864.5,-240 864.5,-240 864.5,-228 864.5,-228 864.5,-222 870.5,-216 876.5,-216 876.5,-216 959.5,-216 959.5,-216 965.5,-216 971.5,-222 971.5,-228 971.5,-228 971.5,-240 971.5,-240 971.5,-246 965.5,-252 959.5,-252"/>
<text text-anchor="middle" x="918" y="-231.5" font-family="sans" font-size="10.00">bracken_summary</text>
</g>
<!-- 10&#45;&gt;12 -->
<g id="edge31" class="edge">
<title>10&#45;&gt;12</title>
<path fill="none" stroke="grey" stroke-width="2" d="M781.28,-287.88C806.35,-278.18 837.9,-265.98 864.37,-255.74"/>
<polygon fill="grey" stroke="grey" stroke-width="2" points="865.8,-258.94 873.87,-252.07 863.28,-252.41 865.8,-258.94"/>
</g>
<!-- 11&#45;&gt;9 -->
<g id="edge26" class="edge">
<title>11&#45;&gt;9</title>
<path fill="none" stroke="grey" stroke-width="2" d="M888.34,-287.88C874.22,-278.81 856.69,-267.55 841.44,-257.76"/>
<polygon fill="grey" stroke="grey" stroke-width="2" points="843.07,-254.65 832.77,-252.19 839.29,-260.54 843.07,-254.65"/>
</g>
<!-- 11&#45;&gt;12 -->
<g id="edge32" class="edge">
<title>11&#45;&gt;12</title>
<path fill="none" stroke="grey" stroke-width="2" d="M915.74,-287.7C916.07,-279.98 916.47,-270.71 916.84,-262.11"/>
<polygon fill="grey" stroke="grey" stroke-width="2" points="920.34,-262.25 917.27,-252.1 913.34,-261.95 920.34,-262.25"/>
</g>
<!-- 12&#45;&gt;0 -->
<g id="edge4" class="edge">
<title>12&#45;&gt;0</title>
<path fill="none" stroke="grey" stroke-width="2" d="M919.13,-215.87C920.29,-183.02 917.81,-111 878,-72 850.42,-44.99 740.09,-29.3 681.31,-22.71"/>
<polygon fill="grey" stroke="grey" stroke-width="2" points="681.63,-19.22 671.31,-21.62 680.87,-26.18 681.63,-19.22"/>
</g>
<!-- 13&#45;&gt;0 -->
<g id="edge5" class="edge">
<title>13&#45;&gt;0</title>
<path fill="none" stroke="grey" stroke-width="2" d="M653.68,-287.78C678.5,-269.22 719.72,-239.23 757,-216 785.36,-198.33 805.94,-208.73 823,-180 863.71,-111.43 744.31,-55.64 680.85,-31.67"/>
<polygon fill="grey" stroke="grey" stroke-width="2" points="681.77,-28.28 671.18,-28.1 679.34,-34.84 681.77,-28.28"/>
</g>
<!-- 14&#45;&gt;0 -->
<g id="edge6" class="edge">
<title>14&#45;&gt;0</title>
<path fill="none" stroke="grey" stroke-width="2" d="M54.14,-74.98C57.08,-73.83 60.07,-72.8 63,-72 166.31,-43.84 495.28,-26.04 606.69,-20.7"/>
<polygon fill="grey" stroke="grey" stroke-width="2" points="606.96,-24.19 616.78,-20.22 606.63,-17.2 606.96,-24.19"/>
</g>
<!-- 15&#45;&gt;0 -->
<g id="edge7" class="edge">
<title>15&#45;&gt;0</title>
<path fill="none" stroke="grey" stroke-width="2" d="M1080.97,-78.08C1074.51,-75.79 1067.58,-73.59 1061,-72 923.4,-38.8 754.93,-25.48 681.36,-20.98"/>
<polygon fill="grey" stroke="grey" stroke-width="2" points="681.39,-17.48 671.21,-20.38 680.98,-24.46 681.39,-17.48"/>
</g>
<!-- 16 -->
<g id="node17" class="node">
<title>16</title>
<path fill="none" stroke="#d85656" stroke-width="2" d="M234,-108C234,-108 196,-108 196,-108 190,-108 184,-102 184,-96 184,-96 184,-84 184,-84 184,-78 190,-72 196,-72 196,-72 234,-72 234,-72 240,-72 246,-78 246,-84 246,-84 246,-96 246,-96 246,-102 240,-108 234,-108"/>
<text text-anchor="middle" x="215" y="-87.5" font-family="sans" font-size="10.00">plasclass</text>
</g>
<!-- 16&#45;&gt;0 -->
<g id="edge8" class="edge">
<title>16&#45;&gt;0</title>
<path fill="none" stroke="grey" stroke-width="2" d="M246.18,-76.2C250.76,-74.62 255.47,-73.15 260,-72 384.69,-40.27 537.31,-26.37 606.6,-21.37"/>
<polygon fill="grey" stroke="grey" stroke-width="2" points="606.86,-24.86 616.6,-20.67 606.37,-17.88 606.86,-24.86"/>
</g>
<!-- 17 -->
<g id="node18" class="node">
<title>17</title>
<path fill="none" stroke="#d89c56" stroke-width="2" d="M337,-324C337,-324 263,-324 263,-324 257,-324 251,-318 251,-312 251,-312 251,-300 251,-300 251,-294 257,-288 263,-288 263,-288 337,-288 337,-288 343,-288 349,-294 349,-300 349,-300 349,-312 349,-312 349,-318 343,-324 337,-324"/>
<text text-anchor="middle" x="300" y="-303.5" font-family="sans" font-size="10.00">bbmap_reformat</text>
</g>
<!-- 17&#45;&gt;16 -->
<g id="edge37" class="edge">
<title>17&#45;&gt;16</title>
<path fill="none" stroke="grey" stroke-width="2" d="M254.45,-287.98C238.75,-279.66 222.89,-267.93 214,-252 190.64,-210.16 199.02,-152.15 207.1,-118.4"/>
<polygon fill="grey" stroke="grey" stroke-width="2" points="210.58,-118.9 209.67,-108.34 203.8,-117.16 210.58,-118.9"/>
</g>
<!-- 22 -->
<g id="node23" class="node">
<title>22</title>
<path fill="none" stroke="#56c9d8" stroke-width="2" d="M279.5,-252C279.5,-252 234.5,-252 234.5,-252 228.5,-252 222.5,-246 222.5,-240 222.5,-240 222.5,-228 222.5,-228 222.5,-222 228.5,-216 234.5,-216 234.5,-216 279.5,-216 279.5,-216 285.5,-216 291.5,-222 291.5,-228 291.5,-228 291.5,-240 291.5,-240 291.5,-246 285.5,-252 279.5,-252"/>
<text text-anchor="middle" x="257" y="-231.5" font-family="sans" font-size="10.00">metaquast</text>
</g>
<!-- 17&#45;&gt;22 -->
<g id="edge43" class="edge">
<title>17&#45;&gt;22</title>
<path fill="none" stroke="grey" stroke-width="2" d="M289.37,-287.7C284.37,-279.56 278.31,-269.69 272.79,-260.7"/>
<polygon fill="grey" stroke="grey" stroke-width="2" points="275.72,-258.79 267.51,-252.1 269.76,-262.46 275.72,-258.79"/>
</g>
<!-- 17&#45;&gt;24 -->
<g id="edge47" class="edge">
<title>17&#45;&gt;24</title>
<path fill="none" stroke="grey" stroke-width="2" d="M251.09,-287.97C216.23,-275.83 170.01,-259.73 137.71,-248.48"/>
<polygon fill="grey" stroke="grey" stroke-width="2" points="138.76,-245.14 128.16,-245.16 136.45,-251.75 138.76,-245.14"/>
</g>
<!-- 28 -->
<g id="node29" class="node">
<title>28</title>
<path fill="none" stroke="#8fd856" stroke-width="2" d="M356,-180C356,-180 272,-180 272,-180 266,-180 260,-174 260,-168 260,-168 260,-156 260,-156 260,-150 266,-144 272,-144 272,-144 356,-144 356,-144 362,-144 368,-150 368,-156 368,-156 368,-168 368,-168 368,-174 362,-180 356,-180"/>
<text text-anchor="middle" x="314" y="-159.5" font-family="sans" font-size="10.00">kraken2_assembly</text>
</g>
<!-- 17&#45;&gt;28 -->
<g id="edge56" class="edge">
<title>17&#45;&gt;28</title>
<path fill="none" stroke="grey" stroke-width="2" d="M301.69,-287.87C304.07,-263.67 308.46,-219.21 311.3,-190.39"/>
<polygon fill="grey" stroke="grey" stroke-width="2" points="314.81,-190.48 312.31,-180.19 307.84,-189.8 314.81,-190.48"/>
</g>
<!-- 30 -->
<g id="node31" class="node">
<title>30</title>
<path fill="none" stroke="#78d856" stroke-width="2" d="M468,-252C468,-252 436,-252 436,-252 430,-252 424,-246 424,-240 424,-240 424,-228 424,-228 424,-222 430,-216 436,-216 436,-216 468,-216 468,-216 474,-216 480,-222 480,-228 480,-228 480,-240 480,-240 480,-246 474,-252 468,-252"/>
<text text-anchor="middle" x="452" y="-231.5" font-family="sans" font-size="10.00">abricate</text>
</g>
<!-- 17&#45;&gt;30 -->
<g id="edge58" class="edge">
<title>17&#45;&gt;30</title>
<path fill="none" stroke="grey" stroke-width="2" d="M337.18,-287.88C360.67,-277.06 390.91,-263.13 414.46,-252.29"/>
<polygon fill="grey" stroke="grey" stroke-width="2" points="416.16,-255.36 423.78,-248 413.23,-249 416.16,-255.36"/>
</g>
<!-- 18&#45;&gt;17 -->
<g id="edge38" class="edge">
<title>18&#45;&gt;17</title>
<path fill="none" stroke="grey" stroke-width="2" d="M285.7,-359.7C287.81,-351.9 290.36,-342.51 292.72,-333.83"/>
<polygon fill="grey" stroke="grey" stroke-width="2" points="296.12,-334.67 295.36,-324.1 289.36,-332.84 296.12,-334.67"/>
</g>
<!-- 19 -->
<g id="node20" class="node">
<title>19</title>
<path fill="none" stroke="#d85656" stroke-width="2" d="M802,-180C802,-180 764,-180 764,-180 758,-180 752,-174 752,-168 752,-168 752,-156 752,-156 752,-150 758,-144 764,-144 764,-144 802,-144 802,-144 808,-144 814,-150 814,-156 814,-156 814,-168 814,-168 814,-174 808,-180 802,-180"/>
<text text-anchor="middle" x="783" y="-159.5" font-family="sans" font-size="10.00">plasclass</text>
</g>
<!-- 19&#45;&gt;0 -->
<g id="edge9" class="edge">
<title>19&#45;&gt;0</title>
<path fill="none" stroke="grey" stroke-width="2" d="M766.23,-143.87C741.71,-118.82 695.93,-72.05 667.89,-43.41"/>
<polygon fill="grey" stroke="grey" stroke-width="2" points="670.32,-40.89 660.83,-36.19 665.32,-45.78 670.32,-40.89"/>
</g>
<!-- 20 -->
<g id="node21" class="node">
<title>20</title>
<path fill="none" stroke="#d89c56" stroke-width="2" d="M536,-324C536,-324 462,-324 462,-324 456,-324 450,-318 450,-312 450,-312 450,-300 450,-300 450,-294 456,-288 462,-288 462,-288 536,-288 536,-288 542,-288 548,-294 548,-300 548,-300 548,-312 548,-312 548,-318 542,-324 536,-324"/>
<text text-anchor="middle" x="499" y="-303.5" font-family="sans" font-size="10.00">bbmap_reformat</text>
</g>
<!-- 20&#45;&gt;19 -->
<g id="edge40" class="edge">
<title>20&#45;&gt;19</title>
<path fill="none" stroke="grey" stroke-width="2" d="M533.26,-287.87C585.83,-261.58 686.22,-211.39 742.38,-183.31"/>
<polygon fill="grey" stroke="grey" stroke-width="2" points="744.29,-186.27 751.67,-178.67 741.16,-180.01 744.29,-186.27"/>
</g>
<!-- 20&#45;&gt;22 -->
<g id="edge44" class="edge">
<title>20&#45;&gt;22</title>
<path fill="none" stroke="grey" stroke-width="2" d="M449.74,-290.75C406.24,-278.17 343.38,-259.99 301.4,-247.84"/>
<polygon fill="grey" stroke="grey" stroke-width="2" points="302.31,-244.46 291.73,-245.05 300.36,-251.19 302.31,-244.46"/>
</g>
<!-- 20&#45;&gt;26 -->
<g id="edge50" class="edge">
<title>20&#45;&gt;26</title>
<path fill="none" stroke="grey" stroke-width="2" d="M548.21,-295.48C563.19,-292.8 579.74,-290.06 595,-288 765.75,-264.96 810.81,-278.86 981,-252 993.09,-250.09 1006.12,-247.41 1017.93,-244.74"/>
<polygon fill="grey" stroke="grey" stroke-width="2" points="1018.99,-248.09 1027.93,-242.41 1017.4,-241.27 1018.99,-248.09"/>
</g>
<!-- 29 -->
<g id="node30" class="node">
<title>29</title>
<path fill="none" stroke="#8fd856" stroke-width="2" d="M722,-180C722,-180 638,-180 638,-180 632,-180 626,-174 626,-168 626,-168 626,-156 626,-156 626,-150 632,-144 638,-144 638,-144 722,-144 722,-144 728,-144 734,-150 734,-156 734,-156 734,-168 734,-168 734,-174 728,-180 722,-180"/>
<text text-anchor="middle" x="680" y="-159.5" font-family="sans" font-size="10.00">kraken2_assembly</text>
</g>
<!-- 20&#45;&gt;29 -->
<g id="edge57" class="edge">
<title>20&#45;&gt;29</title>
<path fill="none" stroke="grey" stroke-width="2" d="M520.83,-287.87C553.04,-262.6 613.39,-215.25 649.82,-186.68"/>
<polygon fill="grey" stroke="grey" stroke-width="2" points="652.38,-189.12 658.09,-180.19 648.06,-183.61 652.38,-189.12"/>
</g>
<!-- 31 -->
<g id="node32" class="node">
<title>31</title>
<path fill="none" stroke="#78d856" stroke-width="2" d="M542,-252C542,-252 510,-252 510,-252 504,-252 498,-246 498,-240 498,-240 498,-228 498,-228 498,-222 504,-216 510,-216 510,-216 542,-216 542,-216 548,-216 554,-222 554,-228 554,-228 554,-240 554,-240 554,-246 548,-252 542,-252"/>
<text text-anchor="middle" x="526" y="-231.5" font-family="sans" font-size="10.00">abricate</text>
</g>
<!-- 20&#45;&gt;31 -->
<g id="edge59" class="edge">
<title>20&#45;&gt;31</title>
<path fill="none" stroke="grey" stroke-width="2" d="M505.67,-287.7C508.71,-279.81 512.38,-270.3 515.76,-261.55"/>
<polygon fill="grey" stroke="grey" stroke-width="2" points="519.07,-262.69 519.4,-252.1 512.54,-260.17 519.07,-262.69"/>
</g>
<!-- 21&#45;&gt;20 -->
<g id="edge41" class="edge">
<title>21&#45;&gt;20</title>
<path fill="none" stroke="grey" stroke-width="2" d="M520.08,-359.7C516.93,-351.81 513.12,-342.3 509.62,-333.55"/>
<polygon fill="grey" stroke="grey" stroke-width="2" points="512.81,-332.09 505.84,-324.1 506.31,-334.69 512.81,-332.09"/>
</g>
<!-- 22&#45;&gt;0 -->
<g id="edge10" class="edge">
<title>22&#45;&gt;0</title>
<path fill="none" stroke="grey" stroke-width="2" d="M250.44,-215.94C244.32,-196.98 237.91,-166.13 251,-144 284.82,-86.82 319.62,-94.85 382,-72 459.26,-43.71 555.16,-29.18 606.83,-22.93"/>
<polygon fill="grey" stroke="grey" stroke-width="2" points="607.34,-26.39 616.86,-21.75 606.52,-19.44 607.34,-26.39"/>
</g>
<!-- 23 -->
<g id="node24" class="node">
<title>23</title>
<path fill="none" stroke="#d88556" stroke-width="2" d="M115.5,-108C115.5,-108 84.5,-108 84.5,-108 78.5,-108 72.5,-102 72.5,-96 72.5,-96 72.5,-84 72.5,-84 72.5,-78 78.5,-72 84.5,-72 84.5,-72 115.5,-72 115.5,-72 121.5,-72 127.5,-78 127.5,-84 127.5,-84 127.5,-96 127.5,-96 127.5,-102 121.5,-108 115.5,-108"/>
<text text-anchor="middle" x="100" y="-87.5" font-family="sans" font-size="10.00">checkm</text>
</g>
<!-- 23&#45;&gt;0 -->
<g id="edge11" class="edge">
<title>23&#45;&gt;0</title>
<path fill="none" stroke="grey" stroke-width="2" d="M127.65,-76.55C132.37,-74.79 137.27,-73.18 142,-72 312,-29.51 522.68,-21.06 606.79,-19.4"/>
<polygon fill="grey" stroke="grey" stroke-width="2" points="606.94,-22.9 616.87,-19.22 606.81,-15.9 606.94,-22.9"/>
</g>
<!-- 24&#45;&gt;23 -->
<g id="edge45" class="edge">
<title>24&#45;&gt;23</title>
<path fill="none" stroke="grey" stroke-width="2" d="M99.12,-215.87C99.29,-191.67 99.6,-147.21 99.81,-118.39"/>
<polygon fill="grey" stroke="grey" stroke-width="2" points="103.31,-118.21 99.88,-108.19 96.31,-118.16 103.31,-118.21"/>
</g>
<!-- 25 -->
<g id="node26" class="node">
<title>25</title>
<path fill="none" stroke="#d88556" stroke-width="2" d="M1071.5,-180C1071.5,-180 1040.5,-180 1040.5,-180 1034.5,-180 1028.5,-174 1028.5,-168 1028.5,-168 1028.5,-156 1028.5,-156 1028.5,-150 1034.5,-144 1040.5,-144 1040.5,-144 1071.5,-144 1071.5,-144 1077.5,-144 1083.5,-150 1083.5,-156 1083.5,-156 1083.5,-168 1083.5,-168 1083.5,-174 1077.5,-180 1071.5,-180"/>
<text text-anchor="middle" x="1056" y="-159.5" font-family="sans" font-size="10.00">checkm</text>
</g>
<!-- 25&#45;&gt;0 -->
<g id="edge12" class="edge">
<title>25&#45;&gt;0</title>
<path fill="none" stroke="grey" stroke-width="2" d="M1052.96,-143.82C1048.35,-123.24 1037.5,-89.36 1014,-72 961.62,-33.32 764.02,-22.72 681.04,-19.94"/>
<polygon fill="grey" stroke="grey" stroke-width="2" points="681.15,-16.44 671.05,-19.62 680.93,-23.44 681.15,-16.44"/>
</g>
<!-- 26&#45;&gt;25 -->
<g id="edge48" class="edge">
<title>26&#45;&gt;25</title>
<path fill="none" stroke="grey" stroke-width="2" d="M1056.75,-215.7C1056.64,-207.98 1056.51,-198.71 1056.39,-190.11"/>
<polygon fill="grey" stroke="grey" stroke-width="2" points="1059.89,-190.05 1056.24,-180.1 1052.89,-190.15 1059.89,-190.05"/>
</g>
<!-- 27 -->
<g id="node28" class="node">
<title>27</title>
<path fill="none" stroke="#56d863" stroke-width="2" d="M597,-108C597,-108 517,-108 517,-108 511,-108 505,-102 505,-96 505,-96 505,-84 505,-84 505,-78 511,-72 517,-72 517,-72 597,-72 597,-72 603,-72 609,-78 609,-84 609,-84 609,-96 609,-96 609,-102 603,-108 597,-108"/>
<text text-anchor="middle" x="557" y="-87.5" font-family="sans" font-size="10.00">abricate_taxcaller</text>
</g>
<!-- 27&#45;&gt;0 -->
<g id="edge13" class="edge">
<title>27&#45;&gt;0</title>
<path fill="none" stroke="grey" stroke-width="2" d="M578.51,-71.7C589.46,-62.88 602.95,-52.03 614.82,-42.47"/>
<polygon fill="grey" stroke="grey" stroke-width="2" points="617.14,-45.1 622.74,-36.1 612.76,-39.65 617.14,-45.1"/>
</g>
<!-- 28&#45;&gt;27 -->
<g id="edge51" class="edge">
<title>28&#45;&gt;27</title>
<path fill="none" stroke="grey" stroke-width="2" d="M368.23,-145.38C405.76,-134.57 455.78,-120.16 494.9,-108.89"/>
<polygon fill="grey" stroke="grey" stroke-width="2" points="495.96,-112.23 504.6,-106.09 494.02,-105.5 495.96,-112.23"/>
</g>
<!-- 29&#45;&gt;27 -->
<g id="edge52" class="edge">
<title>29&#45;&gt;27</title>
<path fill="none" stroke="grey" stroke-width="2" d="M649.91,-143.88C633.68,-134.64 613.46,-123.13 596.03,-113.21"/>
<polygon fill="grey" stroke="grey" stroke-width="2" points="597.63,-110.09 587.2,-108.19 594.16,-116.18 597.63,-110.09"/>
</g>
<!-- 30&#45;&gt;27 -->
<g id="edge53" class="edge">
<title>30&#45;&gt;27</title>
<path fill="none" stroke="grey" stroke-width="2" d="M447.27,-215.82C443.07,-196.75 439.48,-165.8 453,-144 462.78,-128.24 478.87,-116.97 495.5,-109"/>
<polygon fill="grey" stroke="grey" stroke-width="2" points="497.03,-112.15 504.75,-104.9 494.19,-105.75 497.03,-112.15"/>
</g>
<!-- 32 -->
<g id="node33" class="node">
<title>32</title>
<path fill="none" stroke="#566bd8" stroke-width="2" d="M558,-180C558,-180 474,-180 474,-180 468,-180 462,-174 462,-168 462,-168 462,-156 462,-156 462,-150 468,-144 474,-144 474,-144 558,-144 558,-144 564,-144 570,-150 570,-156 570,-156 570,-168 570,-168 570,-174 564,-180 558,-180"/>
<text text-anchor="middle" x="516" y="-159.5" font-family="sans" font-size="10.00">abricate_summary</text>
</g>
<!-- 30&#45;&gt;32 -->
<g id="edge60" class="edge">
<title>30&#45;&gt;32</title>
<path fill="none" stroke="grey" stroke-width="2" d="M467.82,-215.7C475.57,-207.22 485.04,-196.86 493.52,-187.58"/>
<polygon fill="grey" stroke="grey" stroke-width="2" points="496.2,-189.85 500.36,-180.1 491.03,-185.12 496.2,-189.85"/>
</g>
<!-- 31&#45;&gt;27 -->
<g id="edge54" class="edge">
<title>31&#45;&gt;27</title>
<path fill="none" stroke="grey" stroke-width="2" d="M550.48,-215.77C561.4,-206.56 573.12,-194.19 579,-180 587.38,-159.78 580.4,-135.6 572.16,-117.55"/>
<polygon fill="grey" stroke="grey" stroke-width="2" points="575.11,-115.62 567.53,-108.21 568.84,-118.73 575.11,-115.62"/>
</g>
<!-- 31&#45;&gt;32 -->
<g id="edge61" class="edge">
<title>31&#45;&gt;32</title>
<path fill="none" stroke="grey" stroke-width="2" d="M523.53,-215.7C522.43,-207.98 521.1,-198.71 519.87,-190.11"/>
<polygon fill="grey" stroke="grey" stroke-width="2" points="523.32,-189.51 518.44,-180.1 516.39,-190.5 523.32,-189.51"/>
</g>
<!-- 32&#45;&gt;27 -->
<g id="edge55" class="edge">
<title>32&#45;&gt;27</title>
<path fill="none" stroke="grey" stroke-width="2" d="M526.13,-143.7C530.85,-135.64 536.56,-125.89 541.78,-116.98"/>
<polygon fill="grey" stroke="grey" stroke-width="2" points="544.95,-118.5 546.98,-108.1 538.91,-114.96 544.95,-118.5"/>
</g>
<!-- 33 -->
<g id="node34" class="node">
<title>33</title>
<path fill="none" stroke="#569ad8" stroke-width="2" d="M220.5,-324C220.5,-324 139.5,-324 139.5,-324 133.5,-324 127.5,-318 127.5,-312 127.5,-312 127.5,-300 127.5,-300 127.5,-294 133.5,-288 139.5,-288 139.5,-288 220.5,-288 220.5,-288 226.5,-288 232.5,-294 232.5,-300 232.5,-300 232.5,-312 232.5,-312 232.5,-318 226.5,-324 220.5,-324"/>
<text text-anchor="middle" x="180" y="-303.5" font-family="sans" font-size="10.00">coverm_summary</text>
</g>
<!-- 33&#45;&gt;0 -->
<g id="edge14" class="edge">
<title>33&#45;&gt;0</title>
<path fill="none" stroke="grey" stroke-width="2" d="M172.78,-288C156.01,-245.51 119.88,-133.71 175,-72 203.63,-39.95 500.32,-24.84 606.48,-20.42"/>
<polygon fill="grey" stroke="grey" stroke-width="2" points="606.87,-23.91 616.72,-20.01 606.59,-16.92 606.87,-23.91"/>
</g>
<!-- 34&#45;&gt;33 -->
<g id="edge62" class="edge">
<title>34&#45;&gt;33</title>
<path fill="none" stroke="grey" stroke-width="2" d="M183.01,-359.7C182.57,-351.98 182.04,-342.71 181.55,-334.11"/>
<polygon fill="grey" stroke="grey" stroke-width="2" points="185.04,-333.89 180.98,-324.1 178.05,-334.29 185.04,-333.89"/>
</g>
<!-- 35&#45;&gt;33 -->
<g id="edge63" class="edge">
<title>35&#45;&gt;33</title>
<path fill="none" stroke="grey" stroke-width="2" d="M337.61,-363.72C334.72,-362.42 331.81,-361.16 329,-360 300.63,-348.29 268.63,-336.7 241.58,-327.36"/>
<polygon fill="grey" stroke="grey" stroke-width="2" points="242.45,-323.96 231.85,-324.03 240.18,-330.58 242.45,-323.96"/>
</g>
</g>
</svg>
