<?xml version="1.0" encoding="UTF-8" standalone="no"?>
<!DOCTYPE svg PUBLIC "-//W3C//DTD SVG 1.1//EN"
 "http://www.w3.org/Graphics/SVG/1.1/DTD/svg11.dtd">
<!-- Generated by graphviz version 2.49.0 (20210829.0051)
 -->
<!-- Title: snakemake_dag Pages: 1 -->
<svg width="1132pt" height="548pt"
 viewBox="0.00 0.00 1132.00 548.00" xmlns="http://www.w3.org/2000/svg" xmlns:xlink="http://www.w3.org/1999/xlink">
<g id="graph0" class="graph" transform="scale(1 1) rotate(0) translate(4 544)">
<title>snakemake_dag</title>
<polygon fill="white" stroke="transparent" points="-4,4 -4,-544 1128,-544 1128,4 -4,4"/>
<!-- 0 -->
<g id="node1" class="node">
<title>0</title>
<path fill="none" stroke="#d85656" stroke-width="2" d="M643,-36C643,-36 613,-36 613,-36 607,-36 601,-30 601,-24 601,-24 601,-12 601,-12 601,-6 607,0 613,0 613,0 643,0 643,0 649,0 655,-6 655,-12 655,-12 655,-24 655,-24 655,-30 649,-36 643,-36"/>
<text text-anchor="middle" x="628" y="-15.5" font-family="sans" font-size="10.00">all</text>
</g>
<!-- 1 -->
<g id="node2" class="node">
<title>1</title>
<path fill="none" stroke="#56d882" stroke-width="2" stroke-dasharray="5,2" d="M426,-396C426,-396 396,-396 396,-396 390,-396 384,-390 384,-384 384,-384 384,-372 384,-372 384,-366 390,-360 396,-360 396,-360 426,-360 426,-360 432,-360 438,-366 438,-372 438,-372 438,-384 438,-384 438,-390 432,-396 426,-396"/>
<text text-anchor="middle" x="411" y="-375.5" font-family="sans" font-size="10.00">seqfu</text>
</g>
<!-- 1&#45;&gt;0 -->
<g id="edge1" class="edge">
<title>1&#45;&gt;0</title>
<path fill="none" stroke="grey" stroke-width="2" d="M404.73,-359.78C395.67,-333.32 380,-280.92 380,-235 380,-235 380,-235 380,-161 380,-64.97 521.78,-32.97 590.94,-23.08"/>
<polygon fill="grey" stroke="grey" stroke-width="2" points="591.54,-26.53 600.99,-21.73 590.61,-19.6 591.54,-26.53"/>
</g>
<!-- 2 -->
<g id="node3" class="node">
<title>2</title>
<path fill="none" stroke="#56d8b1" stroke-width="2" stroke-dasharray="5,2" d="M281.5,-468C281.5,-468 228.5,-468 228.5,-468 222.5,-468 216.5,-462 216.5,-456 216.5,-456 216.5,-444 216.5,-444 216.5,-438 222.5,-432 228.5,-432 228.5,-432 281.5,-432 281.5,-432 287.5,-432 293.5,-438 293.5,-444 293.5,-444 293.5,-456 293.5,-456 293.5,-462 287.5,-468 281.5,-468"/>
<text text-anchor="middle" x="255" y="-447.5" font-family="sans" font-size="10.00">bbmap_split</text>
</g>
<!-- 2&#45;&gt;1 -->
<g id="edge15" class="edge">
<title>2&#45;&gt;1</title>
<path fill="none" stroke="grey" stroke-width="2" d="M293.75,-432.18C315.29,-422.77 342.75,-410.65 374.76,-396.06"/>
<polygon fill="grey" stroke="grey" stroke-width="2" points="376.27,-399.22 383.91,-391.88 373.36,-392.86 376.27,-399.22"/>
</g>
<!-- 7 -->
<g id="node8" class="node">
<title>7</title>
<path fill="none" stroke="#d86e56" stroke-width="2" stroke-dasharray="5,2" d="M647,-396C647,-396 583,-396 583,-396 577,-396 571,-390 571,-384 571,-384 571,-372 571,-372 571,-366 577,-360 583,-360 583,-360 647,-360 647,-360 653,-360 659,-366 659,-372 659,-372 659,-384 659,-384 659,-390 653,-396 647,-396"/>
<text text-anchor="middle" x="615" y="-375.5" font-family="sans" font-size="10.00">kraken2_reads</text>
</g>
<!-- 2&#45;&gt;7 -->
<g id="edge23" class="edge">
<title>2&#45;&gt;7</title>
<path fill="none" stroke="grey" stroke-width="2" d="M293.71,-442.96C350.1,-433.94 458.05,-415.88 549,-396 552.86,-395.16 556.83,-394.25 560.82,-393.3"/>
<polygon fill="grey" stroke="grey" stroke-width="2" points="561.84,-396.65 570.73,-390.88 560.19,-389.85 561.84,-396.65"/>
</g>
<!-- 14 -->
<g id="node15" class="node">
<title>14</title>
<path fill="none" stroke="#b6d856" stroke-width="2" d="M42,-108C42,-108 12,-108 12,-108 6,-108 0,-102 0,-96 0,-96 0,-84 0,-84 0,-78 6,-72 12,-72 12,-72 42,-72 42,-72 48,-72 54,-78 54,-84 54,-84 54,-96 54,-96 54,-102 48,-108 42,-108"/>
<text text-anchor="middle" x="27" y="-87.5" font-family="sans" font-size="10.00">kmc3</text>
</g>
<!-- 2&#45;&gt;14 -->
<g id="edge35" class="edge">
<title>2&#45;&gt;14</title>
<path fill="none" stroke="grey" stroke-width="2" d="M216.41,-443.13C151.15,-430.77 26,-395.53 26,-307 26,-307 26,-307 26,-233 26,-193 26.4,-146.65 26.7,-118.08"/>
<polygon fill="grey" stroke="grey" stroke-width="2" points="30.2,-118.09 26.8,-108.05 23.2,-118.01 30.2,-118.09"/>
</g>
<!-- 18 -->
<g id="node19" class="node">
<title>18</title>
<path fill="none" stroke="#56b1d8" stroke-width="2" stroke-dasharray="5,2" d="M281.5,-396C281.5,-396 228.5,-396 228.5,-396 222.5,-396 216.5,-390 216.5,-384 216.5,-384 216.5,-372 216.5,-372 216.5,-366 222.5,-360 228.5,-360 228.5,-360 281.5,-360 281.5,-360 287.5,-360 293.5,-366 293.5,-372 293.5,-372 293.5,-384 293.5,-384 293.5,-390 287.5,-396 281.5,-396"/>
<text text-anchor="middle" x="255" y="-375.5" font-family="sans" font-size="10.00">metaspades</text>
</g>
<!-- 2&#45;&gt;18 -->
<g id="edge39" class="edge">
<title>2&#45;&gt;18</title>
<path fill="none" stroke="grey" stroke-width="2" d="M255,-431.7C255,-423.98 255,-414.71 255,-406.11"/>
<polygon fill="grey" stroke="grey" stroke-width="2" points="258.5,-406.1 255,-396.1 251.5,-406.1 258.5,-406.1"/>
</g>
<!-- 23 -->
<g id="node24" class="node">
<title>23</title>
<path fill="none" stroke="#56d8c9" stroke-width="2" d="M100,-252C100,-252 66,-252 66,-252 60,-252 54,-246 54,-240 54,-240 54,-228 54,-228 54,-222 60,-216 66,-216 66,-216 100,-216 100,-216 106,-216 112,-222 112,-228 112,-228 112,-240 112,-240 112,-246 106,-252 100,-252"/>
<text text-anchor="middle" x="83" y="-231.5" font-family="sans" font-size="10.00">metabat</text>
</g>
<!-- 2&#45;&gt;23 -->
<g id="edge45" class="edge">
<title>2&#45;&gt;23</title>
<path fill="none" stroke="grey" stroke-width="2" d="M216.39,-440.8C189.37,-433.27 154.1,-419.59 131,-396 95.31,-359.55 85.98,-297.75 83.65,-262.26"/>
<polygon fill="grey" stroke="grey" stroke-width="2" points="87.14,-261.95 83.13,-252.14 80.15,-262.31 87.14,-261.95"/>
</g>
<!-- 32 -->
<g id="node33" class="node">
<title>32</title>
<path fill="none" stroke="#d8cb56" stroke-width="2" stroke-dasharray="5,2" d="M182,-396C182,-396 152,-396 152,-396 146,-396 140,-390 140,-384 140,-384 140,-372 140,-372 140,-366 146,-360 152,-360 152,-360 182,-360 182,-360 188,-360 194,-366 194,-372 194,-372 194,-384 194,-384 194,-390 188,-396 182,-396"/>
<text text-anchor="middle" x="167" y="-375.5" font-family="sans" font-size="10.00">coverm</text>
</g>
<!-- 2&#45;&gt;32 -->
<g id="edge62" class="edge">
<title>2&#45;&gt;32</title>
<path fill="none" stroke="grey" stroke-width="2" d="M233.25,-431.7C222.16,-422.88 208.53,-412.03 196.51,-402.47"/>
<polygon fill="grey" stroke="grey" stroke-width="2" points="198.51,-399.59 188.5,-396.1 194.15,-405.07 198.51,-399.59"/>
</g>
<!-- 3 -->
<g id="node4" class="node">
<title>3</title>
<path fill="none" stroke="#5682d8" stroke-width="2" stroke-dasharray="5,2" d="M715,-540C715,-540 647,-540 647,-540 641,-540 635,-534 635,-528 635,-528 635,-516 635,-516 635,-510 641,-504 647,-504 647,-504 715,-504 715,-504 721,-504 727,-510 727,-516 727,-516 727,-528 727,-528 727,-534 721,-540 715,-540"/>
<text text-anchor="middle" x="681" y="-525" font-family="sans" font-size="10.00">fastp</text>
<text text-anchor="middle" x="681" y="-514" font-family="sans" font-size="10.00">sample: I12281</text>
</g>
<!-- 3&#45;&gt;2 -->
<g id="edge17" class="edge">
<title>3&#45;&gt;2</title>
<path fill="none" stroke="grey" stroke-width="2" d="M634.6,-513.38C553.35,-500.02 386.11,-472.54 303.44,-458.96"/>
<polygon fill="grey" stroke="grey" stroke-width="2" points="303.99,-455.5 293.55,-457.33 302.85,-462.41 303.99,-455.5"/>
</g>
<!-- 6 -->
<g id="node7" class="node">
<title>6</title>
<path fill="none" stroke="#569ad8" stroke-width="2" stroke-dasharray="5,2" d="M1020,-324C1020,-324 990,-324 990,-324 984,-324 978,-318 978,-312 978,-312 978,-300 978,-300 978,-294 984,-288 990,-288 990,-288 1020,-288 1020,-288 1026,-288 1032,-294 1032,-300 1032,-300 1032,-312 1032,-312 1032,-318 1026,-324 1020,-324"/>
<text text-anchor="middle" x="1005" y="-303.5" font-family="sans" font-size="10.00">multiqc</text>
</g>
<!-- 3&#45;&gt;6 -->
<g id="edge19" class="edge">
<title>3&#45;&gt;6</title>
<path fill="none" stroke="grey" stroke-width="2" d="M727.29,-518.26C772.08,-513.65 840.18,-501.25 889,-468 939.49,-433.61 975.69,-369.61 993.17,-333.53"/>
<polygon fill="grey" stroke="grey" stroke-width="2" points="996.5,-334.67 997.6,-324.14 990.17,-331.69 996.5,-334.67"/>
</g>
<!-- 4 -->
<g id="node5" class="node">
<title>4</title>
<path fill="none" stroke="#56d8b1" stroke-width="2" stroke-dasharray="5,2" d="M867.5,-468C867.5,-468 814.5,-468 814.5,-468 808.5,-468 802.5,-462 802.5,-456 802.5,-456 802.5,-444 802.5,-444 802.5,-438 808.5,-432 814.5,-432 814.5,-432 867.5,-432 867.5,-432 873.5,-432 879.5,-438 879.5,-444 879.5,-444 879.5,-456 879.5,-456 879.5,-462 873.5,-468 867.5,-468"/>
<text text-anchor="middle" x="841" y="-447.5" font-family="sans" font-size="10.00">bbmap_split</text>
</g>
<!-- 4&#45;&gt;1 -->
<g id="edge16" class="edge">
<title>4&#45;&gt;1</title>
<path fill="none" stroke="grey" stroke-width="2" d="M802.23,-446.78C731.85,-442.07 578.8,-428.71 454,-396 452.08,-395.5 450.13,-394.93 448.17,-394.32"/>
<polygon fill="grey" stroke="grey" stroke-width="2" points="449.02,-390.91 438.43,-390.97 446.75,-397.53 449.02,-390.91"/>
</g>
<!-- 8 -->
<g id="node9" class="node">
<title>8</title>
<path fill="none" stroke="#d86e56" stroke-width="2" stroke-dasharray="5,2" d="M873,-396C873,-396 809,-396 809,-396 803,-396 797,-390 797,-384 797,-384 797,-372 797,-372 797,-366 803,-360 809,-360 809,-360 873,-360 873,-360 879,-360 885,-366 885,-372 885,-372 885,-384 885,-384 885,-390 879,-396 873,-396"/>
<text text-anchor="middle" x="841" y="-375.5" font-family="sans" font-size="10.00">kraken2_reads</text>
</g>
<!-- 4&#45;&gt;8 -->
<g id="edge24" class="edge">
<title>4&#45;&gt;8</title>
<path fill="none" stroke="grey" stroke-width="2" d="M841,-431.7C841,-423.98 841,-414.71 841,-406.11"/>
<polygon fill="grey" stroke="grey" stroke-width="2" points="844.5,-406.1 841,-396.1 837.5,-406.1 844.5,-406.1"/>
</g>
<!-- 15 -->
<g id="node16" class="node">
<title>15</title>
<path fill="none" stroke="#b6d856" stroke-width="2" d="M1112,-180C1112,-180 1082,-180 1082,-180 1076,-180 1070,-174 1070,-168 1070,-168 1070,-156 1070,-156 1070,-150 1076,-144 1082,-144 1082,-144 1112,-144 1112,-144 1118,-144 1124,-150 1124,-156 1124,-156 1124,-168 1124,-168 1124,-174 1118,-180 1112,-180"/>
<text text-anchor="middle" x="1097" y="-159.5" font-family="sans" font-size="10.00">kmc3</text>
</g>
<!-- 4&#45;&gt;15 -->
<g id="edge36" class="edge">
<title>4&#45;&gt;15</title>
<path fill="none" stroke="grey" stroke-width="2" d="M879.81,-443.34C915.09,-436.69 967.25,-422.95 1005,-396 1072.93,-347.51 1090.72,-240.77 1095.36,-190.37"/>
<polygon fill="grey" stroke="grey" stroke-width="2" points="1098.86,-190.49 1096.19,-180.24 1091.89,-189.92 1098.86,-190.49"/>
</g>
<!-- 21 -->
<g id="node22" class="node">
<title>21</title>
<path fill="none" stroke="#56b1d8" stroke-width="2" stroke-dasharray="5,2" d="M527.5,-396C527.5,-396 474.5,-396 474.5,-396 468.5,-396 462.5,-390 462.5,-384 462.5,-384 462.5,-372 462.5,-372 462.5,-366 468.5,-360 474.5,-360 474.5,-360 527.5,-360 527.5,-360 533.5,-360 539.5,-366 539.5,-372 539.5,-372 539.5,-384 539.5,-384 539.5,-390 533.5,-396 527.5,-396"/>
<text text-anchor="middle" x="501" y="-375.5" font-family="sans" font-size="10.00">metaspades</text>
</g>
<!-- 4&#45;&gt;21 -->
<g id="edge42" class="edge">
<title>4&#45;&gt;21</title>
<path fill="none" stroke="grey" stroke-width="2" d="M802.42,-442.73C748.39,-433.7 647.21,-415.93 562,-396 557.91,-395.04 553.67,-393.99 549.43,-392.9"/>
<polygon fill="grey" stroke="grey" stroke-width="2" points="550.16,-389.47 539.6,-390.28 548.36,-396.23 550.16,-389.47"/>
</g>
<!-- 24 -->
<g id="node25" class="node">
<title>24</title>
<path fill="none" stroke="#56d8c9" stroke-width="2" d="M1058,-252C1058,-252 1024,-252 1024,-252 1018,-252 1012,-246 1012,-240 1012,-240 1012,-228 1012,-228 1012,-222 1018,-216 1024,-216 1024,-216 1058,-216 1058,-216 1064,-216 1070,-222 1070,-228 1070,-228 1070,-240 1070,-240 1070,-246 1064,-252 1058,-252"/>
<text text-anchor="middle" x="1041" y="-231.5" font-family="sans" font-size="10.00">metabat</text>
</g>
<!-- 4&#45;&gt;24 -->
<g id="edge47" class="edge">
<title>4&#45;&gt;24</title>
<path fill="none" stroke="grey" stroke-width="2" d="M879.61,-437.64C927.4,-421.26 1006.66,-385.96 1041,-324 1051.38,-305.27 1050.52,-280.74 1047.55,-262.18"/>
<polygon fill="grey" stroke="grey" stroke-width="2" points="1050.98,-261.47 1045.69,-252.29 1044.1,-262.77 1050.98,-261.47"/>
</g>
<!-- 33 -->
<g id="node34" class="node">
<title>33</title>
<path fill="none" stroke="#d8cb56" stroke-width="2" stroke-dasharray="5,2" d="M354,-396C354,-396 324,-396 324,-396 318,-396 312,-390 312,-384 312,-384 312,-372 312,-372 312,-366 318,-360 324,-360 324,-360 354,-360 354,-360 360,-360 366,-366 366,-372 366,-372 366,-384 366,-384 366,-390 360,-396 354,-396"/>
<text text-anchor="middle" x="339" y="-375.5" font-family="sans" font-size="10.00">coverm</text>
</g>
<!-- 4&#45;&gt;33 -->
<g id="edge63" class="edge">
<title>4&#45;&gt;33</title>
<path fill="none" stroke="grey" stroke-width="2" d="M802.43,-448.84C723.24,-447.63 536.93,-440.16 376.22,-395.79"/>
<polygon fill="grey" stroke="grey" stroke-width="2" points="376.73,-392.3 366.16,-392.95 374.83,-399.04 376.73,-392.3"/>
</g>
<!-- 5 -->
<g id="node6" class="node">
<title>5</title>
<path fill="none" stroke="#5682d8" stroke-width="2" stroke-dasharray="5,2" d="M1038,-540C1038,-540 970,-540 970,-540 964,-540 958,-534 958,-528 958,-528 958,-516 958,-516 958,-510 964,-504 970,-504 970,-504 1038,-504 1038,-504 1044,-504 1050,-510 1050,-516 1050,-516 1050,-528 1050,-528 1050,-534 1044,-540 1038,-540"/>
<text text-anchor="middle" x="1004" y="-525" font-family="sans" font-size="10.00">fastp</text>
<text text-anchor="middle" x="1004" y="-514" font-family="sans" font-size="10.00">sample: I12282</text>
</g>
<!-- 5&#45;&gt;4 -->
<g id="edge18" class="edge">
<title>5&#45;&gt;4</title>
<path fill="none" stroke="grey" stroke-width="2" d="M964.13,-503.88C941.41,-494.12 912.8,-481.83 888.87,-471.56"/>
<polygon fill="grey" stroke="grey" stroke-width="2" points="890.19,-468.32 879.62,-467.59 887.43,-474.75 890.19,-468.32"/>
</g>
<!-- 5&#45;&gt;6 -->
<g id="edge20" class="edge">
<title>5&#45;&gt;6</title>
<path fill="none" stroke="grey" stroke-width="2" d="M1004.08,-503.85C1004.25,-466.83 1004.66,-379.18 1004.87,-334.39"/>
<polygon fill="grey" stroke="grey" stroke-width="2" points="1008.37,-334.25 1004.92,-324.23 1001.37,-334.22 1008.37,-334.25"/>
</g>
<!-- 6&#45;&gt;0 -->
<g id="edge2" class="edge">
<title>6&#45;&gt;0</title>
<path fill="none" stroke="grey" stroke-width="2" d="M1001.77,-287.86C992.57,-244.04 961.84,-127.51 887,-72 852.32,-46.28 728.76,-29.74 665.66,-22.78"/>
<polygon fill="grey" stroke="grey" stroke-width="2" points="665.66,-19.26 655.35,-21.67 664.91,-26.22 665.66,-19.26"/>
</g>
<!-- 7&#45;&gt;6 -->
<g id="edge21" class="edge">
<title>7&#45;&gt;6</title>
<path fill="none" stroke="grey" stroke-width="2" d="M659.29,-372.01C737.06,-362.98 896.01,-343.32 967.86,-323.74"/>
<polygon fill="grey" stroke="grey" stroke-width="2" points="969.18,-327 977.81,-320.85 967.23,-320.27 969.18,-327"/>
</g>
<!-- 9 -->
<g id="node10" class="node">
<title>9</title>
<path fill="none" stroke="#56d89a" stroke-width="2" stroke-dasharray="5,2" d="M818,-252C818,-252 762,-252 762,-252 756,-252 750,-246 750,-240 750,-240 750,-228 750,-228 750,-222 756,-216 762,-216 762,-216 818,-216 818,-216 824,-216 830,-222 830,-228 830,-228 830,-240 830,-240 830,-246 824,-252 818,-252"/>
<text text-anchor="middle" x="790" y="-231.5" font-family="sans" font-size="10.00">kraken_biom</text>
</g>
<!-- 7&#45;&gt;9 -->
<g id="edge27" class="edge">
<title>7&#45;&gt;9</title>
<path fill="none" stroke="grey" stroke-width="2" d="M598.47,-359.82C582.17,-340.76 561.98,-309.82 579,-288 588.99,-275.19 680.85,-255.66 740.03,-244.23"/>
<polygon fill="grey" stroke="grey" stroke-width="2" points="740.79,-247.65 749.95,-242.33 739.47,-240.77 740.79,-247.65"/>
</g>
<!-- 10 -->
<g id="node11" class="node">
<title>10</title>
<path fill="none" stroke="#9fd856" stroke-width="2" stroke-dasharray="5,2" d="M770,-324C770,-324 672,-324 672,-324 666,-324 660,-318 660,-312 660,-312 660,-300 660,-300 660,-294 666,-288 672,-288 672,-288 770,-288 770,-288 776,-288 782,-294 782,-300 782,-300 782,-312 782,-312 782,-318 776,-324 770,-324"/>
<text text-anchor="middle" x="721" y="-303.5" font-family="sans" font-size="10.00">bracken_abundancies</text>
</g>
<!-- 7&#45;&gt;10 -->
<g id="edge29" class="edge">
<title>7&#45;&gt;10</title>
<path fill="none" stroke="grey" stroke-width="2" d="M640.93,-359.88C654.66,-350.81 671.71,-339.55 686.54,-329.76"/>
<polygon fill="grey" stroke="grey" stroke-width="2" points="688.55,-332.62 694.97,-324.19 684.7,-326.78 688.55,-332.62"/>
</g>
<!-- 13 -->
<g id="node14" class="node">
<title>13</title>
<path fill="none" stroke="#59d856" stroke-width="2" stroke-dasharray="5,2" d="M630,-324C630,-324 600,-324 600,-324 594,-324 588,-318 588,-312 588,-312 588,-300 588,-300 588,-294 594,-288 600,-288 600,-288 630,-288 630,-288 636,-288 642,-294 642,-300 642,-300 642,-312 642,-312 642,-318 636,-324 630,-324"/>
<text text-anchor="middle" x="615" y="-303.5" font-family="sans" font-size="10.00">krona</text>
</g>
<!-- 7&#45;&gt;13 -->
<g id="edge33" class="edge">
<title>7&#45;&gt;13</title>
<path fill="none" stroke="grey" stroke-width="2" d="M615,-359.7C615,-351.98 615,-342.71 615,-334.11"/>
<polygon fill="grey" stroke="grey" stroke-width="2" points="618.5,-334.1 615,-324.1 611.5,-334.1 618.5,-334.1"/>
</g>
<!-- 8&#45;&gt;6 -->
<g id="edge22" class="edge">
<title>8&#45;&gt;6</title>
<path fill="none" stroke="grey" stroke-width="2" d="M883.6,-359.97C906.45,-350.69 935.27,-338.78 968.46,-324.15"/>
<polygon fill="grey" stroke="grey" stroke-width="2" points="970.21,-327.2 977.94,-319.95 967.38,-320.8 970.21,-327.2"/>
</g>
<!-- 8&#45;&gt;9 -->
<g id="edge28" class="edge">
<title>8&#45;&gt;9</title>
<path fill="none" stroke="grey" stroke-width="2" d="M834.85,-359.87C826.08,-335.46 809.91,-290.43 799.57,-261.64"/>
<polygon fill="grey" stroke="grey" stroke-width="2" points="802.85,-260.42 796.17,-252.19 796.26,-262.78 802.85,-260.42"/>
</g>
<!-- 11 -->
<g id="node12" class="node">
<title>11</title>
<path fill="none" stroke="#9fd856" stroke-width="2" stroke-dasharray="5,2" d="M948,-324C948,-324 850,-324 850,-324 844,-324 838,-318 838,-312 838,-312 838,-300 838,-300 838,-294 844,-288 850,-288 850,-288 948,-288 948,-288 954,-288 960,-294 960,-300 960,-300 960,-312 960,-312 960,-318 954,-324 948,-324"/>
<text text-anchor="middle" x="899" y="-303.5" font-family="sans" font-size="10.00">bracken_abundancies</text>
</g>
<!-- 8&#45;&gt;11 -->
<g id="edge30" class="edge">
<title>8&#45;&gt;11</title>
<path fill="none" stroke="grey" stroke-width="2" d="M855.34,-359.7C862.29,-351.3 870.77,-341.07 878.4,-331.86"/>
<polygon fill="grey" stroke="grey" stroke-width="2" points="881.14,-334.04 884.83,-324.1 875.75,-329.57 881.14,-334.04"/>
</g>
<!-- 8&#45;&gt;13 -->
<g id="edge34" class="edge">
<title>8&#45;&gt;13</title>
<path fill="none" stroke="grey" stroke-width="2" d="M796.94,-366.96C760.13,-358.06 706.23,-343.89 651.77,-323.99"/>
<polygon fill="grey" stroke="grey" stroke-width="2" points="652.9,-320.68 642.31,-320.48 650.47,-327.24 652.9,-320.68"/>
</g>
<!-- 9&#45;&gt;0 -->
<g id="edge3" class="edge">
<title>9&#45;&gt;0</title>
<path fill="none" stroke="grey" stroke-width="2" d="M812.6,-215.96C823.06,-206.63 834.4,-194.11 840,-180 857.72,-135.39 869.54,-109.83 840,-72 818.72,-44.75 720.29,-29.44 665.35,-22.88"/>
<polygon fill="grey" stroke="grey" stroke-width="2" points="665.63,-19.39 655.3,-21.72 664.83,-26.34 665.63,-19.39"/>
</g>
<!-- 10&#45;&gt;9 -->
<g id="edge25" class="edge">
<title>10&#45;&gt;9</title>
<path fill="none" stroke="grey" stroke-width="2" d="M738.06,-287.7C746.5,-279.14 756.82,-268.66 766.04,-259.3"/>
<polygon fill="grey" stroke="grey" stroke-width="2" points="768.61,-261.68 773.14,-252.1 763.63,-256.77 768.61,-261.68"/>
</g>
<!-- 12 -->
<g id="node13" class="node">
<title>12</title>
<path fill="none" stroke="#d89c56" stroke-width="2" stroke-dasharray="5,2" d="M943.5,-252C943.5,-252 860.5,-252 860.5,-252 854.5,-252 848.5,-246 848.5,-240 848.5,-240 848.5,-228 848.5,-228 848.5,-222 854.5,-216 860.5,-216 860.5,-216 943.5,-216 943.5,-216 949.5,-216 955.5,-222 955.5,-228 955.5,-228 955.5,-240 955.5,-240 955.5,-246 949.5,-252 943.5,-252"/>
<text text-anchor="middle" x="902" y="-231.5" font-family="sans" font-size="10.00">bracken_summary</text>
</g>
<!-- 10&#45;&gt;12 -->
<g id="edge31" class="edge">
<title>10&#45;&gt;12</title>
<path fill="none" stroke="grey" stroke-width="2" d="M765.28,-287.88C790.35,-278.18 821.9,-265.98 848.37,-255.74"/>
<polygon fill="grey" stroke="grey" stroke-width="2" points="849.8,-258.94 857.87,-252.07 847.28,-252.41 849.8,-258.94"/>
</g>
<!-- 11&#45;&gt;9 -->
<g id="edge26" class="edge">
<title>11&#45;&gt;9</title>
<path fill="none" stroke="grey" stroke-width="2" d="M872.34,-287.88C858.22,-278.81 840.69,-267.55 825.44,-257.76"/>
<polygon fill="grey" stroke="grey" stroke-width="2" points="827.07,-254.65 816.77,-252.19 823.29,-260.54 827.07,-254.65"/>
</g>
<!-- 11&#45;&gt;12 -->
<g id="edge32" class="edge">
<title>11&#45;&gt;12</title>
<path fill="none" stroke="grey" stroke-width="2" d="M899.74,-287.7C900.07,-279.98 900.47,-270.71 900.84,-262.11"/>
<polygon fill="grey" stroke="grey" stroke-width="2" points="904.34,-262.25 901.27,-252.1 897.34,-261.95 904.34,-262.25"/>
</g>
<!-- 12&#45;&gt;0 -->
<g id="edge4" class="edge">
<title>12&#45;&gt;0</title>
<path fill="none" stroke="grey" stroke-width="2" d="M903.13,-215.87C904.29,-183.02 901.81,-111 862,-72 834.42,-44.99 724.09,-29.3 665.31,-22.71"/>
<polygon fill="grey" stroke="grey" stroke-width="2" points="665.63,-19.22 655.31,-21.62 664.87,-26.18 665.63,-19.22"/>
</g>
<!-- 13&#45;&gt;0 -->
<g id="edge5" class="edge">
<title>13&#45;&gt;0</title>
<path fill="none" stroke="grey" stroke-width="2" d="M637.68,-287.78C662.5,-269.22 703.72,-239.23 741,-216 769.36,-198.33 789.94,-208.73 807,-180 847.71,-111.43 728.31,-55.64 664.85,-31.67"/>
<polygon fill="grey" stroke="grey" stroke-width="2" points="665.77,-28.28 655.18,-28.1 663.34,-34.84 665.77,-28.28"/>
</g>
<!-- 14&#45;&gt;0 -->
<g id="edge6" class="edge">
<title>14&#45;&gt;0</title>
<path fill="none" stroke="grey" stroke-width="2" d="M54.21,-78.67C61.82,-76.13 70.15,-73.66 78,-72 267.82,-31.76 501.05,-22.02 590.58,-19.71"/>
<polygon fill="grey" stroke="grey" stroke-width="2" points="590.86,-23.2 600.77,-19.46 590.69,-16.2 590.86,-23.2"/>
</g>
<!-- 15&#45;&gt;0 -->
<g id="edge7" class="edge">
<title>15&#45;&gt;0</title>
<path fill="none" stroke="grey" stroke-width="2" d="M1092.24,-143.67C1085.58,-122.93 1071.33,-88.9 1046,-72 983.95,-30.61 755.52,-21.53 665.15,-19.55"/>
<polygon fill="grey" stroke="grey" stroke-width="2" points="665.15,-16.05 655.08,-19.35 665.01,-23.05 665.15,-16.05"/>
</g>
<!-- 16 -->
<g id="node17" class="node">
<title>16</title>
<path fill="none" stroke="#70d856" stroke-width="2" d="M218,-108C218,-108 180,-108 180,-108 174,-108 168,-102 168,-96 168,-96 168,-84 168,-84 168,-78 174,-72 180,-72 180,-72 218,-72 218,-72 224,-72 230,-78 230,-84 230,-84 230,-96 230,-96 230,-102 224,-108 218,-108"/>
<text text-anchor="middle" x="199" y="-87.5" font-family="sans" font-size="10.00">plasclass</text>
</g>
<!-- 16&#45;&gt;0 -->
<g id="edge8" class="edge">
<title>16&#45;&gt;0</title>
<path fill="none" stroke="grey" stroke-width="2" d="M230.18,-76.2C234.76,-74.62 239.47,-73.15 244,-72 368.69,-40.27 521.31,-26.37 590.6,-21.37"/>
<polygon fill="grey" stroke="grey" stroke-width="2" points="590.86,-24.86 600.6,-20.67 590.37,-17.88 590.86,-24.86"/>
</g>
<!-- 17 -->
<g id="node18" class="node">
<title>17</title>
<path fill="none" stroke="#566bd8" stroke-width="2" d="M321,-324C321,-324 247,-324 247,-324 241,-324 235,-318 235,-312 235,-312 235,-300 235,-300 235,-294 241,-288 247,-288 247,-288 321,-288 321,-288 327,-288 333,-294 333,-300 333,-300 333,-312 333,-312 333,-318 327,-324 321,-324"/>
<text text-anchor="middle" x="284" y="-303.5" font-family="sans" font-size="10.00">bbmap_reformat</text>
</g>
<!-- 17&#45;&gt;16 -->
<g id="edge37" class="edge">
<title>17&#45;&gt;16</title>
<path fill="none" stroke="grey" stroke-width="2" d="M238.45,-287.98C222.75,-279.66 206.89,-267.93 198,-252 174.64,-210.16 183.02,-152.15 191.1,-118.4"/>
<polygon fill="grey" stroke="grey" stroke-width="2" points="194.58,-118.9 193.67,-108.34 187.8,-117.16 194.58,-118.9"/>
</g>
<!-- 22 -->
<g id="node23" class="node">
<title>22</title>
<path fill="none" stroke="#56d86b" stroke-width="2" d="M263.5,-252C263.5,-252 218.5,-252 218.5,-252 212.5,-252 206.5,-246 206.5,-240 206.5,-240 206.5,-228 206.5,-228 206.5,-222 212.5,-216 218.5,-216 218.5,-216 263.5,-216 263.5,-216 269.5,-216 275.5,-222 275.5,-228 275.5,-228 275.5,-240 275.5,-240 275.5,-246 269.5,-252 263.5,-252"/>
<text text-anchor="middle" x="241" y="-231.5" font-family="sans" font-size="10.00">metaquast</text>
</g>
<!-- 17&#45;&gt;22 -->
<g id="edge43" class="edge">
<title>17&#45;&gt;22</title>
<path fill="none" stroke="grey" stroke-width="2" d="M273.37,-287.7C268.37,-279.56 262.31,-269.69 256.79,-260.7"/>
<polygon fill="grey" stroke="grey" stroke-width="2" points="259.72,-258.79 251.51,-252.1 253.76,-262.46 259.72,-258.79"/>
</g>
<!-- 17&#45;&gt;23 -->
<g id="edge46" class="edge">
<title>17&#45;&gt;23</title>
<path fill="none" stroke="grey" stroke-width="2" d="M235.09,-287.97C200.23,-275.83 154.01,-259.73 121.71,-248.48"/>
<polygon fill="grey" stroke="grey" stroke-width="2" points="122.76,-245.14 112.16,-245.16 120.45,-251.75 122.76,-245.14"/>
</g>
<!-- 26 -->
<g id="node27" class="node">
<title>26</title>
<path fill="none" stroke="#d88556" stroke-width="2" d="M340,-180C340,-180 256,-180 256,-180 250,-180 244,-174 244,-168 244,-168 244,-156 244,-156 244,-150 250,-144 256,-144 256,-144 340,-144 340,-144 346,-144 352,-150 352,-156 352,-156 352,-168 352,-168 352,-174 346,-180 340,-180"/>
<text text-anchor="middle" x="298" y="-159.5" font-family="sans" font-size="10.00">kraken2_assembly</text>
</g>
<!-- 17&#45;&gt;26 -->
<g id="edge54" class="edge">
<title>17&#45;&gt;26</title>
<path fill="none" stroke="grey" stroke-width="2" d="M285.69,-287.87C288.07,-263.67 292.46,-219.21 295.3,-190.39"/>
<polygon fill="grey" stroke="grey" stroke-width="2" points="298.81,-190.48 296.31,-180.19 291.84,-189.8 298.81,-190.48"/>
</g>
<!-- 28 -->
<g id="node29" class="node">
<title>28</title>
<path fill="none" stroke="#ced856" stroke-width="2" d="M452,-252C452,-252 420,-252 420,-252 414,-252 408,-246 408,-240 408,-240 408,-228 408,-228 408,-222 414,-216 420,-216 420,-216 452,-216 452,-216 458,-216 464,-222 464,-228 464,-228 464,-240 464,-240 464,-246 458,-252 452,-252"/>
<text text-anchor="middle" x="436" y="-231.5" font-family="sans" font-size="10.00">abricate</text>
</g>
<!-- 17&#45;&gt;28 -->
<g id="edge56" class="edge">
<title>17&#45;&gt;28</title>
<path fill="none" stroke="grey" stroke-width="2" d="M321.18,-287.88C344.67,-277.06 374.91,-263.13 398.46,-252.29"/>
<polygon fill="grey" stroke="grey" stroke-width="2" points="400.16,-255.36 407.78,-248 397.23,-249 400.16,-255.36"/>
</g>
<!-- 18&#45;&gt;17 -->
<g id="edge38" class="edge">
<title>18&#45;&gt;17</title>
<path fill="none" stroke="grey" stroke-width="2" d="M262.17,-359.7C265.43,-351.81 269.37,-342.3 273,-333.55"/>
<polygon fill="grey" stroke="grey" stroke-width="2" points="276.32,-334.68 276.91,-324.1 269.85,-332 276.32,-334.68"/>
</g>
<!-- 19 -->
<g id="node20" class="node">
<title>19</title>
<path fill="none" stroke="#70d856" stroke-width="2" d="M786,-180C786,-180 748,-180 748,-180 742,-180 736,-174 736,-168 736,-168 736,-156 736,-156 736,-150 742,-144 748,-144 748,-144 786,-144 786,-144 792,-144 798,-150 798,-156 798,-156 798,-168 798,-168 798,-174 792,-180 786,-180"/>
<text text-anchor="middle" x="767" y="-159.5" font-family="sans" font-size="10.00">plasclass</text>
</g>
<!-- 19&#45;&gt;0 -->
<g id="edge9" class="edge">
<title>19&#45;&gt;0</title>
<path fill="none" stroke="grey" stroke-width="2" d="M750.23,-143.87C725.71,-118.82 679.93,-72.05 651.89,-43.41"/>
<polygon fill="grey" stroke="grey" stroke-width="2" points="654.32,-40.89 644.83,-36.19 649.32,-45.78 654.32,-40.89"/>
</g>
<!-- 20 -->
<g id="node21" class="node">
<title>20</title>
<path fill="none" stroke="#566bd8" stroke-width="2" d="M520,-324C520,-324 446,-324 446,-324 440,-324 434,-318 434,-312 434,-312 434,-300 434,-300 434,-294 440,-288 446,-288 446,-288 520,-288 520,-288 526,-288 532,-294 532,-300 532,-300 532,-312 532,-312 532,-318 526,-324 520,-324"/>
<text text-anchor="middle" x="483" y="-303.5" font-family="sans" font-size="10.00">bbmap_reformat</text>
</g>
<!-- 20&#45;&gt;19 -->
<g id="edge40" class="edge">
<title>20&#45;&gt;19</title>
<path fill="none" stroke="grey" stroke-width="2" d="M517.26,-287.87C569.83,-261.58 670.22,-211.39 726.38,-183.31"/>
<polygon fill="grey" stroke="grey" stroke-width="2" points="728.29,-186.27 735.67,-178.67 725.16,-180.01 728.29,-186.27"/>
</g>
<!-- 20&#45;&gt;22 -->
<g id="edge44" class="edge">
<title>20&#45;&gt;22</title>
<path fill="none" stroke="grey" stroke-width="2" d="M433.74,-290.75C390.24,-278.17 327.38,-259.99 285.4,-247.84"/>
<polygon fill="grey" stroke="grey" stroke-width="2" points="286.31,-244.46 275.73,-245.05 284.36,-251.19 286.31,-244.46"/>
</g>
<!-- 20&#45;&gt;24 -->
<g id="edge48" class="edge">
<title>20&#45;&gt;24</title>
<path fill="none" stroke="grey" stroke-width="2" d="M532.21,-295.48C547.19,-292.8 563.74,-290.06 579,-288 749.75,-264.96 794.81,-278.86 965,-252 977.09,-250.09 990.12,-247.41 1001.93,-244.74"/>
<polygon fill="grey" stroke="grey" stroke-width="2" points="1002.99,-248.09 1011.93,-242.41 1001.4,-241.27 1002.99,-248.09"/>
</g>
<!-- 27 -->
<g id="node28" class="node">
<title>27</title>
<path fill="none" stroke="#d88556" stroke-width="2" d="M706,-180C706,-180 622,-180 622,-180 616,-180 610,-174 610,-168 610,-168 610,-156 610,-156 610,-150 616,-144 622,-144 622,-144 706,-144 706,-144 712,-144 718,-150 718,-156 718,-156 718,-168 718,-168 718,-174 712,-180 706,-180"/>
<text text-anchor="middle" x="664" y="-159.5" font-family="sans" font-size="10.00">kraken2_assembly</text>
</g>
<!-- 20&#45;&gt;27 -->
<g id="edge55" class="edge">
<title>20&#45;&gt;27</title>
<path fill="none" stroke="grey" stroke-width="2" d="M504.83,-287.87C537.04,-262.6 597.39,-215.25 633.82,-186.68"/>
<polygon fill="grey" stroke="grey" stroke-width="2" points="636.38,-189.12 642.09,-180.19 632.06,-183.61 636.38,-189.12"/>
</g>
<!-- 29 -->
<g id="node30" class="node">
<title>29</title>
<path fill="none" stroke="#ced856" stroke-width="2" d="M526,-252C526,-252 494,-252 494,-252 488,-252 482,-246 482,-240 482,-240 482,-228 482,-228 482,-222 488,-216 494,-216 494,-216 526,-216 526,-216 532,-216 538,-222 538,-228 538,-228 538,-240 538,-240 538,-246 532,-252 526,-252"/>
<text text-anchor="middle" x="510" y="-231.5" font-family="sans" font-size="10.00">abricate</text>
</g>
<!-- 20&#45;&gt;29 -->
<g id="edge57" class="edge">
<title>20&#45;&gt;29</title>
<path fill="none" stroke="grey" stroke-width="2" d="M489.67,-287.7C492.71,-279.81 496.38,-270.3 499.76,-261.55"/>
<polygon fill="grey" stroke="grey" stroke-width="2" points="503.07,-262.69 503.4,-252.1 496.54,-260.17 503.07,-262.69"/>
</g>
<!-- 21&#45;&gt;20 -->
<g id="edge41" class="edge">
<title>21&#45;&gt;20</title>
<path fill="none" stroke="grey" stroke-width="2" d="M496.55,-359.7C494.55,-351.9 492.13,-342.51 489.9,-333.83"/>
<polygon fill="grey" stroke="grey" stroke-width="2" points="493.28,-332.92 487.4,-324.1 486.5,-334.66 493.28,-332.92"/>
</g>
<!-- 22&#45;&gt;0 -->
<g id="edge10" class="edge">
<title>22&#45;&gt;0</title>
<path fill="none" stroke="grey" stroke-width="2" d="M234.44,-215.94C228.32,-196.98 221.91,-166.13 235,-144 268.82,-86.82 303.62,-94.85 366,-72 443.26,-43.71 539.16,-29.18 590.83,-22.93"/>
<polygon fill="grey" stroke="grey" stroke-width="2" points="591.34,-26.39 600.86,-21.75 590.52,-19.44 591.34,-26.39"/>
</g>
<!-- 23&#45;&gt;0 -->
<g id="edge11" class="edge">
<title>23&#45;&gt;0</title>
<path fill="none" stroke="grey" stroke-width="2" d="M81.85,-215.92C80.63,-182.51 83.23,-108.57 126,-72 161.2,-41.89 480.68,-25.37 590.85,-20.52"/>
<polygon fill="grey" stroke="grey" stroke-width="2" points="591,-24.02 600.84,-20.09 590.7,-17.03 591,-24.02"/>
</g>
<!-- 24&#45;&gt;0 -->
<g id="edge12" class="edge">
<title>24&#45;&gt;0</title>
<path fill="none" stroke="grey" stroke-width="2" d="M1042.04,-215.8C1043.02,-182.51 1039.97,-109.26 998,-72 949.25,-28.72 749.14,-20.73 665.26,-19.29"/>
<polygon fill="grey" stroke="grey" stroke-width="2" points="665.21,-15.79 655.16,-19.14 665.1,-22.79 665.21,-15.79"/>
</g>
<!-- 25 -->
<g id="node26" class="node">
<title>25</title>
<path fill="none" stroke="#88d856" stroke-width="2" d="M581,-108C581,-108 501,-108 501,-108 495,-108 489,-102 489,-96 489,-96 489,-84 489,-84 489,-78 495,-72 501,-72 501,-72 581,-72 581,-72 587,-72 593,-78 593,-84 593,-84 593,-96 593,-96 593,-102 587,-108 581,-108"/>
<text text-anchor="middle" x="541" y="-87.5" font-family="sans" font-size="10.00">abricate_taxcaller</text>
</g>
<!-- 25&#45;&gt;0 -->
<g id="edge13" class="edge">
<title>25&#45;&gt;0</title>
<path fill="none" stroke="grey" stroke-width="2" d="M562.51,-71.7C573.46,-62.88 586.95,-52.03 598.82,-42.47"/>
<polygon fill="grey" stroke="grey" stroke-width="2" points="601.14,-45.1 606.74,-36.1 596.76,-39.65 601.14,-45.1"/>
</g>
<!-- 26&#45;&gt;25 -->
<g id="edge49" class="edge">
<title>26&#45;&gt;25</title>
<path fill="none" stroke="grey" stroke-width="2" d="M352.23,-145.38C389.76,-134.57 439.78,-120.16 478.9,-108.89"/>
<polygon fill="grey" stroke="grey" stroke-width="2" points="479.96,-112.23 488.6,-106.09 478.02,-105.5 479.96,-112.23"/>
</g>
<!-- 27&#45;&gt;25 -->
<g id="edge50" class="edge">
<title>27&#45;&gt;25</title>
<path fill="none" stroke="grey" stroke-width="2" d="M633.91,-143.88C617.68,-134.64 597.46,-123.13 580.03,-113.21"/>
<polygon fill="grey" stroke="grey" stroke-width="2" points="581.63,-110.09 571.2,-108.19 578.16,-116.18 581.63,-110.09"/>
</g>
<!-- 28&#45;&gt;25 -->
<g id="edge51" class="edge">
<title>28&#45;&gt;25</title>
<path fill="none" stroke="grey" stroke-width="2" d="M431.27,-215.82C427.07,-196.75 423.48,-165.8 437,-144 446.78,-128.24 462.87,-116.97 479.5,-109"/>
<polygon fill="grey" stroke="grey" stroke-width="2" points="481.03,-112.15 488.75,-104.9 478.19,-105.75 481.03,-112.15"/>
</g>
<!-- 30 -->
<g id="node31" class="node">
<title>30</title>
<path fill="none" stroke="#d8b456" stroke-width="2" d="M542,-180C542,-180 458,-180 458,-180 452,-180 446,-174 446,-168 446,-168 446,-156 446,-156 446,-150 452,-144 458,-144 458,-144 542,-144 542,-144 548,-144 554,-150 554,-156 554,-156 554,-168 554,-168 554,-174 548,-180 542,-180"/>
<text text-anchor="middle" x="500" y="-159.5" font-family="sans" font-size="10.00">abricate_summary</text>
</g>
<!-- 28&#45;&gt;30 -->
<g id="edge58" class="edge">
<title>28&#45;&gt;30</title>
<path fill="none" stroke="grey" stroke-width="2" d="M451.82,-215.7C459.57,-207.22 469.04,-196.86 477.52,-187.58"/>
<polygon fill="grey" stroke="grey" stroke-width="2" points="480.2,-189.85 484.36,-180.1 475.03,-185.12 480.2,-189.85"/>
</g>
<!-- 29&#45;&gt;25 -->
<g id="edge52" class="edge">
<title>29&#45;&gt;25</title>
<path fill="none" stroke="grey" stroke-width="2" d="M534.48,-215.77C545.4,-206.56 557.12,-194.19 563,-180 571.38,-159.78 564.4,-135.6 556.16,-117.55"/>
<polygon fill="grey" stroke="grey" stroke-width="2" points="559.11,-115.62 551.53,-108.21 552.84,-118.73 559.11,-115.62"/>
</g>
<!-- 29&#45;&gt;30 -->
<g id="edge59" class="edge">
<title>29&#45;&gt;30</title>
<path fill="none" stroke="grey" stroke-width="2" d="M507.53,-215.7C506.43,-207.98 505.1,-198.71 503.87,-190.11"/>
<polygon fill="grey" stroke="grey" stroke-width="2" points="507.32,-189.51 502.44,-180.1 500.39,-190.5 507.32,-189.51"/>
</g>
<!-- 30&#45;&gt;25 -->
<g id="edge53" class="edge">
<title>30&#45;&gt;25</title>
<path fill="none" stroke="grey" stroke-width="2" d="M510.13,-143.7C514.85,-135.64 520.56,-125.89 525.78,-116.98"/>
<polygon fill="grey" stroke="grey" stroke-width="2" points="528.95,-118.5 530.98,-108.1 522.91,-114.96 528.95,-118.5"/>
</g>
<!-- 31 -->
<g id="node32" class="node">
<title>31</title>
<path fill="none" stroke="#56c9d8" stroke-width="2" d="M204.5,-324C204.5,-324 123.5,-324 123.5,-324 117.5,-324 111.5,-318 111.5,-312 111.5,-312 111.5,-300 111.5,-300 111.5,-294 117.5,-288 123.5,-288 123.5,-288 204.5,-288 204.5,-288 210.5,-288 216.5,-294 216.5,-300 216.5,-300 216.5,-312 216.5,-312 216.5,-318 210.5,-324 204.5,-324"/>
<text text-anchor="middle" x="164" y="-303.5" font-family="sans" font-size="10.00">coverm_summary</text>
</g>
<!-- 31&#45;&gt;0 -->
<g id="edge14" class="edge">
<title>31&#45;&gt;0</title>
<path fill="none" stroke="grey" stroke-width="2" d="M156.78,-288C140.01,-245.51 103.88,-133.71 159,-72 187.63,-39.95 484.32,-24.84 590.48,-20.42"/>
<polygon fill="grey" stroke="grey" stroke-width="2" points="590.87,-23.91 600.72,-20.01 590.59,-16.92 590.87,-23.91"/>
</g>
<!-- 32&#45;&gt;31 -->
<g id="edge60" class="edge">
<title>32&#45;&gt;31</title>
<path fill="none" stroke="grey" stroke-width="2" d="M166.26,-359.7C165.93,-351.98 165.53,-342.71 165.16,-334.11"/>
<polygon fill="grey" stroke="grey" stroke-width="2" points="168.66,-333.95 164.73,-324.1 161.66,-334.25 168.66,-333.95"/>
</g>
<!-- 33&#45;&gt;31 -->
<g id="edge61" class="edge">
<title>33&#45;&gt;31</title>
<path fill="none" stroke="grey" stroke-width="2" d="M311.97,-363.96C308.96,-362.59 305.93,-361.25 303,-360 276.24,-348.6 246.13,-336.97 220.79,-327.53"/>
<polygon fill="grey" stroke="grey" stroke-width="2" points="221.92,-324.21 211.33,-324.02 219.49,-330.78 221.92,-324.21"/>
</g>
</g>
</svg>
