<?xml version="1.0" encoding="UTF-8" standalone="no"?>
<!DOCTYPE svg PUBLIC "-//W3C//DTD SVG 1.1//EN"
 "http://www.w3.org/Graphics/SVG/1.1/DTD/svg11.dtd">
<!-- Generated by graphviz version 2.49.0 (20210829.0051)
 -->
<!-- Title: snakemake_dag Pages: 1 -->
<svg width="1103pt" height="548pt"
 viewBox="0.00 0.00 1103.00 548.00" xmlns="http://www.w3.org/2000/svg" xmlns:xlink="http://www.w3.org/1999/xlink">
<g id="graph0" class="graph" transform="scale(1 1) rotate(0) translate(4 544)">
<title>snakemake_dag</title>
<polygon fill="white" stroke="transparent" points="-4,4 -4,-544 1099,-544 1099,4 -4,4"/>
<!-- 0 -->
<g id="node1" class="node">
<title>0</title>
<path fill="none" stroke="#56d8c9" stroke-width="2" d="M460,-36C460,-36 430,-36 430,-36 424,-36 418,-30 418,-24 418,-24 418,-12 418,-12 418,-6 424,0 430,0 430,0 460,0 460,0 466,0 472,-6 472,-12 472,-12 472,-24 472,-24 472,-30 466,-36 460,-36"/>
<text text-anchor="middle" x="445" y="-15.5" font-family="sans" font-size="10.00">all</text>
</g>
<!-- 1 -->
<g id="node2" class="node">
<title>1</title>
<path fill="none" stroke="#d8bc56" stroke-width="2" stroke-dasharray="5,2" d="M735,-396C735,-396 705,-396 705,-396 699,-396 693,-390 693,-384 693,-384 693,-372 693,-372 693,-366 699,-360 705,-360 705,-360 735,-360 735,-360 741,-360 747,-366 747,-372 747,-372 747,-384 747,-384 747,-390 741,-396 735,-396"/>
<text text-anchor="middle" x="720" y="-375.5" font-family="sans" font-size="10.00">seqfu</text>
</g>
<!-- 1&#45;&gt;0 -->
<g id="edge1" class="edge">
<title>1&#45;&gt;0</title>
<path fill="none" stroke="grey" stroke-width="2" d="M747.2,-363.44C762.66,-354.35 781.06,-340.95 792,-324 813.94,-290.02 811,-275.45 811,-235 811,-235 811,-235 811,-161 811,-101.5 764.26,-98.52 711,-72 635.52,-34.42 535.49,-23.48 482.18,-20.3"/>
<polygon fill="grey" stroke="grey" stroke-width="2" points="482.34,-16.8 472.17,-19.76 481.96,-23.79 482.34,-16.8"/>
</g>
<!-- 2 -->
<g id="node3" class="node">
<title>2</title>
<path fill="none" stroke="#56d8a9" stroke-width="2" stroke-dasharray="5,2" d="M272.5,-468C272.5,-468 219.5,-468 219.5,-468 213.5,-468 207.5,-462 207.5,-456 207.5,-456 207.5,-444 207.5,-444 207.5,-438 213.5,-432 219.5,-432 219.5,-432 272.5,-432 272.5,-432 278.5,-432 284.5,-438 284.5,-444 284.5,-444 284.5,-456 284.5,-456 284.5,-462 278.5,-468 272.5,-468"/>
<text text-anchor="middle" x="246" y="-447.5" font-family="sans" font-size="10.00">bbmap_split</text>
</g>
<!-- 2&#45;&gt;1 -->
<g id="edge12" class="edge">
<title>2&#45;&gt;1</title>
<path fill="none" stroke="grey" stroke-width="2" d="M284.72,-447.31C360.62,-443.31 533.84,-430.85 675,-396 677.65,-395.35 680.35,-394.58 683.05,-393.75"/>
<polygon fill="grey" stroke="grey" stroke-width="2" points="684.37,-397 692.72,-390.49 682.13,-390.37 684.37,-397"/>
</g>
<!-- 7 -->
<g id="node8" class="node">
<title>7</title>
<path fill="none" stroke="#d85656" stroke-width="2" stroke-dasharray="5,2" d="M278,-396C278,-396 214,-396 214,-396 208,-396 202,-390 202,-384 202,-384 202,-372 202,-372 202,-366 208,-360 214,-360 214,-360 278,-360 278,-360 284,-360 290,-366 290,-372 290,-372 290,-384 290,-384 290,-390 284,-396 278,-396"/>
<text text-anchor="middle" x="246" y="-375.5" font-family="sans" font-size="10.00">kraken2_reads</text>
</g>
<!-- 2&#45;&gt;7 -->
<g id="edge20" class="edge">
<title>2&#45;&gt;7</title>
<path fill="none" stroke="grey" stroke-width="2" d="M246,-431.7C246,-423.98 246,-414.71 246,-406.11"/>
<polygon fill="grey" stroke="grey" stroke-width="2" points="249.5,-406.1 246,-396.1 242.5,-406.1 249.5,-406.1"/>
</g>
<!-- 13 -->
<g id="node14" class="node">
<title>13</title>
<path fill="none" stroke="#97d856" stroke-width="2" d="M105,-108C105,-108 75,-108 75,-108 69,-108 63,-102 63,-96 63,-96 63,-84 63,-84 63,-78 69,-72 75,-72 75,-72 105,-72 105,-72 111,-72 117,-78 117,-84 117,-84 117,-96 117,-96 117,-102 111,-108 105,-108"/>
<text text-anchor="middle" x="90" y="-87.5" font-family="sans" font-size="10.00">kmc3</text>
</g>
<!-- 2&#45;&gt;13 -->
<g id="edge30" class="edge">
<title>2&#45;&gt;13</title>
<path fill="none" stroke="grey" stroke-width="2" d="M207.29,-444.52C138.01,-434.13 0,-401.56 0,-307 0,-307 0,-307 0,-233 0,-185.71 36.04,-141.41 62.51,-115.25"/>
<polygon fill="grey" stroke="grey" stroke-width="2" points="65.23,-117.49 70.03,-108.05 60.38,-112.44 65.23,-117.49"/>
</g>
<!-- 17 -->
<g id="node18" class="node">
<title>17</title>
<path fill="none" stroke="#61d856" stroke-width="2" stroke-dasharray="5,2" d="M653.5,-396C653.5,-396 600.5,-396 600.5,-396 594.5,-396 588.5,-390 588.5,-384 588.5,-384 588.5,-372 588.5,-372 588.5,-366 594.5,-360 600.5,-360 600.5,-360 653.5,-360 653.5,-360 659.5,-360 665.5,-366 665.5,-372 665.5,-372 665.5,-384 665.5,-384 665.5,-390 659.5,-396 653.5,-396"/>
<text text-anchor="middle" x="627" y="-375.5" font-family="sans" font-size="10.00">metaspades</text>
</g>
<!-- 2&#45;&gt;17 -->
<g id="edge35" class="edge">
<title>2&#45;&gt;17</title>
<path fill="none" stroke="grey" stroke-width="2" d="M284.86,-443.48C344.38,-434.79 461.55,-416.76 560,-396 565.87,-394.76 572,-393.36 578.06,-391.91"/>
<polygon fill="grey" stroke="grey" stroke-width="2" points="579.28,-395.21 588.15,-389.43 577.61,-388.41 579.28,-395.21"/>
</g>
<!-- 20 -->
<g id="node21" class="node">
<title>20</title>
<path fill="none" stroke="#56d0d8" stroke-width="2" d="M252,-252C252,-252 218,-252 218,-252 212,-252 206,-246 206,-240 206,-240 206,-228 206,-228 206,-222 212,-216 218,-216 218,-216 252,-216 252,-216 258,-216 264,-222 264,-228 264,-228 264,-240 264,-240 264,-246 258,-252 252,-252"/>
<text text-anchor="middle" x="235" y="-231.5" font-family="sans" font-size="10.00">metabat</text>
</g>
<!-- 2&#45;&gt;20 -->
<g id="edge38" class="edge">
<title>2&#45;&gt;20</title>
<path fill="none" stroke="grey" stroke-width="2" d="M207.46,-436.25C162.05,-418.91 88.76,-383.08 57,-324 49.42,-309.91 47.44,-300.83 57,-288 73.61,-265.72 148.54,-249.42 195.73,-241.14"/>
<polygon fill="grey" stroke="grey" stroke-width="2" points="196.37,-244.58 205.63,-239.45 195.19,-237.68 196.37,-244.58"/>
</g>
<!-- 29 -->
<g id="node30" class="node">
<title>29</title>
<path fill="none" stroke="#568ad8" stroke-width="2" d="M539,-396C539,-396 509,-396 509,-396 503,-396 497,-390 497,-384 497,-384 497,-372 497,-372 497,-366 503,-360 509,-360 509,-360 539,-360 539,-360 545,-360 551,-366 551,-372 551,-372 551,-384 551,-384 551,-390 545,-396 539,-396"/>
<text text-anchor="middle" x="524" y="-375.5" font-family="sans" font-size="10.00">coverm</text>
</g>
<!-- 2&#45;&gt;29 -->
<g id="edge55" class="edge">
<title>2&#45;&gt;29</title>
<path fill="none" stroke="grey" stroke-width="2" d="M284.65,-439.27C338.22,-425.78 434.37,-401.57 487.03,-388.31"/>
<polygon fill="grey" stroke="grey" stroke-width="2" points="488.11,-391.65 496.96,-385.81 486.41,-384.86 488.11,-391.65"/>
</g>
<!-- 3 -->
<g id="node4" class="node">
<title>3</title>
<path fill="none" stroke="#5673d8" stroke-width="2" stroke-dasharray="5,2" d="M208,-540C208,-540 92,-540 92,-540 86,-540 80,-534 80,-528 80,-528 80,-516 80,-516 80,-510 86,-504 92,-504 92,-504 208,-504 208,-504 214,-504 220,-510 220,-516 220,-516 220,-528 220,-528 220,-534 214,-540 208,-540"/>
<text text-anchor="middle" x="150" y="-525" font-family="sans" font-size="10.00">fastp</text>
<text text-anchor="middle" x="150" y="-514" font-family="sans" font-size="10.00">sample: H26399&#45;L1_S146</text>
</g>
<!-- 3&#45;&gt;2 -->
<g id="edge14" class="edge">
<title>3&#45;&gt;2</title>
<path fill="none" stroke="grey" stroke-width="2" d="M173.73,-503.7C185.94,-494.8 200.99,-483.82 214.18,-474.2"/>
<polygon fill="grey" stroke="grey" stroke-width="2" points="216.52,-476.82 222.54,-468.1 212.4,-471.17 216.52,-476.82"/>
</g>
<!-- 6 -->
<g id="node7" class="node">
<title>6</title>
<path fill="none" stroke="#56a2d8" stroke-width="2" stroke-dasharray="5,2" d="M108,-324C108,-324 78,-324 78,-324 72,-324 66,-318 66,-312 66,-312 66,-300 66,-300 66,-294 72,-288 78,-288 78,-288 108,-288 108,-288 114,-288 120,-294 120,-300 120,-300 120,-312 120,-312 120,-318 114,-324 108,-324"/>
<text text-anchor="middle" x="93" y="-303.5" font-family="sans" font-size="10.00">multiqc</text>
</g>
<!-- 3&#45;&gt;6 -->
<g id="edge16" class="edge">
<title>3&#45;&gt;6</title>
<path fill="none" stroke="grey" stroke-width="2" d="M114.83,-503.94C101.02,-495.25 86.65,-483.26 79,-468 57.35,-424.81 71.16,-366.89 82.52,-333.58"/>
<polygon fill="grey" stroke="grey" stroke-width="2" points="85.84,-334.68 85.92,-324.08 79.25,-332.32 85.84,-334.68"/>
</g>
<!-- 4 -->
<g id="node5" class="node">
<title>4</title>
<path fill="none" stroke="#56d8a9" stroke-width="2" stroke-dasharray="5,2" d="M818.5,-468C818.5,-468 765.5,-468 765.5,-468 759.5,-468 753.5,-462 753.5,-456 753.5,-456 753.5,-444 753.5,-444 753.5,-438 759.5,-432 765.5,-432 765.5,-432 818.5,-432 818.5,-432 824.5,-432 830.5,-438 830.5,-444 830.5,-444 830.5,-456 830.5,-456 830.5,-462 824.5,-468 818.5,-468"/>
<text text-anchor="middle" x="792" y="-447.5" font-family="sans" font-size="10.00">bbmap_split</text>
</g>
<!-- 4&#45;&gt;1 -->
<g id="edge13" class="edge">
<title>4&#45;&gt;1</title>
<path fill="none" stroke="grey" stroke-width="2" d="M774.2,-431.7C765.4,-423.14 754.62,-412.66 745,-403.3"/>
<polygon fill="grey" stroke="grey" stroke-width="2" points="747.2,-400.57 737.59,-396.1 742.32,-405.58 747.2,-400.57"/>
</g>
<!-- 8 -->
<g id="node9" class="node">
<title>8</title>
<path fill="none" stroke="#d85656" stroke-width="2" stroke-dasharray="5,2" d="M430,-396C430,-396 366,-396 366,-396 360,-396 354,-390 354,-384 354,-384 354,-372 354,-372 354,-366 360,-360 366,-360 366,-360 430,-360 430,-360 436,-360 442,-366 442,-372 442,-372 442,-384 442,-384 442,-390 436,-396 430,-396"/>
<text text-anchor="middle" x="398" y="-375.5" font-family="sans" font-size="10.00">kraken2_reads</text>
</g>
<!-- 4&#45;&gt;8 -->
<g id="edge21" class="edge">
<title>4&#45;&gt;8</title>
<path fill="none" stroke="grey" stroke-width="2" d="M753.1,-442.4C695.25,-432.54 583.14,-413.28 488,-396 476.5,-393.91 464.19,-391.62 452.48,-389.42"/>
<polygon fill="grey" stroke="grey" stroke-width="2" points="452.86,-385.93 442.38,-387.51 451.56,-392.81 452.86,-385.93"/>
</g>
<!-- 14 -->
<g id="node15" class="node">
<title>14</title>
<path fill="none" stroke="#97d856" stroke-width="2" d="M1083,-180C1083,-180 1053,-180 1053,-180 1047,-180 1041,-174 1041,-168 1041,-168 1041,-156 1041,-156 1041,-150 1047,-144 1053,-144 1053,-144 1083,-144 1083,-144 1089,-144 1095,-150 1095,-156 1095,-156 1095,-168 1095,-168 1095,-174 1089,-180 1083,-180"/>
<text text-anchor="middle" x="1068" y="-159.5" font-family="sans" font-size="10.00">kmc3</text>
</g>
<!-- 4&#45;&gt;14 -->
<g id="edge31" class="edge">
<title>4&#45;&gt;14</title>
<path fill="none" stroke="grey" stroke-width="2" d="M830.82,-444.86C866.84,-439.23 920.15,-426.13 956,-396 1021.49,-340.97 1051.54,-238.74 1062.63,-190.09"/>
<polygon fill="grey" stroke="grey" stroke-width="2" points="1066.11,-190.53 1064.82,-180.01 1059.27,-189.03 1066.11,-190.53"/>
</g>
<!-- 19 -->
<g id="node20" class="node">
<title>19</title>
<path fill="none" stroke="#61d856" stroke-width="2" stroke-dasharray="5,2" d="M907.5,-396C907.5,-396 854.5,-396 854.5,-396 848.5,-396 842.5,-390 842.5,-384 842.5,-384 842.5,-372 842.5,-372 842.5,-366 848.5,-360 854.5,-360 854.5,-360 907.5,-360 907.5,-360 913.5,-360 919.5,-366 919.5,-372 919.5,-372 919.5,-384 919.5,-384 919.5,-390 913.5,-396 907.5,-396"/>
<text text-anchor="middle" x="881" y="-375.5" font-family="sans" font-size="10.00">metaspades</text>
</g>
<!-- 4&#45;&gt;19 -->
<g id="edge37" class="edge">
<title>4&#45;&gt;19</title>
<path fill="none" stroke="grey" stroke-width="2" d="M814,-431.7C825.21,-422.88 839,-412.03 851.15,-402.47"/>
<polygon fill="grey" stroke="grey" stroke-width="2" points="853.56,-405.04 859.25,-396.1 849.23,-399.54 853.56,-405.04"/>
</g>
<!-- 21 -->
<g id="node22" class="node">
<title>21</title>
<path fill="none" stroke="#56d0d8" stroke-width="2" d="M1011,-252C1011,-252 977,-252 977,-252 971,-252 965,-246 965,-240 965,-240 965,-228 965,-228 965,-222 971,-216 977,-216 977,-216 1011,-216 1011,-216 1017,-216 1023,-222 1023,-228 1023,-228 1023,-240 1023,-240 1023,-246 1017,-252 1011,-252"/>
<text text-anchor="middle" x="994" y="-231.5" font-family="sans" font-size="10.00">metabat</text>
</g>
<!-- 4&#45;&gt;21 -->
<g id="edge40" class="edge">
<title>4&#45;&gt;21</title>
<path fill="none" stroke="grey" stroke-width="2" d="M830.53,-442.74C860.81,-435.98 902.21,-422.4 929,-396 966.55,-358.99 983.13,-297.4 989.87,-262.09"/>
<polygon fill="grey" stroke="grey" stroke-width="2" points="993.35,-262.49 991.66,-252.03 986.46,-261.27 993.35,-262.49"/>
</g>
<!-- 30 -->
<g id="node31" class="node">
<title>30</title>
<path fill="none" stroke="#568ad8" stroke-width="2" d="M807,-396C807,-396 777,-396 777,-396 771,-396 765,-390 765,-384 765,-384 765,-372 765,-372 765,-366 771,-360 777,-360 777,-360 807,-360 807,-360 813,-360 819,-366 819,-372 819,-372 819,-384 819,-384 819,-390 813,-396 807,-396"/>
<text text-anchor="middle" x="792" y="-375.5" font-family="sans" font-size="10.00">coverm</text>
</g>
<!-- 4&#45;&gt;30 -->
<g id="edge56" class="edge">
<title>4&#45;&gt;30</title>
<path fill="none" stroke="grey" stroke-width="2" d="M792,-431.7C792,-423.98 792,-414.71 792,-406.11"/>
<polygon fill="grey" stroke="grey" stroke-width="2" points="795.5,-406.1 792,-396.1 788.5,-406.1 795.5,-406.1"/>
</g>
<!-- 5 -->
<g id="node6" class="node">
<title>5</title>
<path fill="none" stroke="#5673d8" stroke-width="2" stroke-dasharray="5,2" d="M608,-540C608,-540 492,-540 492,-540 486,-540 480,-534 480,-528 480,-528 480,-516 480,-516 480,-510 486,-504 492,-504 492,-504 608,-504 608,-504 614,-504 620,-510 620,-516 620,-516 620,-528 620,-528 620,-534 614,-540 608,-540"/>
<text text-anchor="middle" x="550" y="-525" font-family="sans" font-size="10.00">fastp</text>
<text text-anchor="middle" x="550" y="-514" font-family="sans" font-size="10.00">sample: H26400&#45;L1_S147</text>
</g>
<!-- 5&#45;&gt;4 -->
<g id="edge15" class="edge">
<title>5&#45;&gt;4</title>
<path fill="none" stroke="grey" stroke-width="2" d="M608.89,-503.97C650.12,-492.04 704.54,-476.3 743.32,-465.08"/>
<polygon fill="grey" stroke="grey" stroke-width="2" points="744.68,-468.33 753.32,-462.19 742.74,-461.61 744.68,-468.33"/>
</g>
<!-- 5&#45;&gt;6 -->
<g id="edge17" class="edge">
<title>5&#45;&gt;6</title>
<path fill="none" stroke="grey" stroke-width="2" d="M479.86,-517.19C390.86,-511.23 243.43,-497.19 198,-468 147.96,-435.84 116.7,-370.42 102.33,-333.64"/>
<polygon fill="grey" stroke="grey" stroke-width="2" points="105.52,-332.2 98.72,-324.08 98.97,-334.67 105.52,-332.2"/>
</g>
<!-- 6&#45;&gt;0 -->
<g id="edge2" class="edge">
<title>6&#45;&gt;0</title>
<path fill="none" stroke="grey" stroke-width="2" d="M120.28,-291.44C123.19,-290.2 126.14,-289.02 129,-288 191.13,-265.81 219.3,-290.31 273,-252 350.67,-196.58 329.25,-145.58 390,-72 398.31,-61.93 408.36,-51.77 417.59,-43.08"/>
<polygon fill="grey" stroke="grey" stroke-width="2" points="420.11,-45.51 425.08,-36.15 415.36,-40.37 420.11,-45.51"/>
</g>
<!-- 7&#45;&gt;6 -->
<g id="edge18" class="edge">
<title>7&#45;&gt;6</title>
<path fill="none" stroke="grey" stroke-width="2" d="M207.99,-359.97C187.13,-350.57 160.6,-338.57 129.46,-324.18"/>
<polygon fill="grey" stroke="grey" stroke-width="2" points="130.65,-320.88 120.11,-319.86 127.71,-327.23 130.65,-320.88"/>
</g>
<!-- 9 -->
<g id="node10" class="node">
<title>9</title>
<path fill="none" stroke="#56d87b" stroke-width="2" stroke-dasharray="5,2" d="M426,-252C426,-252 370,-252 370,-252 364,-252 358,-246 358,-240 358,-240 358,-228 358,-228 358,-222 364,-216 370,-216 370,-216 426,-216 426,-216 432,-216 438,-222 438,-228 438,-228 438,-240 438,-240 438,-246 432,-252 426,-252"/>
<text text-anchor="middle" x="398" y="-231.5" font-family="sans" font-size="10.00">kraken_biom</text>
</g>
<!-- 7&#45;&gt;9 -->
<g id="edge24" class="edge">
<title>7&#45;&gt;9</title>
<path fill="none" stroke="grey" stroke-width="2" d="M254.68,-359.93C265.11,-340.68 284.08,-309.29 307,-288 319.98,-275.94 336.17,-265.42 351.28,-257"/>
<polygon fill="grey" stroke="grey" stroke-width="2" points="353.36,-259.85 360.51,-252.03 350.04,-253.69 353.36,-259.85"/>
</g>
<!-- 10 -->
<g id="node11" class="node">
<title>10</title>
<path fill="none" stroke="#d88556" stroke-width="2" stroke-dasharray="5,2" d="M248,-324C248,-324 150,-324 150,-324 144,-324 138,-318 138,-312 138,-312 138,-300 138,-300 138,-294 144,-288 150,-288 150,-288 248,-288 248,-288 254,-288 260,-294 260,-300 260,-300 260,-312 260,-312 260,-318 254,-324 248,-324"/>
<text text-anchor="middle" x="199" y="-303.5" font-family="sans" font-size="10.00">bracken_abundancies</text>
</g>
<!-- 7&#45;&gt;10 -->
<g id="edge26" class="edge">
<title>7&#45;&gt;10</title>
<path fill="none" stroke="grey" stroke-width="2" d="M234.38,-359.7C228.86,-351.47 222.15,-341.48 216.07,-332.42"/>
<polygon fill="grey" stroke="grey" stroke-width="2" points="218.96,-330.46 210.48,-324.1 213.15,-334.36 218.96,-330.46"/>
</g>
<!-- 12 -->
<g id="node13" class="node">
<title>12</title>
<path fill="none" stroke="#d86e56" stroke-width="2" d="M358,-324C358,-324 328,-324 328,-324 322,-324 316,-318 316,-312 316,-312 316,-300 316,-300 316,-294 322,-288 328,-288 328,-288 358,-288 358,-288 364,-288 370,-294 370,-300 370,-300 370,-312 370,-312 370,-318 364,-324 358,-324"/>
<text text-anchor="middle" x="343" y="-303.5" font-family="sans" font-size="10.00">krona</text>
</g>
<!-- 7&#45;&gt;12 -->
<g id="edge28" class="edge">
<title>7&#45;&gt;12</title>
<path fill="none" stroke="grey" stroke-width="2" d="M269.98,-359.7C282.31,-350.8 297.52,-339.82 310.85,-330.2"/>
<polygon fill="grey" stroke="grey" stroke-width="2" points="313.24,-332.79 319.3,-324.1 309.14,-327.12 313.24,-332.79"/>
</g>
<!-- 8&#45;&gt;6 -->
<g id="edge19" class="edge">
<title>8&#45;&gt;6</title>
<path fill="none" stroke="grey" stroke-width="2" d="M353.95,-368.94C289.15,-356.99 172,-335.04 129.84,-323.58"/>
<polygon fill="grey" stroke="grey" stroke-width="2" points="130.82,-320.22 120.23,-320.71 128.81,-326.93 130.82,-320.22"/>
</g>
<!-- 8&#45;&gt;9 -->
<g id="edge25" class="edge">
<title>8&#45;&gt;9</title>
<path fill="none" stroke="grey" stroke-width="2" d="M398,-359.87C398,-335.67 398,-291.21 398,-262.39"/>
<polygon fill="grey" stroke="grey" stroke-width="2" points="401.5,-262.19 398,-252.19 394.5,-262.19 401.5,-262.19"/>
</g>
<!-- 11 -->
<g id="node12" class="node">
<title>11</title>
<path fill="none" stroke="#d88556" stroke-width="2" stroke-dasharray="5,2" d="M536,-324C536,-324 438,-324 438,-324 432,-324 426,-318 426,-312 426,-312 426,-300 426,-300 426,-294 432,-288 438,-288 438,-288 536,-288 536,-288 542,-288 548,-294 548,-300 548,-300 548,-312 548,-312 548,-318 542,-324 536,-324"/>
<text text-anchor="middle" x="487" y="-303.5" font-family="sans" font-size="10.00">bracken_abundancies</text>
</g>
<!-- 8&#45;&gt;11 -->
<g id="edge27" class="edge">
<title>8&#45;&gt;11</title>
<path fill="none" stroke="grey" stroke-width="2" d="M420,-359.7C431.21,-350.88 445,-340.03 457.15,-330.47"/>
<polygon fill="grey" stroke="grey" stroke-width="2" points="459.56,-333.04 465.25,-324.1 455.23,-327.54 459.56,-333.04"/>
</g>
<!-- 8&#45;&gt;12 -->
<g id="edge29" class="edge">
<title>8&#45;&gt;12</title>
<path fill="none" stroke="grey" stroke-width="2" d="M384.4,-359.7C377.88,-351.39 369.93,-341.28 362.75,-332.14"/>
<polygon fill="grey" stroke="grey" stroke-width="2" points="365.37,-329.81 356.44,-324.1 359.87,-334.13 365.37,-329.81"/>
</g>
<!-- 9&#45;&gt;0 -->
<g id="edge3" class="edge">
<title>9&#45;&gt;0</title>
<path fill="none" stroke="grey" stroke-width="2" d="M401.25,-215.54C406.83,-185.91 418.83,-123.95 431,-72 432.98,-63.53 435.34,-54.35 437.54,-46.05"/>
<polygon fill="grey" stroke="grey" stroke-width="2" points="440.99,-46.69 440.22,-36.12 434.23,-44.87 440.99,-46.69"/>
</g>
<!-- 10&#45;&gt;9 -->
<g id="edge22" class="edge">
<title>10&#45;&gt;9</title>
<path fill="none" stroke="grey" stroke-width="2" d="M247.43,-287.97C277.95,-277.23 317.26,-263.4 348.07,-252.56"/>
<polygon fill="grey" stroke="grey" stroke-width="2" points="349.48,-255.78 357.75,-249.16 347.15,-249.18 349.48,-255.78"/>
</g>
<!-- 11&#45;&gt;9 -->
<g id="edge23" class="edge">
<title>11&#45;&gt;9</title>
<path fill="none" stroke="grey" stroke-width="2" d="M465,-287.7C453.79,-278.88 440,-268.03 427.85,-258.47"/>
<polygon fill="grey" stroke="grey" stroke-width="2" points="429.77,-255.54 419.75,-252.1 425.44,-261.04 429.77,-255.54"/>
</g>
<!-- 12&#45;&gt;0 -->
<g id="edge4" class="edge">
<title>12&#45;&gt;0</title>
<path fill="none" stroke="grey" stroke-width="2" d="M342.23,-287.95C341.85,-269.8 342.5,-240.39 349,-216 366.43,-150.59 406,-80.94 428.52,-44.54"/>
<polygon fill="grey" stroke="grey" stroke-width="2" points="431.51,-46.36 433.85,-36.03 425.58,-42.65 431.51,-46.36"/>
</g>
<!-- 13&#45;&gt;0 -->
<g id="edge5" class="edge">
<title>13&#45;&gt;0</title>
<path fill="none" stroke="grey" stroke-width="2" d="M117.27,-83.62C180.25,-71.2 335.93,-40.51 407.68,-26.36"/>
<polygon fill="grey" stroke="grey" stroke-width="2" points="408.51,-29.76 417.64,-24.39 407.15,-22.9 408.51,-29.76"/>
</g>
<!-- 14&#45;&gt;0 -->
<g id="edge6" class="edge">
<title>14&#45;&gt;0</title>
<path fill="none" stroke="grey" stroke-width="2" d="M1065.37,-143.99C1061.19,-123.25 1050.9,-88.88 1027,-72 982.55,-40.61 603.9,-24.61 482.38,-20.25"/>
<polygon fill="grey" stroke="grey" stroke-width="2" points="482.21,-16.74 472.09,-19.89 481.96,-23.74 482.21,-16.74"/>
</g>
<!-- 15 -->
<g id="node16" class="node">
<title>15</title>
<path fill="none" stroke="#d8a456" stroke-width="2" stroke-dasharray="5,2" d="M896.5,-252C896.5,-252 851.5,-252 851.5,-252 845.5,-252 839.5,-246 839.5,-240 839.5,-240 839.5,-228 839.5,-228 839.5,-222 845.5,-216 851.5,-216 851.5,-216 896.5,-216 896.5,-216 902.5,-216 908.5,-222 908.5,-228 908.5,-228 908.5,-240 908.5,-240 908.5,-246 902.5,-252 896.5,-252"/>
<text text-anchor="middle" x="874" y="-231.5" font-family="sans" font-size="10.00">metaquast</text>
</g>
<!-- 15&#45;&gt;0 -->
<g id="edge7" class="edge">
<title>15&#45;&gt;0</title>
<path fill="none" stroke="grey" stroke-width="2" d="M871.18,-215.98C864.63,-178.57 847.21,-90.98 825,-72 773.95,-28.39 567.66,-20.6 482.28,-19.25"/>
<polygon fill="grey" stroke="grey" stroke-width="2" points="482.29,-15.75 472.25,-19.12 482.2,-22.75 482.29,-15.75"/>
</g>
<!-- 16 -->
<g id="node17" class="node">
<title>16</title>
<path fill="none" stroke="#56b9d8" stroke-width="2" stroke-dasharray="5,2" d="M770.5,-324C770.5,-324 701.5,-324 701.5,-324 695.5,-324 689.5,-318 689.5,-312 689.5,-312 689.5,-300 689.5,-300 689.5,-294 695.5,-288 701.5,-288 701.5,-288 770.5,-288 770.5,-288 776.5,-288 782.5,-294 782.5,-300 782.5,-300 782.5,-312 782.5,-312 782.5,-318 776.5,-324 770.5,-324"/>
<text text-anchor="middle" x="736" y="-303.5" font-family="sans" font-size="10.00">bbmap_rename</text>
</g>
<!-- 16&#45;&gt;15 -->
<g id="edge32" class="edge">
<title>16&#45;&gt;15</title>
<path fill="none" stroke="grey" stroke-width="2" d="M769.76,-287.88C788.22,-278.51 811.28,-266.81 831.02,-256.8"/>
<polygon fill="grey" stroke="grey" stroke-width="2" points="832.78,-259.83 840.11,-252.19 829.61,-253.59 832.78,-259.83"/>
</g>
<!-- 16&#45;&gt;20 -->
<g id="edge39" class="edge">
<title>16&#45;&gt;20</title>
<path fill="none" stroke="grey" stroke-width="2" d="M689.35,-289.91C686.54,-289.21 683.74,-288.57 681,-288 535.65,-257.95 496.21,-270.95 349,-252 323.99,-248.78 295.97,-244.61 273.97,-241.21"/>
<polygon fill="grey" stroke="grey" stroke-width="2" points="274.43,-237.73 264.01,-239.65 273.35,-244.65 274.43,-237.73"/>
</g>
<!-- 23 -->
<g id="node24" class="node">
<title>23</title>
<path fill="none" stroke="#c6d856" stroke-width="2" stroke-dasharray="5,2" d="M569,-180C569,-180 485,-180 485,-180 479,-180 473,-174 473,-168 473,-168 473,-156 473,-156 473,-150 479,-144 485,-144 485,-144 569,-144 569,-144 575,-144 581,-150 581,-156 581,-156 581,-168 581,-168 581,-174 575,-180 569,-180"/>
<text text-anchor="middle" x="527" y="-159.5" font-family="sans" font-size="10.00">kraken2_assembly</text>
</g>
<!-- 16&#45;&gt;23 -->
<g id="edge47" class="edge">
<title>16&#45;&gt;23</title>
<path fill="none" stroke="grey" stroke-width="2" d="M703.89,-287.82C685.93,-277.89 663.34,-264.85 644,-252 612.95,-231.37 579.25,-205.31 556.02,-186.73"/>
<polygon fill="grey" stroke="grey" stroke-width="2" points="557.95,-183.79 547.96,-180.25 553.56,-189.24 557.95,-183.79"/>
</g>
<!-- 25 -->
<g id="node26" class="node">
<title>25</title>
<path fill="none" stroke="#afd856" stroke-width="2" d="M697,-252C697,-252 665,-252 665,-252 659,-252 653,-246 653,-240 653,-240 653,-228 653,-228 653,-222 659,-216 665,-216 665,-216 697,-216 697,-216 703,-216 709,-222 709,-228 709,-228 709,-240 709,-240 709,-246 703,-252 697,-252"/>
<text text-anchor="middle" x="681" y="-231.5" font-family="sans" font-size="10.00">abricate</text>
</g>
<!-- 16&#45;&gt;25 -->
<g id="edge49" class="edge">
<title>16&#45;&gt;25</title>
<path fill="none" stroke="grey" stroke-width="2" d="M722.4,-287.7C715.88,-279.39 707.93,-269.28 700.75,-260.14"/>
<polygon fill="grey" stroke="grey" stroke-width="2" points="703.37,-257.81 694.44,-252.1 697.87,-262.13 703.37,-257.81"/>
</g>
<!-- 17&#45;&gt;16 -->
<g id="edge34" class="edge">
<title>17&#45;&gt;16</title>
<path fill="none" stroke="grey" stroke-width="2" d="M653.66,-359.88C667.78,-350.81 685.31,-339.55 700.56,-329.76"/>
<polygon fill="grey" stroke="grey" stroke-width="2" points="702.71,-332.54 709.23,-324.19 698.93,-326.65 702.71,-332.54"/>
</g>
<!-- 18 -->
<g id="node19" class="node">
<title>18</title>
<path fill="none" stroke="#56b9d8" stroke-width="2" stroke-dasharray="5,2" d="M920.5,-324C920.5,-324 851.5,-324 851.5,-324 845.5,-324 839.5,-318 839.5,-312 839.5,-312 839.5,-300 839.5,-300 839.5,-294 845.5,-288 851.5,-288 851.5,-288 920.5,-288 920.5,-288 926.5,-288 932.5,-294 932.5,-300 932.5,-300 932.5,-312 932.5,-312 932.5,-318 926.5,-324 920.5,-324"/>
<text text-anchor="middle" x="886" y="-303.5" font-family="sans" font-size="10.00">bbmap_rename</text>
</g>
<!-- 18&#45;&gt;15 -->
<g id="edge33" class="edge">
<title>18&#45;&gt;15</title>
<path fill="none" stroke="grey" stroke-width="2" d="M883.03,-287.7C881.71,-279.98 880.12,-270.71 878.65,-262.11"/>
<polygon fill="grey" stroke="grey" stroke-width="2" points="882.07,-261.37 876.93,-252.1 875.17,-262.55 882.07,-261.37"/>
</g>
<!-- 18&#45;&gt;21 -->
<g id="edge41" class="edge">
<title>18&#45;&gt;21</title>
<path fill="none" stroke="grey" stroke-width="2" d="M912.42,-287.88C926.41,-278.81 943.78,-267.55 958.89,-257.76"/>
<polygon fill="grey" stroke="grey" stroke-width="2" points="960.99,-260.57 967.48,-252.19 957.18,-254.69 960.99,-260.57"/>
</g>
<!-- 24 -->
<g id="node25" class="node">
<title>24</title>
<path fill="none" stroke="#c6d856" stroke-width="2" stroke-dasharray="5,2" d="M973,-180C973,-180 889,-180 889,-180 883,-180 877,-174 877,-168 877,-168 877,-156 877,-156 877,-150 883,-144 889,-144 889,-144 973,-144 973,-144 979,-144 985,-150 985,-156 985,-156 985,-168 985,-168 985,-174 979,-180 973,-180"/>
<text text-anchor="middle" x="931" y="-159.5" font-family="sans" font-size="10.00">kraken2_assembly</text>
</g>
<!-- 18&#45;&gt;24 -->
<g id="edge48" class="edge">
<title>18&#45;&gt;24</title>
<path fill="none" stroke="grey" stroke-width="2" d="M898.84,-287.74C905.61,-277.79 913.43,-264.75 918,-252 925.14,-232.06 928.37,-208.27 929.82,-190.31"/>
<polygon fill="grey" stroke="grey" stroke-width="2" points="933.32,-190.43 930.5,-180.22 926.33,-189.96 933.32,-190.43"/>
</g>
<!-- 26 -->
<g id="node27" class="node">
<title>26</title>
<path fill="none" stroke="#afd856" stroke-width="2" d="M771,-252C771,-252 739,-252 739,-252 733,-252 727,-246 727,-240 727,-240 727,-228 727,-228 727,-222 733,-216 739,-216 739,-216 771,-216 771,-216 777,-216 783,-222 783,-228 783,-228 783,-240 783,-240 783,-246 777,-252 771,-252"/>
<text text-anchor="middle" x="755" y="-231.5" font-family="sans" font-size="10.00">abricate</text>
</g>
<!-- 18&#45;&gt;26 -->
<g id="edge50" class="edge">
<title>18&#45;&gt;26</title>
<path fill="none" stroke="grey" stroke-width="2" d="M853.95,-287.88C835.25,-277.88 811.58,-265.23 792.07,-254.81"/>
<polygon fill="grey" stroke="grey" stroke-width="2" points="793.63,-251.67 783.16,-250.05 790.33,-257.85 793.63,-251.67"/>
</g>
<!-- 19&#45;&gt;18 -->
<g id="edge36" class="edge">
<title>19&#45;&gt;18</title>
<path fill="none" stroke="grey" stroke-width="2" d="M882.24,-359.7C882.79,-351.98 883.45,-342.71 884.06,-334.11"/>
<polygon fill="grey" stroke="grey" stroke-width="2" points="887.56,-334.33 884.78,-324.1 880.57,-333.83 887.56,-334.33"/>
</g>
<!-- 20&#45;&gt;0 -->
<g id="edge8" class="edge">
<title>20&#45;&gt;0</title>
<path fill="none" stroke="grey" stroke-width="2" d="M234.53,-215.89C234.58,-183.39 239.44,-112.39 278,-72 311.98,-36.4 369.71,-24.63 407.6,-20.79"/>
<polygon fill="grey" stroke="grey" stroke-width="2" points="408.07,-24.26 417.73,-19.9 407.46,-17.29 408.07,-24.26"/>
</g>
<!-- 21&#45;&gt;0 -->
<g id="edge9" class="edge">
<title>21&#45;&gt;0</title>
<path fill="none" stroke="grey" stroke-width="2" d="M999.02,-215.81C1003.52,-196.74 1007.54,-165.78 994,-144 955.79,-82.56 917.24,-93 848,-72 717.61,-32.46 554.65,-22.41 482.43,-19.86"/>
<polygon fill="grey" stroke="grey" stroke-width="2" points="482.15,-16.35 472.04,-19.53 481.92,-23.35 482.15,-16.35"/>
</g>
<!-- 22 -->
<g id="node23" class="node">
<title>22</title>
<path fill="none" stroke="#56d892" stroke-width="2" d="M690,-108C690,-108 610,-108 610,-108 604,-108 598,-102 598,-96 598,-96 598,-84 598,-84 598,-78 604,-72 610,-72 610,-72 690,-72 690,-72 696,-72 702,-78 702,-84 702,-84 702,-96 702,-96 702,-102 696,-108 690,-108"/>
<text text-anchor="middle" x="650" y="-87.5" font-family="sans" font-size="10.00">abricate_taxcaller</text>
</g>
<!-- 22&#45;&gt;0 -->
<g id="edge10" class="edge">
<title>22&#45;&gt;0</title>
<path fill="none" stroke="grey" stroke-width="2" d="M600.11,-71.97C563.6,-59.5 514.85,-42.85 481.83,-31.57"/>
<polygon fill="grey" stroke="grey" stroke-width="2" points="482.71,-28.18 472.11,-28.26 480.44,-34.8 482.71,-28.18"/>
</g>
<!-- 23&#45;&gt;22 -->
<g id="edge42" class="edge">
<title>23&#45;&gt;22</title>
<path fill="none" stroke="grey" stroke-width="2" d="M557.09,-143.88C573.32,-134.64 593.54,-123.13 610.97,-113.21"/>
<polygon fill="grey" stroke="grey" stroke-width="2" points="612.84,-116.18 619.8,-108.19 609.37,-110.09 612.84,-116.18"/>
</g>
<!-- 24&#45;&gt;22 -->
<g id="edge43" class="edge">
<title>24&#45;&gt;22</title>
<path fill="none" stroke="grey" stroke-width="2" d="M876.82,-147.5C829.67,-135.76 761.35,-118.74 712.02,-106.45"/>
<polygon fill="grey" stroke="grey" stroke-width="2" points="712.66,-103 702.11,-103.98 710.97,-109.8 712.66,-103"/>
</g>
<!-- 25&#45;&gt;22 -->
<g id="edge44" class="edge">
<title>25&#45;&gt;22</title>
<path fill="none" stroke="grey" stroke-width="2" d="M656.52,-215.77C645.6,-206.56 633.88,-194.19 628,-180 619.62,-159.78 626.6,-135.6 634.84,-117.55"/>
<polygon fill="grey" stroke="grey" stroke-width="2" points="638.16,-118.73 639.47,-108.21 631.89,-115.62 638.16,-118.73"/>
</g>
<!-- 27 -->
<g id="node28" class="node">
<title>27</title>
<path fill="none" stroke="#d8d356" stroke-width="2" d="M733,-180C733,-180 649,-180 649,-180 643,-180 637,-174 637,-168 637,-168 637,-156 637,-156 637,-150 643,-144 649,-144 649,-144 733,-144 733,-144 739,-144 745,-150 745,-156 745,-156 745,-168 745,-168 745,-174 739,-180 733,-180"/>
<text text-anchor="middle" x="691" y="-159.5" font-family="sans" font-size="10.00">abricate_summary</text>
</g>
<!-- 25&#45;&gt;27 -->
<g id="edge51" class="edge">
<title>25&#45;&gt;27</title>
<path fill="none" stroke="grey" stroke-width="2" d="M683.47,-215.7C684.57,-207.98 685.9,-198.71 687.13,-190.11"/>
<polygon fill="grey" stroke="grey" stroke-width="2" points="690.61,-190.5 688.56,-180.1 683.68,-189.51 690.61,-190.5"/>
</g>
<!-- 26&#45;&gt;22 -->
<g id="edge45" class="edge">
<title>26&#45;&gt;22</title>
<path fill="none" stroke="grey" stroke-width="2" d="M759.73,-215.82C763.93,-196.75 767.52,-165.8 754,-144 744.22,-128.24 728.13,-116.97 711.5,-109"/>
<polygon fill="grey" stroke="grey" stroke-width="2" points="712.81,-105.75 702.25,-104.9 709.97,-112.15 712.81,-105.75"/>
</g>
<!-- 26&#45;&gt;27 -->
<g id="edge52" class="edge">
<title>26&#45;&gt;27</title>
<path fill="none" stroke="grey" stroke-width="2" d="M739.18,-215.7C731.43,-207.22 721.96,-196.86 713.48,-187.58"/>
<polygon fill="grey" stroke="grey" stroke-width="2" points="715.97,-185.12 706.64,-180.1 710.8,-189.85 715.97,-185.12"/>
</g>
<!-- 27&#45;&gt;22 -->
<g id="edge46" class="edge">
<title>27&#45;&gt;22</title>
<path fill="none" stroke="grey" stroke-width="2" d="M680.87,-143.7C676.15,-135.64 670.44,-125.89 665.22,-116.98"/>
<polygon fill="grey" stroke="grey" stroke-width="2" points="668.09,-114.96 660.02,-108.1 662.05,-118.5 668.09,-114.96"/>
</g>
<!-- 28 -->
<g id="node29" class="node">
<title>28</title>
<path fill="none" stroke="#78d856" stroke-width="2" d="M659.5,-324C659.5,-324 578.5,-324 578.5,-324 572.5,-324 566.5,-318 566.5,-312 566.5,-312 566.5,-300 566.5,-300 566.5,-294 572.5,-288 578.5,-288 578.5,-288 659.5,-288 659.5,-288 665.5,-288 671.5,-294 671.5,-300 671.5,-300 671.5,-312 671.5,-312 671.5,-318 665.5,-324 659.5,-324"/>
<text text-anchor="middle" x="619" y="-303.5" font-family="sans" font-size="10.00">coverm_summary</text>
</g>
<!-- 28&#45;&gt;0 -->
<g id="edge11" class="edge">
<title>28&#45;&gt;0</title>
<path fill="none" stroke="grey" stroke-width="2" d="M584.96,-287.95C548.34,-267.65 491.67,-230.08 464,-180 440.66,-137.76 440.06,-79.89 442.21,-46.27"/>
<polygon fill="grey" stroke="grey" stroke-width="2" points="445.7,-46.49 442.98,-36.25 438.72,-45.96 445.7,-46.49"/>
</g>
<!-- 29&#45;&gt;28 -->
<g id="edge53" class="edge">
<title>29&#45;&gt;28</title>
<path fill="none" stroke="grey" stroke-width="2" d="M547.48,-359.7C559.56,-350.8 574.45,-339.82 587.52,-330.2"/>
<polygon fill="grey" stroke="grey" stroke-width="2" points="589.81,-332.85 595.79,-324.1 585.66,-327.22 589.81,-332.85"/>
</g>
<!-- 30&#45;&gt;28 -->
<g id="edge54" class="edge">
<title>30&#45;&gt;28</title>
<path fill="none" stroke="grey" stroke-width="2" d="M764.97,-363.98C761.96,-362.6 758.92,-361.25 756,-360 729.72,-348.73 700.18,-337.17 675.28,-327.73"/>
<polygon fill="grey" stroke="grey" stroke-width="2" points="676.22,-324.34 665.63,-324.09 673.75,-330.89 676.22,-324.34"/>
</g>
</g>
</svg>
